<?xml version="1.0" encoding="UTF-8"?>
<svg xmlns="http://www.w3.org/2000/svg" id="Layer_1" data-name="Layer 1" viewBox="0 0 24 24">
  <path d="m10.5,7c0-.828.672-1.5,1.5-1.5s1.5.672,1.5,1.5-.672,1.5-1.5,1.5-1.5-.672-1.5-1.5Zm-4.198,2.128l.518-.298c-.203-.573-.32-1.188-.32-1.83s.116-1.257.32-1.83l-.518-.298c-.479-.276-.643-.887-.368-1.366.277-.479.888-.642,1.366-.368l.518.299c.803-.941,1.917-1.608,3.182-1.841v-.596c0-.552.448-1,1-1s1,.448,1,1v.596c1.268.234,2.384.903,3.188,1.848l.53-.305c.478-.274,1.09-.111,1.366.368.275.479.111,1.09-.368,1.366l-.533.307c.201.571.317,1.182.317,1.821s-.115,1.25-.317,1.821l.533.307c.479.276.643.887.368,1.366-.185.321-.521.501-.868.501-.169,0-.341-.043-.498-.133l-.53-.305c-.802.942-1.913,1.61-3.177,1.846l.007.585c.006.552-.436,1.005-.988,1.012h-.013c-.546,0-.993-.44-1-.988l-.007-.606c-1.269-.232-2.387-.899-3.193-1.843l-.518.299c-.157.09-.329.133-.498.133-.346,0-.682-.18-.868-.501-.275-.479-.111-1.09.368-1.366Zm2.198-2.128c0,1.93,1.57,3.5,3.5,3.5s3.5-1.57,3.5-3.5-1.57-3.5-3.5-3.5-3.5,1.57-3.5,3.5Zm15.5,13c0,2.206-1.794,4-4,4H4c-2.206,0-4-1.794-4-4s1.794-4,4-4h16c2.206,0,4,1.794,4,4Zm-20,2h10v-4H4c-1.103,0-2,.897-2,2s.897,2,2,2Zm18-2c0-1.103-.897-2-2-2h-4v4h4c1.103,0,2-.897,2-2Z"/>
</svg>
