<?xml version="1.0" encoding="UTF-8"?>
<svg xmlns="http://www.w3.org/2000/svg" id="Layer_1" data-name="Layer 1" viewBox="0 0 24 24">
  <path d="m19.052,6.666c.556.446,1.339.446,1.895,0,1.183-.948,3.052-3.071,3.052-4.666,0-1.105-.895-2-2-2s-2,.895-2,2c0-1.105-.895-2-2-2s-2,.895-2,2c0,1.595,1.87,3.718,3.052,4.666Z"/>
  <path d="m21.362,9.072c-.428-.048-.886-.072-1.362-.072-2.835,0-5.166,2.751-5.604,3.302-.529-.178-1.227-.302-1.896-.302-1.447.032-2.714.386-3.708.8.306-1.538.266-2.988.231-4.16-.021-.642-.039-1.257.01-1.713l2.29-.729c.415-.132.696-.517.696-.953v-.28l.79-.288c.475-.189.857-.568,1.052-1.041.191-.469.187-.98-.015-1.439C13.255.848,11.745-.024,10-.024c-1.825,0-3.223,1.187-3.323,1.279C.695,5.855-.004,12.011-.01,16.241c0,1.353.557,2.662,1.529,3.59,1.63,1.557,5.158,4.169,10.48,4.169,4.684,0,7.965-1.223,9.894-2.25,1.299-.692,2.106-2.043,2.106-3.526v-6.172c0-1.53-1.134-2.812-2.638-2.98Zm.638,9.152c0,.742-.401,1.417-1.047,1.761-1.727.919-4.682,2.015-8.953,2.015-4.624,0-7.686-2.265-9.1-3.615-.588-.561-.911-1.322-.91-2.142.006-4.129.682-9.385,5.954-13.442.01-.008.967-.825,2.056-.825.985,0,1.662.427,1.943.889l-1.267.46c-.395.144-.658.519-.658.94v.25l-2.143.682c-.298.095-.534.324-.639.619-.279.787-.249,1.76-.214,2.886.052,1.699.117,3.814-.913,5.817-.001.002,0,.004-.002.006-.059.117-.095.243-.105.372-.009.119.008.237.04.351.003.01,0,.02.003.029.078.246.248.462.496.589.373.192.805.127,1.104-.127,0,0,0,0,0,0,.021-.017,1.993-1.673,4.853-1.738,1.95,0,3.119,1.485,3.173,1.562.193.285.508.438.828.438.191,0,.386-.055.557-.17.458-.308.58-.929.272-1.387-.032-.048-.423-.604-1.139-1.172.742-.846,2.304-2.271,3.809-2.271.402,0,.786.02,1.14.06.49.055.86.482.86.993v6.172Z"/>
</svg>
