<?xml version="1.0" encoding="UTF-8"?>
<svg xmlns="http://www.w3.org/2000/svg" id="Layer_1" data-name="Layer 1" viewBox="0 0 24 24">
  <path d="M17.778,8.033c.607,.566,.973,1.346,.973,2.195,0,.86-.37,1.659-.983,2.222,.613,.567,.983,1.35,.983,2.203,0,1.176-.687,2.243-1.75,2.738v.609c0,1.103-.897,2-2,2v1.5c0,1.378-1.122,2.5-2.5,2.5h-1c-1.378,0-2.5-1.122-2.5-2.5v-.632c-.272,.078-.547,.131-.825,.131-.574,0-1.145-.165-1.644-.488-.863-.56-1.377-1.507-1.377-2.535,0-.86,.37-1.66,.983-2.223-.613-.567-.983-1.35-.983-2.203s.366-1.65,.973-2.212c-.607-.566-.973-1.346-.973-2.194,0-.86,.37-1.66,.983-2.223-.613-.567-.983-1.35-.983-2.203,0-1.191,.703-2.274,1.791-2.76L10.747,.264c.937-.419,2.013-.335,2.876,.225,.83,.539,1.326,1.439,1.363,2.422,.809-.208,1.67-.091,2.388,.374,.862,.56,1.377,1.507,1.377,2.535,0,.855-.366,1.65-.973,2.212Zm-2.466-3.146l-7.557,3.325c-.363,.162-.601,.528-.601,.931,0,.353,.17,.665,.466,.857,.27,.175,.586,.206,.883,.104l7.646-3.352c.364-.162,.602-.528,.602-.931,0-.353-.17-.666-.466-.857-.171-.111-.361-.167-.554-.167-.141,0-.283,.03-.419,.091Zm.051,4.396l-7.608,3.336c-.363,.162-.601,.528-.601,.931,0,.353,.17,.665,.466,.857,.297,.193,.652,.22,.973,.076,.001,0,.003-.001,.004-.002l7.552-3.322c.364-.162,.602-.528,.602-.931,0-.353-.17-.666-.466-.857-.171-.111-.361-.167-.554-.167-.123,0-.247,.033-.368,.08ZM7.154,4.717c0,.353,.17,.665,.466,.857,.297,.193,.652,.22,.973,.076t0,0l3.802-1.693c.367-.164,.605-.53,.605-.933,0-.353-.17-.665-.466-.857-.171-.111-.361-.167-.554-.167-.141,0-.283,.03-.419,.091l-3.802,1.693c-.367,.164-.605,.53-.605,.933Zm1.443,14.189l7.552-3.322c.364-.162,.602-.528,.602-.931,0-.353-.17-.666-.466-.857-.171-.111-.361-.167-.554-.167-.141,0-.283,.03-.419,.091l-7.557,3.325c-.363,.162-.601,.528-.601,.931,0,.353,.17,.665,.466,.857,.297,.192,.652,.22,.973,.076,.001,0,.003-.001,.004-.002Zm4.403,1.093h-2v1.5c0,.276,.224,.5,.5,.5h1c.276,0,.5-.224,.5-.5v-1.5Zm11-10c0-.552-.448-1-1-1h-1c-.552,0-1,.448-1,1s.448,1,1,1h1c.552,0,1-.448,1-1Zm-21,0c0-.552-.448-1-1-1H1c-.552,0-1,.448-1,1s.448,1,1,1h1c.552,0,1-.448,1-1ZM22.467,5.412l1-.528c.488-.258,.675-.863,.417-1.351-.257-.488-.862-.676-1.351-.417l-1,.528c-.488,.258-.675,.863-.417,1.351,.179,.339,.526,.533,.885,.533,.157,0,.317-.037,.466-.116Zm1.417,11.055c.258-.488,.071-1.093-.417-1.351l-1-.528c-.489-.259-1.093-.071-1.351,.417s-.071,1.093,.417,1.351l1,.528c.149,.079,.309,.116,.466,.116,.359,0,.706-.194,.885-.533ZM2.895,4.947c.247-.494,.047-1.095-.447-1.342l-1-.5c-.495-.247-1.095-.046-1.342,.447-.247,.494-.047,1.095,.447,1.342l1,.5c.144,.072,.296,.105,.446,.105,.367,0,.72-.202,.896-.553Zm-1.447,11.947l1-.5c.494-.247,.694-.848,.447-1.342-.247-.494-.846-.695-1.342-.447l-1,.5c-.494,.247-.694,.848-.447,1.342,.175,.351,.528,.553,.896,.553,.15,0,.303-.034,.446-.105Z"/>
</svg>
