<?xml version="1.0" encoding="UTF-8"?>
<svg xmlns="http://www.w3.org/2000/svg" id="Layer_1" data-name="Layer 1" viewBox="0 0 24 24">
  <path d="m22.083,6.564L15.083,1.08c-1.815-1.422-4.352-1.422-6.167,0L1.917,6.564c-1.218.953-1.917,2.388-1.917,3.936v8.5c0,2.757,2.243,5,5,5h14c2.757,0,5-2.243,5-5v-8.5c0-1.548-.699-2.982-1.917-3.936Zm-.083,12.436c0,1.654-1.346,3-3,3H5c-1.654,0-3-1.346-3-3v-8.5c0-.929.419-1.789,1.15-2.361l7-5.484c.545-.427,1.197-.64,1.85-.64s1.306.213,1.85.64l7,5.484c.731.572,1.15,1.433,1.15,2.361v8.5Zm-8.5-1.5c0,.828-.672,1.5-1.5,1.5s-1.5-.672-1.5-1.5.672-1.5,1.5-1.5,1.5.672,1.5,1.5Zm2.036-4.035c.391.391.391,1.023,0,1.414-.195.195-.451.293-.707.293s-.512-.098-.707-.293c-1.17-1.17-3.073-1.17-4.243,0-.391.391-1.023.391-1.414,0s-.391-1.023,0-1.414c1.949-1.949,5.122-1.949,7.071,0Zm2.828-2.829c.391.391.391,1.023,0,1.414-.195.195-.451.293-.707.293s-.512-.098-.707-.293c-2.729-2.729-7.17-2.729-9.899,0-.391.391-1.023.391-1.414,0s-.391-1.023,0-1.414c3.509-3.51,9.219-3.51,12.728,0Z"/>
</svg>
