<?xml version="1.0" encoding="UTF-8"?>
<svg xmlns="http://www.w3.org/2000/svg" id="Layer_1" data-name="Layer 1" viewBox="0 0 24 24">
  <path d="m23.182,16.364c-1.812,4.639-6.2,7.636-11.182,7.636-3.408,0-6.667-1.457-8.941-3.997C.786,17.465-.302,14.052.075,10.638.684,5.126,5.126.684,10.638.075c6.147-.673,11.773,3.343,13.086,9.354.188.857-.025,1.747-.584,2.44-.579.719-1.439,1.131-2.36,1.131h-5.779c-.553,0-1-.448-1-1,0-.592-.261-1.151-.715-1.533-.461-.387-1.05-.541-1.656-.435-.787.138-1.458.81-1.596,1.596-.106.607.048,1.195.435,1.656.382.454.94.715,1.533.715.552,0,1,.448,1,1s-.448,1-1,1c-1.185,0-2.302-.521-3.064-1.429-.762-.908-1.08-2.106-.873-3.288.283-1.613,1.607-2.937,3.22-3.22,1.18-.208,2.38.11,3.288.873.646.543,1.097,1.266,1.303,2.064h2.036c-.06-.357-.152-.703-.273-1.037-.93-.171-1.637-.983-1.637-1.963,0-.144.017-.283.045-.418-1.068-.979-2.486-1.582-4.045-1.582s-2.977.603-4.045,1.582c.029.135.045.275.045.418,0,.98-.706,1.792-1.637,1.963-.231.637-.363,1.321-.363,2.037,0,2.762,1.878,5.088,4.423,5.783.366-.473.933-.783,1.577-.783s1.21.309,1.576.782c1.341-.366,2.535-1.186,3.349-2.354.315-.452.937-.566,1.393-.248.453.316.563.939.248,1.393-1.138,1.631-2.83,2.759-4.724,3.208-.304.717-1.014,1.22-1.842,1.22s-1.54-.504-1.843-1.223c-3.524-.836-6.157-4.001-6.157-7.777,0-.953.176-1.863.483-2.711-.297-.349-.483-.795-.483-1.289,0-1.105.895-2,2-2,.214,0,.417.043.611.105,1.424-1.303,3.312-2.105,5.389-2.105s3.966.802,5.389,2.105c.194-.062.396-.105.611-.105,1.105,0,2,.895,2,2,0,.494-.186.94-.483,1.289.198.546.339,1.117.413,1.711h.849c.312,0,.605-.141.803-.386.104-.129.267-.399.188-.759-1.093-5.008-5.781-8.358-10.912-7.792C6.269,2.57,2.57,6.269,2.063,10.857c-.319,2.892.563,5.666,2.485,7.812,1.896,2.117,4.612,3.331,7.452,3.331,4.151,0,7.81-2.498,9.318-6.364.201-.515.782-.768,1.295-.568.515.201.77.781.568,1.295Z"/>
</svg>
