<?xml version="1.0" encoding="UTF-8"?>
<svg xmlns="http://www.w3.org/2000/svg" id="Layer_1" data-name="Layer 1" viewBox="0 0 24 24">
  <path d="m20,5h-1.435c.201-.358.342-.75.401-1.169.127-.888-.1-1.771-.637-2.488-.538-.718-1.323-1.183-2.211-1.31-.885-.125-1.771.1-2.488.637-.696.522-1.226,1.196-1.63,1.882-.404-.685-.934-1.36-1.63-1.881C9.653.133,8.769-.091,7.882.034c-.888.127-1.673.592-2.21,1.309-.538.717-.765,1.601-.638,2.488.06.419.2.813.399,1.169h-1.433C1.794,5,0,6.794,0,9v2c0,1.103.897,2,2,2v6c0,2.757,2.243,5,5,5h4c.553,0,1-.448,1-1s-.447-1-1-1h-4c-1.654,0-3-1.346-3-3v-6h11c.553,0,1-.448,1-1s-.447-1-1-1H2v-2c0-1.103.897-2,2-2h4.392s.004,0,.005,0c.002,0,.004,0,.006,0h7.192s.004,0,.006,0c.002,0,.004,0,.005,0h4.392c1.103,0,2,.897,2,2v2c-.553,0-1,.448-1,1s.447,1,1,1c1.103,0,2-.897,2-2v-2c0-2.206-1.794-4-4-4Zm-5.171-2.729c.289-.217.648-.31,1.006-.257.358.051.676.239.894.529.218.29.309.647.258,1.005-.051.359-.239.676-.561.918-.037.029-.37.278-1.018.533h-2.308c.222-.757.75-1.994,1.73-2.729Zm-7.287,2.171c-.289-.218-.478-.535-.528-.894-.051-.358.04-.715.259-1.006.217-.29.534-.478.893-.529.354-.052.716.04,1.006.258.98.735,1.507,1.971,1.73,2.729h-2.308c-.648-.255-.984-.506-1.05-.558Zm16.402,12.19c.132.362.024.768-.271,1.016l-2.169,1.767.897,2.732c.123.37-.002.777-.311,1.014-.309.237-.734.254-1.06.042l-2.524-1.644-2.482,1.661c-.154.103-.332.155-.51.155-.194,0-.387-.061-.55-.183-.312-.233-.441-.638-.325-1.009l.862-2.765-2.179-1.773c-.293-.249-.4-.654-.267-1.015.132-.361.476-.601.86-.601h2.751l.974-2.732c.133-.359.476-.597.859-.597s.726.238.859.597l.974,2.732h2.751c.385,0,.729.241.861.602Z"/>
</svg>
