<?xml version="1.0" encoding="UTF-8"?>
<svg xmlns="http://www.w3.org/2000/svg" id="Layer_1" data-name="Layer 1" viewBox="0 0 24 24">
  <path d="m23.665,22.587l-.522.6c-.551.552-1.277.813-2,.813-3.714,0-9.143-5.143-9.143-9.143,0-.723.261-1.449.813-2l.6-.522c.446-.446,1.17-.446,1.616,0l1.208,1.302c.446.446.446,1.17,0,1.616l-1.025,1.036c.901,2.244,2.429,3.71,4.5,4.5l1.036-1.025c.446-.446,1.17-.446,1.616,0l1.302,1.208c.446.446.446,1.17,0,1.616Zm-9.665.413c0,.552-.447,1-1,1H4c-2.206,0-4-1.794-4-4V5C0,2.243,2.243,0,5,0h10c2.757,0,5,2.243,5,5v8c0,.552-.447,1-1,1s-1-.448-1-1V5c0-1.654-1.346-3-3-3H6v14h3c.553,0,1,.448,1,1s-.447,1-1,1h-5c-1.103,0-2,.897-2,2s.897,2,2,2h9c.553,0,1,.448,1,1ZM2,5v11.556c.591-.344,1.268-.556,2-.556V2.184c-1.161.414-2,1.514-2,2.816Z"/>
</svg>
