<?xml version="1.0" encoding="UTF-8"?>
<svg xmlns="http://www.w3.org/2000/svg" id="Layer_1" data-name="Layer 1" viewBox="0 0 24 24">
  <path d="M1.001,10.983c.062,.011,.122,.017,.182,.017,.474,0,.895-.337,.982-.82,.162-.881,.443-1.729,.833-2.532,.457,.219,.962,.352,1.502,.352,1.93,0,3.5-1.57,3.5-3.5,0-.54-.133-1.046-.353-1.503,.803-.389,1.652-.671,2.533-.833,.543-.1,.902-.621,.803-1.164-.1-.542-.61-.903-1.164-.803-1.258,.231-2.459,.668-3.58,1.284-.515-.298-1.104-.481-1.74-.481-1.93,0-3.5,1.57-3.5,3.5,0,.636,.183,1.225,.481,1.74-.615,1.121-1.052,2.321-1.283,3.58-.1,.543,.26,1.064,.803,1.164ZM4.5,3c.827,0,1.5,.673,1.5,1.5s-.673,1.5-1.5,1.5-1.5-.673-1.5-1.5,.673-1.5,1.5-1.5Zm9.328-.852c.915,.159,1.793,.447,2.625,.85-.219,.457-.352,.962-.352,1.501,0,1.93,1.57,3.5,3.5,3.5,.539,0,1.045-.133,1.502-.352,.389,.803,.672,1.65,.833,2.533,.089,.482,.509,.819,.982,.819,.06,0,.121-.005,.182-.017,.543-.1,.902-.621,.803-1.164-.232-1.26-.668-2.461-1.283-3.58,.298-.514,.481-1.103,.481-1.739,0-1.93-1.57-3.5-3.5-3.5-.636,0-1.226,.184-1.74,.482-1.154-.633-2.391-1.078-3.689-1.304-.551-.093-1.062,.27-1.157,.814-.095,.544,.27,1.062,.813,1.157Zm7.273,2.352c0,.827-.673,1.5-1.5,1.5s-1.5-.673-1.5-1.5,.673-1.5,1.5-1.5,1.5,.673,1.5,1.5ZM10.181,21.835c-.882-.162-1.73-.443-2.533-.833,.219-.457,.353-.963,.353-1.503,0-1.93-1.57-3.5-3.5-3.5-.54,0-1.045,.133-1.502,.352-.39-.803-.671-1.651-.833-2.532-.099-.543-.611-.904-1.164-.803-.543,.1-.902,.621-.803,1.164,.231,1.259,.668,2.459,1.283,3.58-.298,.515-.481,1.104-.481,1.74,0,1.93,1.57,3.5,3.5,3.5,.636,0,1.225-.183,1.74-.481,1.121,.615,2.322,1.053,3.58,1.284,.062,.011,.122,.017,.182,.017,.474,0,.894-.337,.982-.819,.1-.543-.26-1.064-.803-1.164Zm-7.181-2.335c0-.827,.673-1.5,1.5-1.5s1.5,.673,1.5,1.5-.673,1.5-1.5,1.5-1.5-.673-1.5-1.5Zm20.101-6.483c-.543-.101-1.063,.26-1.164,.803-.162,.882-.444,1.73-.833,2.533-.457-.219-.962-.352-1.502-.352-1.93,0-3.5,1.57-3.5,3.5,0,.539,.133,1.045,.352,1.501-.832,.403-1.711,.691-2.625,.85-.544,.095-.908,.613-.813,1.157,.085,.486,.507,.829,.984,.829,.057,0,.114-.005,.173-.015,1.298-.226,2.535-.671,3.689-1.304,.515,.298,1.104,.482,1.74,.482,1.93,0,3.5-1.57,3.5-3.5,0-.636-.183-1.224-.481-1.739,.615-1.12,1.051-2.32,1.283-3.58,.1-.543-.26-1.064-.803-1.164Zm-3.499,7.983c-.827,0-1.5-.673-1.5-1.5s.673-1.5,1.5-1.5,1.5,.673,1.5,1.5-.673,1.5-1.5,1.5Zm-7.602-3v.993c0,.583-.688,.893-1.125,.508l-2.01-1.773c-.487-.42-.487-1.155,0-1.575l2.01-1.773c.437-.385,1.125-.075,1.125,.508v1.112c2.206,0,4-1.794,4-4,0-.557-.112-1.095-.332-1.6-.222-.506,.01-1.096,.516-1.317,.508-.221,1.097,.011,1.316,.516,.332,.759,.5,1.566,.5,2.4,0,3.309-2.691,6-6,6Zm0-12v-.993c0-.583,.687-.893,1.125-.508l2.01,1.773c.487,.42,.487,1.155,0,1.575l-2.01,1.773c-.437,.385-1.125,.075-1.125-.508v-1.111c-2.206,0-4,1.794-4,4,0,.557,.112,1.095,.332,1.6,.222,.506-.01,1.096-.516,1.317-.13,.057-.267,.084-.399,.084-.386,0-.753-.224-.917-.6-.332-.759-.5-1.566-.5-2.4,0-3.309,2.691-6,6-6Z"/>
</svg>
