<?xml version="1.0" encoding="UTF-8"?>
<svg xmlns="http://www.w3.org/2000/svg" id="Layer_1" data-name="Layer 1" viewBox="0 0 24 24">
  <path d="m19.5,0H4.5C2.019,0,0,2.019,0,4.5v.5c0,.883.391,1.67,1,2.22v11.78c0,2.757,2.243,5,5,5h3c.552,0,1-.448,1-1s-.448-1-1-1h-3c-1.654,0-3-1.346-3-3v-11h18v1c0,.552.447,1,1,1s1-.448,1-1v-1.78c.609-.549,1-1.337,1-2.22v-.5c0-2.481-2.019-4.5-4.5-4.5ZM3,6c-.551,0-1-.449-1-1v-.5c0-1.378,1.122-2.5,2.5-2.5h15c1.379,0,2.5,1.122,2.5,2.5v.5c0,.551-.448,1-1,1H3Zm14,4c-3.859,0-7,3.14-7,7s3.141,7,7,7,7-3.14,7-7-3.141-7-7-7Zm0,12c-2.757,0-5-2.243-5-5s2.243-5,5-5,5,2.243,5,5-2.243,5-5,5Zm2.207-4.207c.391.391.391,1.023,0,1.414-.195.195-.451.293-.707.293s-.512-.098-.707-.293l-1.5-1.5c-.188-.188-.293-.442-.293-.707v-2c0-.552.447-1,1-1s1,.448,1,1v1.586l1.207,1.207Z"/>
</svg>
