<?xml version="1.0" encoding="UTF-8"?>
<svg xmlns="http://www.w3.org/2000/svg" id="Layer_1" data-name="Layer 1" viewBox="0 0 24 24">
  <path d="M12,9.256c-1.654,0-3,1.346-3,3s1.346,3,3,3,3-1.346,3-3-1.346-3-3-3Zm0,4c-.551,0-1-.449-1-1s.449-1,1-1,1,.449,1,1-.449,1-1,1Z"/>
  <path d="M20.824,14.34c-.246-.098-.477-.201-.696-.308,1.006-1.06,1.927-2.444,2.667-4.448,.488-1.317,.083-2.818-1.007-3.733L16.833,1.688c-.715-.6-1.643-.822-2.552-.611-.89,.208-1.609,.806-1.975,1.64h0c-.469,1.072-.997,1.895-1.572,2.577-.429-.564-.802-1.252-1.112-2.055-.756-1.967-2.592-3.239-4.677-3.239H2.111C1.113,0,.188,.681,.027,1.666c-.167,1.02,.446,1.917,1.332,2.22-.219,.32-.359,.698-.359,1.115,0,.872,.564,1.607,1.344,1.88-.284,.419-.414,.95-.306,1.512,.183,.956,1.089,1.607,2.062,1.607h.439c-1.099,.933-2.179,2.129-3.126,3.879-.77,1.421-.438,3.2,.787,4.229l5.015,4.212c.527,.442,1.183,.679,1.856,.679,.167,0,.336-.015,.503-.044,.865-.153,1.616-.685,2.061-1.459,.729-1.269,1.524-2.174,2.364-2.907v1.311c0,.974,.651,1.879,1.607,2.062,.562,.108,1.093-.022,1.512-.306,.273,.78,1.008,1.344,1.88,1.344,.417,0,.795-.14,1.115-.359,.302,.886,1.2,1.499,2.22,1.332,.984-.161,1.665-1.087,1.665-2.084v-2.896c0-2.063-1.247-3.889-3.176-4.652ZM4.303,4c-.444,0-.843-.322-.962-.75-.173-.631,.301-1.25,.955-1.25h.65c1.25,0,2.353,.768,2.811,1.957,.409,1.063,.927,1.97,1.533,2.722-.642,.505-1.325,.942-2.044,1.398-.144,.091-.292,.186-.438,.28-1.336,.39-1.915-.959-2.135-1.492-.336-.815,.327-.865,.327-.865,.552,0,1-.448,1-1s-.448-1-1-1h-.697ZM15.541,15.044c-1.849,1.172-3.943,2.5-5.64,5.456-.149,.259-.395,.437-.675,.486-.261,.048-.518-.023-.725-.196l-5.015-4.212c-.501-.421-.634-1.156-.314-1.746,1.485-2.744,3.263-3.871,5.145-5.065,2.101-1.333,4.273-2.71,5.821-6.248h0c.15-.344,.439-.457,.598-.494,.287-.068,.582,.003,.81,.194l4.957,4.163c.438,.368,.61,.988,.418,1.508-1.324,3.582-3.204,4.774-5.38,6.154Zm6.459,4.659c0,.654-.619,1.128-1.25,.955-.428-.118-.75-.517-.75-.961v-.697c0-.552-.447-1-1-1s-1,.448-1,1c0,0-.123,.611-.75,.327-.341-.154-1.574-.546-1.268-2.191,.209-.135,.418-.268,.63-.402,.642-.407,1.289-.82,1.924-1.295,.461,.276,.976,.534,1.552,.762,1.162,.459,1.912,1.556,1.912,2.792v.711Z"/>
</svg>
