<?xml version="1.0" encoding="UTF-8"?>
<svg xmlns="http://www.w3.org/2000/svg" id="Layer_1" data-name="Layer 1" viewBox="0 0 24 24">
  <path d="M1.098,6.981c.29-.631,.639-1.241,1.036-1.813,.313-.453,.938-.567,1.392-.251,.453,.314,.566,.938,.251,1.392-.33,.477-.62,.984-.862,1.509-.169,.366-.53,.582-.909,.582-.14,0-.282-.029-.417-.092-.502-.231-.722-.825-.49-1.326Zm4.54-2.956c.2,0,.402-.06,.578-.185,.473-.336,.978-.632,1.5-.88,.499-.236,.712-.833,.475-1.332-.236-.498-.833-.71-1.332-.475-.628,.298-1.233,.653-1.801,1.056-.45,.319-.556,.944-.236,1.395,.195,.274,.503,.421,.816,.421Zm-2.688,12.233c-.233-.499-.827-.716-1.33-.48-.5,.234-.715,.83-.48,1.33,.294,.627,.647,1.234,1.052,1.806,.194,.275,.504,.423,.817,.423,.199,0,.401-.06,.576-.184,.451-.318,.559-.942,.239-1.394-.336-.476-.63-.98-.874-1.501Zm-.909-3.347c-.027-.299-.042-.603-.041-.912,0-.278,.012-.554,.034-.827,.047-.55-.361-1.034-.912-1.08-.538-.056-1.033,.362-1.08,.912-.028,.328-.042,.66-.042,.992,0,.371,.016,.737,.049,1.099,.048,.519,.483,.908,.995,.908,.03,0,.062,0,.093-.004,.55-.051,.954-.537,.904-1.088ZM11,2.045c.029,0,.693-.045,1-.045s.971,.045,1,.045c.513,0,.949-.392,.995-.911,.049-.551-.357-1.036-.907-1.085-.358-.032-.721-.049-1.088-.049s-.729,.017-1.088,.049c-.55,.049-.956,.534-.907,1.085,.046,.52,.482,.911,.995,.911Zm5.259,.905c.522,.245,1.027,.54,1.502,.875,.176,.124,.377,.184,.576,.184,.313,0,.623-.147,.817-.423,.319-.451,.212-1.075-.239-1.394-.569-.403-1.177-.757-1.805-1.053-.5-.234-1.096-.021-1.331,.479-.234,.5-.021,1.096,.479,1.331Zm1.478,17.242c-.475,.333-.981,.626-1.506,.872-.5,.233-.716,.829-.481,1.329,.17,.363,.53,.576,.906,.576,.142,0,.286-.03,.423-.095,.63-.294,1.237-.646,1.807-1.046,.452-.317,.562-.94,.244-1.393-.316-.452-.939-.563-1.393-.244Zm4.656-4.44c-.5-.235-1.096-.019-1.329,.481-.246,.524-.539,1.031-.872,1.506-.317,.452-.208,1.075,.244,1.393,.175,.123,.375,.182,.573,.182,.315,0,.625-.148,.819-.426,.399-.569,.752-1.177,1.046-1.807,.234-.5,.019-1.096-.481-1.329Zm.483-5.688c-.55,.047-.958,.53-.911,1.081,.023,.28,.036,.564,.035,.855,0,.3-.014,.597-.038,.889-.047,.55,.36,1.034,.911,1.081,.029,.003,.058,.004,.086,.004,.514,0,.951-.394,.995-.915,.03-.349,.046-.702,.046-1.056,0-.347-.014-.689-.043-1.028-.047-.551-.521-.97-1.081-.911ZM7.792,21.074c-.522-.242-1.03-.534-1.509-.867-.453-.315-1.076-.205-1.392,.249-.315,.453-.204,1.076,.249,1.392,.572,.399,1.182,.75,1.81,1.041,.137,.063,.279,.093,.42,.093,.378,0,.739-.214,.908-.579,.232-.501,.015-1.096-.486-1.328ZM23.718,4.304c-.385-.396-1.019-.406-1.414-.021L12.751,13.561c-.575,.574-1.517,.584-2.103,.019l-3.993-3.86c-.397-.384-1.03-.373-1.414,.023-.384,.397-.373,1.03,.023,1.414l3.993,3.86c.676,.653,1.557,.979,2.436,.979,.896,0,1.79-.338,2.461-1.01L23.696,5.718c.396-.385,.406-1.019,.021-1.414ZM12.884,21.962c-.281,.024-.565,.038-.855,.038-.307-.007-.596-.012-.888-.036-.557-.036-1.034,.365-1.079,.915-.045,.551,.365,1.033,.915,1.079,.348,.028,.667,.035,1.055,.042,.346,0,.689-.016,1.028-.046,.551-.049,.957-.534,.908-1.084s-.537-.959-1.084-.908Z"/>
</svg>
