<?xml version="1.0" encoding="UTF-8"?>
<svg xmlns="http://www.w3.org/2000/svg" id="Layer_1" data-name="Layer 1" viewBox="0 0 24 24">
  <path d="m18,9V1c0-.553.448-1,1-1,.66,0,.815.128,1.426.377l3.095,1.259c.639.399.639,1.329,0,1.729l-3.521,1.88v3.755c0,.553-.448,1-1,1s-1-.447-1-1Zm2,5h-4c-1.103,0-2-.897-2-2,0-.889.586-1.793,1.333-2.058.521-.184.793-.755.609-1.275-.185-.522-.756-.794-1.276-.609-1.545.546-2.667,2.204-2.667,3.942,0,2.206,1.794,4,4,4h4c1.103,0,2,.897,2,2s-.897,2-2,2h-5c-.552,0-1,.447-1,1s.448,1,1,1h5c2.206,0,4-1.794,4-4s-1.794-4-4-4Zm-8,3v4c0,1.654-1.346,3-3,3H3c-1.654,0-3-1.346-3-3v-4c0-1.654,1.346-3,3-3,0-1.103.897-2,2-2h2c1.103,0,2,.897,2,2,1.654,0,3,1.346,3,3Zm-10,0v1h8v-1c0-.552-.449-1-1-1H3c-.551,0-1,.448-1,1Zm8,4v-1h-3c0,.553-.448,1-1,1s-1-.447-1-1h-3v1c0,.552.449,1,1,1h6c.551,0,1-.448,1-1Z"/>
</svg>
