<?xml version="1.0" encoding="UTF-8"?>
<svg xmlns="http://www.w3.org/2000/svg" id="Layer_1" data-name="Layer 1" viewBox="0 0 24 24">
  <path d="m0,18v-4c0-2.757,2.243-5,5-5h3c.553,0,1,.448,1,1s-.447,1-1,1h-3c-1.654,0-3,1.346-3,3v4c0,.552-.447,1-1,1s-1-.448-1-1Zm19-9h-3c-.553,0-1,.448-1,1s.447,1,1,1h3c1.654,0,3,1.346,3,3v4c0,.552.447,1,1,1s1-.448,1-1v-4c0-2.757-2.243-5-5-5Zm-10.303-3.784l2.303-2.229v14.013c0,.552.447,1,1,1s1-.448,1-1V2.974l2.303,2.243c.194.189.445.284.697.284.261,0,.521-.101.717-.302.385-.396.377-1.029-.02-1.414l-3.283-3.198C13.024.196,12.512.001,12.001,0c0,0,0,0,0,0,0,0-.001,0-.002,0-.51,0-1.018.192-1.402.576l-3.293,3.207c-.396.385-.404,1.019-.02,1.414.386.396,1.018.404,1.414.019Zm13.635,16.273c-.366.329-.84.51-1.332.51-.889,0-1.793-.586-2.058-1.333-.006-.017-.24-.657-.942-.657s-.937.64-.943.657c-.265.748-1.169,1.333-2.058,1.333s-1.793-.586-2.058-1.333c-.006-.017-.231-.657-.942-.657s-.937.64-.942.657c-.265.748-1.169,1.333-2.058,1.333s-1.793-.586-2.058-1.333c-.006-.017-.201-.657-.942-.657s-.937.64-.943.657c-.265.748-1.169,1.333-2.058,1.333-.492,0-.966-.181-1.332-.51-.409-.369-1.04-.335-1.412.075-.369.411-.335,1.043.076,1.412.733.66,1.681,1.023,2.668,1.023,1.13,0,2.221-.479,3-1.236.779.757,1.87,1.236,3,1.236s2.221-.479,3-1.236c.779.757,1.87,1.236,3,1.236s2.221-.479,3-1.236c.779.757,1.87,1.236,3,1.236.987,0,1.935-.363,2.668-1.023.411-.369.445-1.001.076-1.412-.372-.411-1.003-.445-1.412-.075Z"/>
</svg>
