<?xml version="1.0" encoding="UTF-8"?>
<svg xmlns="http://www.w3.org/2000/svg" id="Layer_1" data-name="Layer 1" viewBox="0 0 24 24">
  <path d="m16.207,11.707l-3.293,3.293,3.293,3.293c.391.391.391,1.023,0,1.414-.195.195-.451.293-.707.293s-.512-.098-.707-.293l-3.707-3.707h-2.086c-.552,0-1-.447-1-1s.448-1,1-1h2.086l3.707-3.707c.391-.391,1.023-.391,1.414,0s.391,1.023,0,1.414Zm-12.707-.707c1.381,0,2.5-1.119,2.5-2.5s-1.119-2.5-2.5-2.5-2.5,1.119-2.5,2.5,1.119,2.5,2.5,2.5Zm17-6c1.381,0,2.5-1.119,2.5-2.5s-1.119-2.5-2.5-2.5-2.5,1.119-2.5,2.5,1.119,2.5,2.5,2.5Zm0,9c-1.381,0-2.5,1.119-2.5,2.5s1.119,2.5,2.5,2.5,2.5-1.119,2.5-2.5-1.119-2.5-2.5-2.5ZM3.5,12C1.82,12,.356,13.177.021,14.797c-.112.541.235,1.07.776,1.183.538.106,1.07-.236,1.182-.776.145-.697.784-1.203,1.521-1.203s1.376.506,1.521,1.203c.098.472.514.797.978.797.809,0,1.092-.662.98-1.203-.335-1.62-1.799-2.797-3.479-2.797Zm14.297-2.021c.537.104,1.069-.236,1.183-.776.145-.697.784-1.203,1.521-1.203s1.376.506,1.521,1.203c.099.472.515.797.979.797.693,0,1.092-.662.98-1.203-.336-1.62-1.799-2.797-3.479-2.797s-3.144,1.177-3.479,2.797c-.111.541.235,1.07.776,1.183Zm2.703,10.021c-1.681,0-3.144,1.177-3.479,2.797-.111.541.235,1.07.776,1.183.537.105,1.069-.236,1.183-.776.145-.697.784-1.203,1.521-1.203s1.376.506,1.521,1.203c.099.472.515.797.979.797.77,0,1.092-.662.98-1.203-.336-1.62-1.799-2.797-3.479-2.797Z"/>
</svg>
