<?xml version="1.0" encoding="UTF-8"?>
<svg xmlns="http://www.w3.org/2000/svg" id="Layer_1" data-name="Layer 1" viewBox="0 0 24 24">
  <path d="m23.744,21.565c.369.41.335,1.043-.076,1.412-.733.659-1.681,1.022-2.668,1.022-1.128,0-2.222-.472-3-1.226-.778.754-1.872,1.226-3,1.226s-2.222-.472-3-1.225c-.778.753-1.873,1.225-3,1.225s-2.222-.472-3-1.225c-.778.753-1.873,1.225-3,1.225-.987,0-1.935-.363-2.668-1.022-.411-.369-.444-1.002-.075-1.412.369-.41,1.002-.443,1.412-.076.366.329.839.511,1.332.511.89,0,1.793-.586,2.057-1.333.141-.399.519-.667.943-.667s.802.268.943.667c.264.747,1.167,1.333,2.057,1.333s1.793-.586,2.057-1.333c.141-.399.519-.667.943-.667s.802.268.943.667c.264.747,1.167,1.333,2.057,1.333s1.793-.586,2.058-1.333c.141-.4.519-.667.942-.667s.802.267.942.667c.265.747,1.169,1.333,2.058,1.333.492,0,.966-.182,1.332-.511.408-.367,1.04-.337,1.412.076Zm-20.744-3.565c2.206,0,4-1.794,4-4v-3c0-4.708,3.633-8.583,8.243-8.968-2.502,1.456-4.243,4.292-4.243,7.468,0,5.084,2.411,8.5,6,8.5,1.128,0,2.222-.472,3-1.226.778.754,1.872,1.226,3,1.226.553,0,1-.447,1-1s-.447-1-1-1c-.889,0-1.793-.586-2.058-1.333-.141-.4-.519-.667-.942-.667s-.802.267-.942.667c-.265.747-1.169,1.333-2.058,1.333-2.393,0-4-2.612-4-6.5,0-3.139,2.411-6.5,6-6.5.485,0,1.126.096,1.714.257.438.12.923-.108,1.15-.5.135-.232.171-.51.1-.769-.071-.259-.244-.479-.479-.609-1.58-.876-3.579-1.379-5.485-1.379C9.935,0,5,4.935,5,11v3c0,1.103-.897,2-2,2-.493,0-.965-.182-1.332-.511-.41-.367-1.043-.334-1.412.076-.369.41-.335,1.043.075,1.412.734.659,1.682,1.022,2.668,1.022Z"/>
</svg>
