<?xml version="1.0" encoding="UTF-8"?>
<svg xmlns="http://www.w3.org/2000/svg" id="Layer_1" data-name="Layer 1" viewBox="0 0 24 24">
  <path d="m24,13v8c0,.552-.447,1-1,1s-1-.448-1-1v-8c0-1.654-1.346-3-3-3H2.367c.032.039.059.08.095.116l5.137,5.18c.389.392.387,1.025-.006,1.414-.195.193-.449.29-.704.29-.258,0-.515-.099-.71-.296L1.045,11.527c-.673-.673-1.045-1.572-1.045-2.527s.372-1.854,1.048-2.529L6.179,1.296c.39-.393,1.022-.394,1.414-.006.393.389.395,1.022.006,1.414L2.465,7.881c-.037.037-.065.079-.098.119h16.633c2.757,0,5,2.243,5,5Z"/>
</svg>
