<?xml version="1.0" encoding="UTF-8"?>
<svg xmlns="http://www.w3.org/2000/svg" id="Layer_1" data-name="Layer 1" viewBox="0 0 24 24">
  <path d="m22.528,8.437L15.562,1.471C14.614.523,13.35,0,12.001,0s-2.613.522-3.561,1.47L1.475,8.437C.523,9.388,0,10.652,0,11.998c0,1.345.523,2.61,1.475,3.561l6.967,6.966c.951.951,2.216,1.476,3.561,1.476h0c1.345,0,2.609-.524,3.561-1.475l6.967-6.966c.951-.951,1.476-2.216,1.475-3.562,0-1.345-.524-2.61-1.476-3.561Zm-1.413,5.708l-6.967,6.966c-.573.573-1.336.889-2.146.889s-1.574-.316-2.147-.89l-6.967-6.966c-.573-.574-.889-1.336-.889-2.147s.315-1.574.89-2.147l6.966-6.965c.57-.57,1.333-.884,2.146-.884s1.577.314,2.147.884l6.966,6.966c.574.573.89,1.336.89,2.147s-.315,1.573-.889,2.147Zm-5.115-.146v2c0,.552-.447,1-1,1s-1-.448-1-1v-2c0-1.103-.897-2-2-2h-3.096l1.803,1.793c.391.391.391,1.023,0,1.414-.195.195-.451.293-.707.293s-.512-.098-.707-.293l-2.801-2.801c-.774-.775-.774-2.037,0-2.812l2.802-2.801c.391-.391,1.023-.391,1.414,0s.391,1.023,0,1.414l-1.793,1.793h3.086c2.206,0,4,1.794,4,4Z"/>
</svg>
