<?xml version="1.0" encoding="UTF-8"?>
<svg xmlns="http://www.w3.org/2000/svg" id="Layer_1" data-name="Layer 1" viewBox="0 0 24 24">
  <path d="m18.346,13.773c-.601-1.031-2.091-1.031-2.692,0l-4.599,7.884c-.606,1.039.143,2.343,1.346,2.343h9.198c1.203,0,1.952-1.305,1.346-2.343l-4.599-7.884Zm-1.346,9.227c-.552,0-1-.448-1-1s.448-1,1-1,1,.448,1,1-.448,1-1,1Zm1-4c0,.552-.448,1-1,1s-1-.448-1-1v-2c0-.552.448-1,1-1s1,.448,1,1v2Zm6-13v10.5c0,.553-.447,1-1,1s-1-.447-1-1V6c0-.294-.129-.572-.353-.763-.229-.192-.521-.272-.822-.223-.463.075-.825.555-.825,1.093v3.893c0,.553-.447,1-1,1s-1-.447-1-1v-6c0-.552-.448-1-1-1s-1,.448-1,1v6c0,.553-.447,1-1,1s-1-.447-1-1V3c0-.552-.448-1-1-1s-1,.448-1,1v7c0,.553-.447,1-1,1s-1-.447-1-1v-4.893c0-.538-.362-1.018-.825-1.093-.303-.051-.595.029-.822.223-.224.19-.353.469-.353.763v11c0,.398-.236.759-.602.917-.363.157-.789.086-1.081-.186l-2.638-2.462c-.195-.183-.44-.265-.715-.269-.266.009-.513.121-.694.315-.378.403-.356,1.038.046,1.416l4.468,4.307c.496.479,1.059.88,1.671,1.192.491.251.687.854.436,1.346-.177.346-.527.545-.892.545-.153,0-.308-.035-.454-.109-.787-.402-1.511-.918-2.149-1.534L.938,17.182c-1.196-1.121-1.259-3.023-.129-4.231,1.128-1.205,3.027-1.271,4.235-.143l.955.892V5c0-.882.386-1.715,1.058-2.286.672-.572,1.56-.815,2.439-.674.216.035.42.102.617.184.344-1.277,1.501-2.224,2.885-2.224,1.065,0,1.997.562,2.529,1.401.437-.248.934-.401,1.471-.401,1.384,0,2.541.947,2.886,2.224.197-.082.401-.149.617-.184.88-.142,1.768.102,2.439.674.672.571,1.058,1.404,1.058,2.286Z"/>
</svg>
