<?xml version="1.0" encoding="UTF-8"?>
<svg xmlns="http://www.w3.org/2000/svg" id="Layer_1" data-name="Layer 1" viewBox="0 0 24 24">
  <path d="m21,21c0,1.654-1.346,3-3,3H6c-1.654,0-3-1.346-3-3,0-.552.447-1,1-1s1,.448,1,1,.448,1,1,1h5.132l-2.073-3.109c-.372-.558-.994-.891-1.664-.891h-3.395c-.553,0-1-.448-1-1s.447-1,1-1h3.395c1.34,0,2.584.666,3.328,1.781l1.277,1.916,1.277-1.916c.744-1.115,1.988-1.781,3.328-1.781h3.395c.553,0,1,.448,1,1s-.447,1-1,1h-3.395c-.67,0-1.292.333-1.664.891l-2.073,3.109h5.132c.552,0,1-.449,1-1s.447-1,1-1,1,.448,1,1ZM3.962,3.5C3.962,1,7.543,0,11.962,0s8,1,8,3.5c0,1.135-.743,1.957-1.962,2.521v2.979c0,3.309-2.691,6-6,6s-6-2.691-6-6v-2.946c-1.264-.564-2.038-1.397-2.038-2.554Zm12.038,4.109c-.978.208-2.296.391-4,.391s-3.022-.183-4-.391v1.391c0,2.206,1.794,4,4,4s4-1.794,4-4v-1.391Zm-6.353-3.862l.991.806-.392,1.257c-.053.169.006.353.148.459.074.055.162.083.25.083.081,0,.162-.023.232-.07l1.128-.755,1.147.747c.148.096.341.089.482-.019.14-.108.197-.293.141-.461l-.408-1.242.986-.803c.134-.113.183-.297.123-.462-.06-.164-.216-.274-.391-.274h-1.25l-.443-1.242c-.061-.163-.216-.271-.39-.271s-.33.108-.39.271l-.443,1.242h-1.25c-.175,0-.331.109-.391.273-.06.164-.012.348.121.461Z"/>
</svg>
