<?xml version="1.0" encoding="UTF-8"?>
<svg xmlns="http://www.w3.org/2000/svg" id="Layer_1" data-name="Layer 1" viewBox="0 0 24 24">
  <path d="M15.171,21.999c-.646,0-1.285-.205-1.821-.599-1.186-.868-1.554-2.559-.858-3.933l1.314-2.93-3.943-.548c-.376-.052-.69-.312-.811-.673-.121-.36-.026-.758,.243-1.026L18.822,2.806c.981-.851,2.253-1.03,3.368-.521,1.116,.512,1.81,1.591,1.81,2.818v13.896c0,.393-.229,.748-.587,.91-.355,.164-.776,.101-1.071-.157l-2.99-2.616-1.447,3.164c-.429,.837-1.163,1.411-2.034,1.617-.231,.055-.466,.081-.699,.081Zm-3.038-9.712l3.268,.454c.312,.043,.585,.23,.737,.506s.166,.606,.037,.894l-1.88,4.188c-.274,.545-.162,1.167,.235,1.458,.262,.191,.574,.255,.879,.185,.301-.071,.555-.27,.695-.544l1.985-4.344c.131-.287,.391-.495,.699-.562,.308-.065,.631,.016,.868,.225l2.342,2.049V5.103c0-.654-.491-.931-.643-.999-.151-.07-.682-.26-1.177,.167L12.133,12.287ZM0,20.5c0,.828,.672,1.5,1.5,1.5s1.5-.672,1.5-1.5-.672-1.5-1.5-1.5-1.5,.672-1.5,1.5Zm4,0c0,.828,.672,1.5,1.5,1.5s1.5-.672,1.5-1.5-.672-1.5-1.5-1.5-1.5,.672-1.5,1.5Zm4,0c0,.828,.672,1.5,1.5,1.5s1.5-.672,1.5-1.5-.672-1.5-1.5-1.5-1.5,.672-1.5,1.5Z"/>
</svg>
