<?xml version="1.0" encoding="UTF-8"?>
<svg xmlns="http://www.w3.org/2000/svg" id="Layer_1" data-name="Layer 1" viewBox="0 0 24 24">
  <path d="M24,4c0-2.206-1.794-4-4-4H4C1.794,0,0,1.794,0,4c0,1.858,1.279,3.411,3,3.858v11.142c0,2.757,2.243,5,5,5h8c2.757,0,5-2.243,5-5V7.858c1.721-.447,3-2,3-3.858ZM2,4c0-.737,.405-1.375,1-1.722v3.443c-.595-.347-1-.985-1-1.722Zm3,15V2h3V22c-1.654,0-3-1.346-3-3Zm14,0c0,1.654-1.346,3-3,3h-6V2h9V19Zm2-13.278V2.278c.595,.347,1,.985,1,1.722s-.405,1.375-1,1.722Zm-4,12.778c0,.828-.672,1.5-1.5,1.5s-1.5-.672-1.5-1.5,.672-1.5,1.5-1.5,1.5,.672,1.5,1.5Z"/>
</svg>
