<?xml version="1.0" encoding="UTF-8"?>
<svg xmlns="http://www.w3.org/2000/svg" id="Layer_1" data-name="Layer 1" viewBox="0 0 24 24">
  <path d="m24,13v3c0,.553-.447,1-1,1h-.595c-.806,1.98-2.383,3.606-4.436,4.427-.207,1.453-1.46,2.573-2.97,2.573-1.304,0-2.416-.836-2.829-2h-2.343c-.413,1.164-1.525,2-2.829,2-1.654,0-3-1.346-3-3C1.366,19.481-.182,16.545.017,13.47c.08-1.228.474-2.396,1.095-3.438C.516,9.227.138,8.251.007,7.115c-.063-.549.33-1.045.878-1.108.552-.063,1.045.33,1.108.878.065.563.215,1.057.434,1.488.62-.601,1.329-1.123,2.135-1.516.497-.244,1.095-.037,1.337.46.242.497.036,1.096-.461,1.337-1.978.964-3.29,2.859-3.425,4.945-.16,2.469,1.181,4.752,3.417,5.815.349.166.57.518.57.903v.683c0,.552.449,1,1,1s1-.448,1-1,.448-1,1-1h4c.553,0,1,.447,1,1s.448,1,1,1,1-.448,1-1v-.294c0-.442.291-.832.715-.958,2.742-.816,4.532-3.485,4.257-6.345-.291-3.03-3.03-5.403-6.236-5.403h-1.735c-.552,0-1-.447-1-1s.448-1,1-1h1.135c.343-1.396,1.363-2.588,2.689-2.965.589-.168,1.176.291,1.176.904v2.729c2.309.973,4.097,2.934,4.735,5.332h.265c.553,0,1,.447,1,1ZM6,5h2v2c0,.553.448,1,1,1s1-.447,1-1v-2h2c.552,0,1-.447,1-1s-.448-1-1-1h-2V1c0-.553-.448-1-1-1s-1,.447-1,1v2h-2c-.552,0-1,.447-1,1s.448,1,1,1Zm12,7.5c0-.828-.672-1.5-1.5-1.5s-1.5.672-1.5,1.5.672,1.5,1.5,1.5,1.5-.672,1.5-1.5Z"/>
</svg>
