<?xml version="1.0" encoding="UTF-8"?>
<svg xmlns="http://www.w3.org/2000/svg" id="Layer_1" data-name="Layer 1" viewBox="0 0 24 24">
  <path d="M10,23c0,.552-.447,1-1,1H5c-2.757,0-5-2.243-5-5V7C0,4.955,1.237,3.198,3,2.424V1c0-.552,.447-1,1-1s1,.448,1,1v1h2V1c0-.552,.447-1,1-1s1,.448,1,1v1h2V1c0-.552,.447-1,1-1s1,.448,1,1v1h2V1c0-.552,.447-1,1-1s1,.448,1,1v1.424c1.763,.774,3,2.531,3,4.576,0,.552-.447,1-1,1s-1-.448-1-1c0-1.654-1.346-3-3-3H5c-1.654,0-3,1.346-3,3v12c0,1.654,1.346,3,3,3h4c.553,0,1,.448,1,1Zm5-15c0-.552-.447-1-1-1H6c-.553,0-1,.448-1,1s.447,1,1,1H14c.553,0,1-.448,1-1Zm9,9c0,3.86-3.141,7-7,7s-7-3.14-7-7,3.141-7,7-7,7,3.14,7,7Zm-2,0c0-2.757-2.243-5-5-5s-5,2.243-5,5,2.243,5,5,5,5-2.243,5-5ZM6,11c-.553,0-1,.448-1,1s.447,1,1,1h2.5c.553,0,1-.448,1-1s-.447-1-1-1h-2.5Zm12.808,4.758l-2.223,2.134c-.144,.14-.379,.143-.522,0l-1.131-1.108c-.396-.385-1.028-.38-1.414,.015-.387,.395-.381,1.027,.014,1.414l1.131,1.108c.46,.45,1.062,.674,1.664,.674s1.2-.224,1.653-.671l2.213-2.124c.398-.383,.411-1.016,.029-1.414s-1.017-.412-1.414-.029Z"/>
</svg>
