<?xml version="1.0" encoding="UTF-8"?>
<svg xmlns="http://www.w3.org/2000/svg" id="Layer_1" data-name="Layer 1" viewBox="0 0 24 24">
  <path d="M23.641,10.76l-1.009-3.024c-.545-1.636-2.069-2.735-3.794-2.735h-1.947c-.174-.85-.559-1.648-1.141-2.307-.366-.415-.998-.452-1.411-.088-.415,.366-.454,.998-.089,1.412,.483,.548,.75,1.252,.75,1.984v11H2v-2c0-.553-.447-1-1-1s-1,.447-1,1v4.5c0,1.93,1.57,3.5,3.5,3.5,.98,0,1.864-.407,2.5-1.058,.636,.651,1.52,1.058,2.5,1.058,1.93,0,3.5-1.57,3.5-3.5v-.5h3v.5c0,1.93,1.57,3.5,3.5,3.5s3.5-1.57,3.5-3.5v-1.056c1.19-.694,2-1.97,2-3.444v-2.026c0-.755-.121-1.5-.359-2.214Zm-2.905-2.392l.878,2.632h-4.613V7h1.838c.862,0,1.624,.549,1.897,1.368ZM3.5,21c-.827,0-1.5-.673-1.5-1.5v-.5h3v.5c0,.827-.673,1.5-1.5,1.5Zm6.5-1.5c0,.827-.673,1.5-1.5,1.5s-1.5-.673-1.5-1.5v-.5h3v.5Zm10,0c0,.827-.673,1.5-1.5,1.5s-1.5-.673-1.5-1.5v-.5h3v.5Zm0-2.5h-3v-4h5v2c0,1.103-.897,2-2,2ZM0,5.5V1C0,.448,.447,0,1,0s1,.448,1,1V5.5c0,.276,.225,.5,.5,.5h.5V1c0-.552,.447-1,1-1s1,.448,1,1V6h.5c.275,0,.5-.224,.5-.5V1c0-.552,.447-1,1-1s1,.448,1,1V5.5c0,1.378-1.121,2.5-2.5,2.5h-.5v4c0,.552-.447,1-1,1s-1-.448-1-1v-4h-.5c-1.379,0-2.5-1.122-2.5-2.5Zm9,6.5V.739c0-.715,.983-1.01,1.446-.437,1.145,1.419,2.554,3.506,2.554,5.698,0,1.846-1,3.346-2,4.385v1.615c0,.552-.447,1-1,1s-1-.448-1-1Z"/>
</svg>
