<?xml version="1.0" encoding="UTF-8"?>
<svg xmlns="http://www.w3.org/2000/svg" id="Layer_1" data-name="Layer 1" viewBox="0 0 24 24">
  <path d="M12,0C5.373,0,0,5.373,0,12s5.373,12,12,12,12-5.373,12-12S18.627,0,12,0Zm1,2.051c2.875,.287,5.386,1.802,7.023,4.006l-2.588,1.541c-1.085-1.337-2.653-2.261-4.435-2.518V2.051Zm-2,0v3.029c-1.782,.257-3.35,1.181-4.435,2.518l-2.588-1.541c1.637-2.203,4.148-3.719,7.023-4.006ZM2.95,16.227c-.603-1.286-.95-2.715-.95-4.227s.347-2.941,.95-4.227l2.587,1.541c-.345,.828-.538,1.734-.538,2.686s.192,1.858,.538,2.685l-2.587,1.542Zm8.05,5.722c-2.875-.287-5.386-1.802-7.023-4.006l2.588-1.542c1.085,1.337,2.653,2.261,4.435,2.518v3.029ZM7,12c0-2.757,2.243-5,5-5s5,2.243,5,5-2.243,5-5,5-5-2.243-5-5Zm6,9.949v-3.029c1.782-.257,3.35-1.181,4.435-2.518l2.588,1.542c-1.637,2.203-4.148,3.719-7.023,4.006Zm5.462-7.264c.345-.828,.538-1.734,.538-2.685s-.192-1.858-.538-2.686l2.587-1.541c.603,1.286,.95,2.715,.95,4.227s-.347,2.941-.95,4.227l-2.587-1.542Z"/>
</svg>
