<?xml version="1.0" encoding="UTF-8"?>
<svg xmlns="http://www.w3.org/2000/svg" id="Layer_1" data-name="Layer 1" viewBox="0 0 24 24">
  <path d="m24,12c0,.553-.448,1-1,1h-13.633c.032.039.06.08.096.116l5.137,5.18c.389.392.386,1.025-.006,1.414-.195.193-.45.29-.704.29-.257,0-.515-.099-.71-.296l-5.134-5.177c-.673-.674-1.045-1.572-1.045-2.527s.372-1.854,1.047-2.53l5.132-5.174c.388-.393,1.021-.396,1.414-.006.392.389.395,1.022.006,1.414l-5.134,5.177c-.037.037-.065.079-.098.119h13.633c.552,0,1,.447,1,1Zm-12,10c-5.514,0-10-4.486-10-10S6.486,2,12,2c.552,0,1-.447,1-1s-.448-1-1-1C5.383,0,0,5.383,0,12s5.383,12,12,12c.552,0,1-.447,1-1s-.448-1-1-1Z"/>
</svg>
