<?xml version="1.0" encoding="UTF-8"?>
<svg xmlns="http://www.w3.org/2000/svg" id="Layer_1" data-name="Layer 1" viewBox="0 0 24 24">
  <path d="m14.615,5.625c0-.345.28-.625.625-.625h2.75c.345,0,.625.28.625.625s-.28.625-.625.625h-.75v4.194c0,.345-.28.625-.625.625s-.625-.28-.625-.625v-4.194h-.75c-.345,0-.625-.28-.625-.625Zm-6.637,1.36c0,1.094-.902,1.985-2.012,1.985l-.717.003v1.471c0,.345-.28.625-.625.625s-.625-.28-.625-.625v-4.819c0-.345.28-.625.625-.625h1.342c1.109,0,2.012.891,2.012,1.985Zm-1.25,0c0-.398-.349-.735-.762-.735h-.715l.005,1.473.71-.003c.413,0,.762-.336.762-.735Zm6.729,0c0,1.094-.902,1.985-2.012,1.985l-.717.003v1.471c0,.345-.28.625-.625.625s-.625-.28-.625-.625v-4.819c0-.345.28-.625.625-.625h1.342c1.109,0,2.012.891,2.012,1.985Zm-1.25,0c0-.398-.349-.735-.762-.735h-.715l.005,1.473.71-.003c.413,0,.762-.336.762-.735Zm11.793-1.985v11.343c0,1.336-.521,2.592-1.465,3.536l-2.656,2.656c-.944.944-2.2,1.465-3.536,1.465H5c-2.757,0-5-2.243-5-5V5C0,2.243,2.243,0,5,0h14c2.757,0,5,2.243,5,5ZM5,22h10v-4c0-1.654,1.346-3,3-3h4V5c0-1.654-1.346-3-3-3H5c-1.654,0-3,1.346-3,3v14c0,1.654,1.346,3,3,3Zm16.121-3.535c.408-.408.678-.915.801-1.465h-3.922c-.552,0-1,.448-1,1v3.922c.55-.123,1.057-.393,1.465-.801l2.656-2.656Z"/>
</svg>
