<?xml version="1.0" encoding="UTF-8"?>
<svg xmlns="http://www.w3.org/2000/svg" id="Layer_1" data-name="Layer 1" viewBox="0 0 24 24">
  <path d="M8,9c1.654,0,3-1.346,3-3s-1.346-3-3-3c-.351,0-.687,.061-1,.171v-.171c0-.551,.449-1,1-1h1.5c.552,0,1-.448,1-1s-.448-1-1-1h-1.5c-1.654,0-3,1.346-3,3v3.001c0,1.654,1.346,2.999,3,2.999Zm0-4c.551,0,1,.449,1,1s-.449,1-1,1-1-.449-1-1,.449-1,1-1Zm7,4c1.654,0,3-1.346,3-3V3c0-1.654-1.346-3-3-3s-3,1.346-3,3v3c0,1.654,1.346,3,3,3Zm-1-6c0-.551,.449-1,1-1s1,.449,1,1v3c0,.551-.449,1-1,1s-1-.449-1-1V3Zm9.35,9.151c-.581-.732-1.453-1.151-2.394-1.151H3.044c-.941,0-1.813,.419-2.394,1.151-.572,.722-.78,1.649-.571,2.544,1.282,5.479,6.184,9.305,11.92,9.305s10.639-3.826,11.92-9.305c.209-.895,.001-1.822-.571-2.544Zm-11.35,1.825c.729,0,1.36-.394,1.71-.976h2.141c-.456,1.708-2.001,2.977-3.851,2.977s-3.395-1.269-3.851-2.977h2.141c.35,.582,.981,.976,1.71,.976Zm9.973,.264c-1.069,4.568-5.17,7.76-9.973,7.76S3.096,18.809,2.027,14.24c-.095-.407,.079-.705,.191-.847,.199-.25,.5-.394,.827-.394h3.05c.488,2.822,2.947,4.977,5.906,4.977s5.418-2.155,5.906-4.977h3.05c.327,0,.628,.144,.827,.394,.112,.142,.286,.439,.191,.847Zm-2.144-6.173c-.231-.254-.212-.647,.042-.877h0c.254-.231,.647-.212,.877,.042h0c.285,.314,.732,.501,1.197,.501,.446,0,.759-.264,.805-.519,.061-.343-.449-.559-.607-.618-.748-.276-1.422-.577-1.422-.577-.596-.38-.859-.963-.773-1.57,.093-.646,.565-1.172,1.232-1.373,1.31-.395,2.394,.496,2.439,.534l.003,.002c.261,.22,.295,.61,.075,.871l-.005,.005c-.22,.261-.609,.295-.871,.075-.025-.02-.629-.492-1.283-.298-.291,.088-.349,.281-.36,.359-.008,.059-.013,.204,.129,.301,.016,0,.611,.262,1.265,.504,1.216,.449,1.521,1.328,1.4,2.002-.159,.894-1.013,1.543-2.029,1.543-.822,0-1.594-.331-2.118-.909Z"/>
</svg>
