<?xml version="1.0" encoding="UTF-8"?>
<svg xmlns="http://www.w3.org/2000/svg" id="Layer_1" data-name="Layer 1" viewBox="0 0 24 24">
  <path d="m7,18c0,.828-.672,1.5-1.5,1.5s-1.5-.672-1.5-1.5.672-1.5,1.5-1.5,1.5.672,1.5,1.5Zm3.5-1.5c-.828,0-1.5.672-1.5,1.5s.672,1.5,1.5,1.5,1.5-.672,1.5-1.5-.672-1.5-1.5-1.5Zm13.5-12.124v9.124c0,1.93-1.57,3.5-3.5,3.5h-1.439c-1.136,0-2.061-.924-2.061-2.061,0-.542.22-1.074.604-1.457l4.396-4.396v-4.278l-6.001,5.626-.004,1.563c.002.798-.31,1.553-.876,2.122-.161.161-.341.296-.529.415.869.9,1.41,2.119,1.41,3.466,0,2.757-2.243,5-5,5h-6c-2.757,0-5-2.243-5-5,0-1.345.54-2.563,1.407-3.462C.56,14.007-.01,13.072-.01,12c.008-1.662,1.351-3.001,2.994-3.004l2.024-.004-.006-4.998c0-.802.311-1.556.877-2.124.566-.568,1.32-.88,2.123-.88,1.858,0,3.549,1.096,4.308,2.792l2.321,5.192,6.316-5.921c.528-.494,1.298-.627,1.96-.341.664.288,1.092.94,1.092,1.664Zm-16.998-.385l.006,4.999h5.439l-1.963-4.391c-.437-.978-1.411-1.609-2.482-1.609-.268,0-.519.104-.708.293-.189.189-.293.44-.292.708ZM1.99,11.991c0,.56.449,1.009,1,1.009h10.009c.553,0,1.001-.448,1-1.001v-1.004s-7.988-.005-7.988-.005l-3.023.006c-.548,0-.996.447-.998.995Zm12.01,6.009c0-1.654-1.346-3-3-3h-6c-1.654,0-3,1.346-3,3s1.346,3,3,3h6c1.654,0,3-1.346,3-3Zm8-6.086l-2.982,2.982.043.104h1.439c.827,0,1.5-.673,1.5-1.5v-1.586Z"/>
</svg>
