<?xml version="1.0" encoding="UTF-8"?>
<svg xmlns="http://www.w3.org/2000/svg" id="Layer_1" data-name="Layer 1" viewBox="0 0 24 24">
  <path d="m24.013,19.968c-.57-3.688-1.312-8.336-1.611-9.534-.47-1.882-1.5-3.24-2.979-3.931-.5-.232-1.095-.017-1.329.483-.233.5-.017,1.096.483,1.329.927.433,1.561,1.309,1.884,2.604.22.877.779,4.199,1.575,9.354.068.439-.054.867-.343,1.204-.286.333-.701.523-1.14.523h-1.879c.299-.627.419-1.33.311-2.032-.569-3.688-1.312-8.336-1.611-9.534-.704-2.817-2.663-4.434-5.375-4.434s-4.67,1.616-5.375,4.433c-.3,1.199-1.042,5.847-1.611,9.535-.108.702.012,1.405.311,2.032h-1.824c-.439,0-.854-.19-1.14-.523-.289-.337-.411-.765-.343-1.204.796-5.153,1.355-8.476,1.575-9.354.324-1.295.958-2.171,1.885-2.604.5-.233.717-.829.483-1.329-.234-.5-.829-.716-1.329-.483-1.479.69-2.509,2.049-2.979,3.931-.299,1.199-1.042,5.847-1.611,9.534-.156,1.011.136,2.035.801,2.811.666.776,1.635,1.222,2.658,1.222h17.053c1.023,0,1.993-.445,2.658-1.222.665-.775.957-1.8.801-2.811Zm-12.013-11.968c1.795,0,2.95.981,3.434,2.919.07.28.175.81.311,1.567l-1.745,1.163v-2.147c0-.4-.446-.638-.778-.417l-1.222.815-1.222-.815c-.333-.222-.778.017-.778.417v2.147l-1.745-1.163c.136-.757.241-1.288.311-1.568.484-1.937,1.639-2.918,3.434-2.918Zm-3.526,14c-.439,0-.854-.19-1.14-.523-.289-.337-.411-.765-.343-1.204.346-2.239.647-4.132.895-5.629l2.45,1.633c.506.337,1.085.506,1.665.506s1.159-.169,1.664-.506l2.45-1.633c.248,1.497.549,3.39.895,5.629.068.439-.054.867-.343,1.204-.286.333-.701.523-1.14.523h-7.053Zm1.026-19.5c0-1.381,1.119-2.5,2.5-2.5s2.5,1.119,2.5,2.5-1.119,2.5-2.5,2.5-2.5-1.119-2.5-2.5Zm6,0c0-1.381,1.119-2.5,2.5-2.5s2.5,1.119,2.5,2.5-1.119,2.5-2.5,2.5-2.5-1.119-2.5-2.5Zm-12,0c0-1.381,1.119-2.5,2.5-2.5s2.5,1.119,2.5,2.5-1.119,2.5-2.5,2.5-2.5-1.119-2.5-2.5Z"/>
</svg>
