<?xml version="1.0" encoding="UTF-8"?>
<svg xmlns="http://www.w3.org/2000/svg" id="Layer_1" data-name="Layer 1" viewBox="0 0 24 24">
  <path d="m6,0C2.691,0,0,2.691,0,6s2.691,6,6,6,6-2.691,6-6S9.309,0,6,0Zm2.776,8.87c-.445-1.095-1.514-1.87-2.768-1.87h-.016c-1.254,0-2.325.773-2.769,1.868-.751-.728-1.222-1.742-1.222-2.868,0-2.206,1.794-4,4-4s4,1.794,4,4c0,1.127-.472,2.142-1.224,2.87Zm-1.276-4.37c0,.828-.672,1.5-1.5,1.5s-1.5-.672-1.5-1.5.672-1.5,1.5-1.5,1.5.672,1.5,1.5Zm10.5,7.5c-3.309,0-6,2.691-6,6s2.691,6,6,6,6-2.691,6-6-2.691-6-6-6Zm2.776,8.87c-.445-1.095-1.514-1.87-2.768-1.87h-.016c-1.254,0-2.325.773-2.769,1.868-.751-.728-1.222-1.742-1.222-2.868,0-2.206,1.794-4,4-4s4,1.794,4,4c0,1.127-.472,2.142-1.224,2.87Zm-1.276-4.37c0,.828-.672,1.5-1.5,1.5s-1.5-.672-1.5-1.5.672-1.5,1.5-1.5,1.5.672,1.5,1.5Zm-5.5-12.5c0-.552.447-1,1-1h2c2.206,0,4,1.794,4,4v2c0,.552-.447,1-1,1s-1-.448-1-1v-2c0-1.103-.897-2-2-2h-2c-.553,0-1-.448-1-1Zm-4,16c0,.552-.447,1-1,1h-2c-2.206,0-4-1.794-4-4v-2c0-.552.447-1,1-1s1,.448,1,1v2c0,1.103.897,2,2,2h2c.553,0,1,.448,1,1Z"/>
</svg>
