<?xml version="1.0" encoding="UTF-8"?>
<svg xmlns="http://www.w3.org/2000/svg" id="Layer_1" data-name="Layer 1" viewBox="0 0 24 24">
  <path d="m10,23c0,.553-.448,1-1,1h-4c-2.757,0-5-2.243-5-5v-9.276c0-1.665.824-3.214,2.204-4.145L9.203.855c1.699-1.146,3.895-1.146,5.594,0l7.203,4.893c.991.75,1.692,1.846,1.917,3.071.1.543-.259,1.064-.803,1.164-.544.104-1.064-.26-1.164-.803-.145-.787-.608-1.495-1.272-1.943l-7-4.724c-1.019-.689-2.336-.689-3.355,0L3.322,7.237c-.828.559-1.322,1.487-1.322,2.486v9.276c0,1.654,1.346,3,3,3h4c.552,0,1,.447,1,1Zm14-6c0,3.859-3.14,7-7,7s-7-3.141-7-7,3.14-7,7-7,7,3.141,7,7Zm-2,0c0-2.757-2.243-5-5-5s-5,2.243-5,5,2.243,5,5,5,5-2.243,5-5Zm-3.192-1.241l-2.223,2.134c-.143.143-.378.142-.522,0l-1.132-1.108c-.394-.385-1.027-.379-1.414.016-.387.395-.38,1.027.015,1.414l1.132,1.108c.459.449,1.062.674,1.664.674s1.201-.225,1.653-.671l2.212-2.124c.398-.383.412-1.016.029-1.414-.382-.398-1.016-.411-1.414-.029Z"/>
</svg>
