<?xml version="1.0" encoding="UTF-8"?>
<svg xmlns="http://www.w3.org/2000/svg" id="Layer_1" data-name="Layer 1" viewBox="0 0 24 24">
  <path d="M23.018,8.785c-.595-.543-1.372-.812-2.169-.782-.804,.038-1.544,.387-2.085,.981l-3.217,3.534c-.551-.909-1.55-1.519-2.689-1.519H4c-2.206,0-4,1.794-4,4v5c0,2.206,1.794,4,4,4h4.965c2.849,0,5.57-1.22,7.467-3.348l6.804-7.637c1.094-1.227,.996-3.124-.218-4.23Zm-1.275,2.899l-6.804,7.638c-1.518,1.701-3.694,2.678-5.974,2.678H4c-1.103,0-2-.897-2-2v-5c0-1.103,.897-2,2-2H12.857c.63,0,1.143,.513,1.143,1.143,0,.564-.421,1.051-.98,1.13l-5.161,.737c-.547,.078-.927,.585-.849,1.132s.584,.923,1.132,.849l5.161-.737c1.175-.168,2.129-.987,2.514-2.058l4.426-4.865c.182-.199,.431-.316,.7-.329,.269-.02,.528,.081,.728,.263,.408,.371,.44,1.009,.072,1.421Zm-12.742-1.685v-.642c.712-.185,1.352-.551,1.852-1.061l.648,.374c.158,.091,.329,.134,.499,.134,.346,0,.682-.18,.867-.5,.276-.479,.111-1.091-.366-1.366l-.66-.381c.094-.339,.16-.689,.16-1.058s-.066-.719-.16-1.058l.66-.381c.478-.275,.643-.888,.366-1.366-.277-.478-.888-.642-1.366-.366l-.648,.374c-.5-.51-1.14-.876-1.852-1.061v-.642c0-.553-.447-1-1-1s-1,.447-1,1v.642c-.712,.185-1.352,.551-1.852,1.061l-.648-.374c-.48-.275-1.09-.111-1.366,.366-.276,.479-.111,1.091,.366,1.366l.66,.381c-.094,.339-.16,.689-.16,1.058s.066,.719,.16,1.058l-.66,.381c-.478,.275-.643,.888-.366,1.366,.186,.32,.521,.5,.867,.5,.17,0,.341-.043,.499-.134l.648-.374c.5,.51,1.14,.876,1.852,1.061v.642c0,.553,.447,1,1,1s1-.447,1-1Zm-3-4.5c0-1.103,.897-2,2-2s2,.897,2,2-.897,2-2,2-2-.897-2-2Z"/>
</svg>
