<?xml version="1.0" encoding="UTF-8"?>
<svg xmlns="http://www.w3.org/2000/svg" id="Layer_1" data-name="Layer 1" viewBox="0 0 24 24">
  <path d="m24,8c0-2.375-1.971-8-5.078-8-3.062,0-4.922,5.557-4.922,8,0,2.414,1.721,4.434,4,4.899v10.101c0,.552.447,1,1,1s1-.448,1-1v-10.101c2.279-.465,4-2.484,4-4.899Zm-5,3c-1.654,0-3-1.346-3-3,0-2.172,1.689-6,2.922-6,1.269,0,3.078,3.881,3.078,6,0,1.654-1.346,3-3,3Zm-9-4c.552,0,1,.448,1,1v4c0,.265-.105.52-.293.707l-2,2c-.195.195-.451.293-.707.293s-.512-.098-.707-.293c-.391-.391-.391-1.023,0-1.414l1.707-1.707v-3.586c0-.552.448-1,1-1Zm5.831,11.928c.308.459.185,1.08-.274,1.388-1.646,1.102-3.567,1.685-5.557,1.685C4.486,22,0,17.514,0,12S4.486,2,10,2c.75,0,1.497.083,2.221.248.539.122.876.658.754,1.196-.123.539-.659.879-1.196.754-.58-.131-1.178-.198-1.779-.198-4.411,0-8,3.589-8,8s3.589,8,8,8c1.592,0,3.128-.466,4.443-1.347.457-.307,1.079-.185,1.388.274Z"/>
</svg>
