<?xml version="1.0" encoding="UTF-8"?>
<svg xmlns="http://www.w3.org/2000/svg" id="Layer_1" data-name="Layer 1" viewBox="0 0 24 24">
  <path d="m23.484,9.125c-.319-.177-.707-.166-1.016.028l-.657.412c.111-.428.188-.867.188-1.315,0-1.331-.514-2.534-1.333-3.461.346-.077.705-.178,1.091-.335,1.037-.421,1.735-1.348,2.134-2.04.264-.458.026-1.042-.482-1.185-.769-.218-1.915-.394-2.952.027-.912.371-1.692,1.232-2.236,1.979-.47-.138-.957-.236-1.471-.236-2.108,0-3.918,1.257-4.752,3.053l-.573-1.3c-.282-.64-.425-1.318-.425-2.017v-.736c.553,0,1-.447,1-1s-.447-1-1-1h-7c-.553,0-1,.447-1,1s.447,1,1,1v.736c0,.698-.143,1.377-.425,2.017l-.896,2.033c-.377.853-.589,1.754-.652,2.679l-.497-.312c-.308-.193-.695-.203-1.016-.028-.318.176-.516.511-.516.875v9.5c0,2.481,2.019,4.5,4.5,4.5h15c2.481,0,4.5-2.019,4.5-4.5v-9.5c0-.364-.197-.699-.516-.875Zm-6.734-4.125c1.792,0,3.25,1.458,3.25,3.25,0,.638-.197,1.253-.544,1.78l-1.416-.88c-.322-.201-.732-.201-1.055,0l-2.229,1.385-.66-.41c-.39-.55-.597-1.198-.597-1.875,0-1.792,1.458-3.25,3.25-3.25Zm-12.24,2.593l.896-2.033c.395-.896.595-1.846.595-2.823v-.736h3v.736c0,.978.2,1.927.595,2.823l.896,2.033c.263.597.422,1.224.481,1.869l-1.729,1.074-2.229-1.385c-.322-.201-.732-.201-1.055,0l-1.96,1.218v-.356c0-.839.172-1.653.51-2.42Zm-2.51,11.907v-7.692l1.199.752c.322.204.734.205,1.059.003l2.229-1.385,2.229,1.384c.322.201.732.201,1.055,0l2.229-1.385,2,1.242v7.081c0,.925.282,1.784.762,2.5H4.5c-1.379,0-2.5-1.121-2.5-2.5Zm20,0c0,1.379-1.121,2.5-2.5,2.5h-1c-1.379,0-2.5-1.121-2.5-2.5v-7.383l1.513-.939,2.229,1.385c.324.203.736.202,1.059-.003l1.199-.752v7.692Z"/>
</svg>
