<?xml version="1.0" encoding="UTF-8"?>
<svg xmlns="http://www.w3.org/2000/svg" id="Layer_1" data-name="Layer 1" viewBox="0 0 24 24">
  <path d="m23,5.005s-.746-.009-1.091,0c-1.177.002-2.237.08-3.191.212-.132-.418-.302-.804-.52-1.147l1.102-1.47c.332-.442.242-1.069-.2-1.4-.441-.331-1.067-.241-1.399.2l-.953,1.271c-.509-.292-1.093-.495-1.747-.594v-1.077c0-.552-.447-1-1-1s-1,.448-1,1v1.076c-.685.099-1.304.301-1.872.564l-.796-1.194c-.306-.459-.926-.584-1.387-.277-.46.306-.584.927-.277,1.387l.77,1.155c-1.263,1.056-2.075,2.352-2.503,3.159C6.447,2.3,3.056.391,1.196.02.658-.087.135.26.023.799c-.111.539.237,1.066.774,1.181.168.035,4.005.918,4.185,5.682-1.769.983-2.983,2.965-2.983,5.248,0,5.074,4.232,9.456,10.533,10.904.545.125,1.055.188,1.535.188.609,0,1.17-.101,1.693-.303,3.112-1.206,4.739-5.54,4.738-9.198,0-2.347-.66-4.395-1.213-5.699-.143-.335-.275-.791-.1-1.053.18-.269.809-.7,2.98-.743h.832c.553,0,1-.448,1-1s-.447-1-1-1Zm-11.523,3.394c-.815-.558-1.636-.933-2.441-1.158.812-1.296,2.446-3.241,4.965-3.241,1.412,0,2.332.539,2.753,1.602-2.847.726-4.462,1.956-5.276,2.797Zm3.563,13.434c-.554.213-1.226.222-2.06.031-5.287-1.215-8.98-4.897-8.98-8.955,0-2.156,1.57-3.909,3.5-3.909.905,0,1.96.433,3.015,1.189-.051,1.024-.474,3.194-3.002,4.604-.482.269-.655.878-.386,1.36.183.329.523.513.874.513.165,0,.332-.041.486-.126,3.36-1.874,3.951-4.794,4.023-6.262,0,0,.001,0,.001-.001.014-.024,1.111-1.784,4.638-2.712-.097.525-.054,1.193.296,2.017.48,1.134,1.054,2.907,1.055,4.919,0,3.415-1.487,6.567-3.46,7.332Z"/>
</svg>
