<?xml version="1.0" encoding="UTF-8"?>
<svg xmlns="http://www.w3.org/2000/svg" id="Layer_1" data-name="Layer 1" viewBox="0 0 24 24">
  <path d="m19.111,9.227l-1.633-4.188c-.317-.814-.479-1.67-.479-2.544v-.495c.552,0,1-.447,1-1s-.448-1-1-1H7c-.552,0-1,.447-1,1s.448,1,1,1v.495c0,.874-.161,1.729-.479,2.544l-1.633,4.188c-.436,1.117-.889,3.773-.889,4.723v5.051c0,2.757,2.243,5,5,5h6c2.757,0,5-2.243,5-5v-5.051c0-1.622-.299-3.211-.889-4.723Zm-13.111,4.773h8v3H6v-3Zm12,5c0,1.654-1.346,3-3,3h-6c-1.654,0-3-1.346-3-3h8c1.103,0,2-.897,2-2v-3c0-1.103-.897-2-2-2h-7.823c.125-.696.315-1.381.575-2.047l1.633-4.188c.408-1.047.615-2.147.615-3.271v-.495h6v.495c0,1.123.207,2.224.615,3.271l1.633,4.188c.499,1.279.752,2.624.752,3.996v5.051Z"/>
</svg>
