<?xml version="1.0" encoding="UTF-8"?>
<svg xmlns="http://www.w3.org/2000/svg" id="Layer_1" data-name="Layer 1" viewBox="0 0 24 24">
  <path d="m24,7.5c0,2.23-.264,5.216-2.322,8.528-.189.305-.517.472-.851.472-.18,0-.362-.049-.527-.15-.469-.292-.612-.908-.321-1.378,1.781-2.865,2.021-5.385,2.021-7.472,0-4.06-2.693-5.5-5-5.5-4.879,0-9,3.663-9,8,0,2.206,1.794,4,4,4s4-1.794,4-4c0-1.55-.527-3.071-1.526-4.399-.331-.441-.242-1.068.199-1.4.441-.329,1.068-.242,1.4.199,1.261,1.678,1.927,3.614,1.927,5.601,0,3.309-2.691,6-6,6s-6-2.691-6-6C6,4.486,10.935,0,17,0c3.371,0,7,2.347,7,7.5ZM7.132,18.717l1.053-.988c.402-.378.423-1.011.045-1.414-.378-.4-1.011-.421-1.414-.045l-3.73,3.5c-.402.378-.423,1.011-.045,1.414.197.209.463.315.729.315.245,0,.491-.09.685-.271l1.218-1.143,3.621,3.621c.195.195.451.293.707.293s.512-.098.707-.293c.391-.391.391-1.023,0-1.414l-3.576-3.576Zm-3.431-2.368c.469-.292.612-.908.321-1.378-1.781-2.865-2.021-5.385-2.021-7.472,0-4.06,2.693-5.5,5-5.5.553,0,1-.447,1-1s-.447-1-1-1C3.629,0,0,2.347,0,7.5c0,2.23.264,5.216,2.322,8.528.189.305.517.472.851.472.18,0,.362-.049.527-.15Zm13.533-.029c-.376-.406-1.009-.431-1.413-.054-.405.375-.429,1.008-.054,1.413l1.029,1.111-3.503,3.503c-.391.391-.391,1.023,0,1.414.195.195.451.293.707.293s.512-.098.707-.293l3.449-3.449.854.922c.197.213.465.32.733.32.243,0,.487-.088.68-.267.405-.375.43-1.008.054-1.413l-3.243-3.5Z"/>
</svg>
