<?xml version="1.0" encoding="UTF-8"?>
<svg xmlns="http://www.w3.org/2000/svg" id="Layer_1" data-name="Layer 1" viewBox="0 0 24 24">
  <path d="M24,4.5v15c0,2.481-2.019,4.5-4.5,4.5h-3.5c-.553,0-1-.448-1-1s.447-1,1-1h3.5c1.379,0,2.5-1.122,2.5-2.5V4.5c0-1.378-1.121-2.5-2.5-2.5h-3.5c-.553,0-1-.448-1-1s.447-1,1-1h3.5c2.481,0,4.5,2.019,4.5,4.5Zm-9,12.457l-2-.005v2.054c-.004,1.23-.711,2.283-1.846,2.75-.378,.156-.769,.232-1.153,.232-.77,0-1.515-.304-2.093-.883L1.163,14.824c-1.573-1.574-1.573-4.093-.026-5.641,.007-.007,6.767-6.368,6.767-6.368,.847-.847,2.09-1.096,3.223-.629,1.134,.466,1.843,1.518,1.849,2.744v2.073s2.037,.023,2.037,.023c2.18,0,3.962,1.783,3.962,3.974v1.982c0,2.191-1.782,3.974-3.974,3.974Zm.003-2c1.085,0,1.971-.886,1.971-1.974v-1.982c0-1.088-.886-1.974-1.974-1.974l-3.038-.034c-.548-.006-.988-.452-.988-1v-3.057c-.002-.603-.466-.84-.608-.899-.141-.058-.637-.216-1.069,.214L2.541,10.606c-.758,.769-.754,2.013,.011,2.778l6.746,6.281c.455,.457,.954,.299,1.095,.24,.143-.059,.605-.296,.607-.904v-3.053c0-.266,.105-.521,.294-.708,.188-.187,.441-.292,.706-.292h.003l3,.007Z"/>
</svg>
