<?xml version="1.0" encoding="UTF-8"?>
<svg xmlns="http://www.w3.org/2000/svg" id="Layer_1" data-name="Layer 1" viewBox="0 0 24 24">
  <path d="m19.707,15.707l-1.293,1.293,1.293,1.293c.391.391.391,1.023,0,1.414-.195.195-.451.293-.707.293s-.512-.098-.707-.293l-1.293-1.293-1.293,1.293c-.195.195-.451.293-.707.293s-.512-.098-.707-.293c-.391-.391-.391-1.023,0-1.414l1.293-1.293-1.293-1.293c-.391-.391-.391-1.023,0-1.414s1.023-.391,1.414,0l1.293,1.293,1.293-1.293c.391-.391,1.023-.391,1.414,0s.391,1.023,0,1.414Zm4.293,1.293c0,3.859-3.141,7-7,7s-7-3.141-7-7,3.141-7,7-7,7,3.141,7,7Zm-2,0c0-2.757-2.243-5-5-5s-5,2.243-5,5,2.243,5,5,5,5-2.243,5-5Zm-12,6c0,.553-.447,1-1,1h-4c-2.757,0-5-2.243-5-5V5C0,2.243,2.243,0,5,0h4.515c1.869,0,3.627.728,4.95,2.05l2.501,2.502c.892.89,1.525,1.997,1.833,3.2.076.299.011.617-.179.861s-.481.387-.79.387h-5.116c-1.496,0-2.714-1.218-2.714-2.714V2.023c-.16-.015-.322-.023-.485-.023h-4.515c-1.654,0-3,1.346-3,3v14c0,1.654,1.346,3,3,3h4c.553,0,1,.447,1,1Zm2-16.714c0,.394.32.714.714.714h3.635c-.217-.374-.484-.722-.797-1.033l-2.501-2.502c-.318-.318-.671-.587-1.051-.805v3.626Z"/>
</svg>
