<?xml version="1.0" encoding="UTF-8"?>
<svg xmlns="http://www.w3.org/2000/svg" id="Layer_1" data-name="Layer 1" viewBox="0 0 24 24">
  <path d="m2,9.724v9.276c0,1.654,1.346,3,3,3h4c.552,0,1,.447,1,1s-.448,1-1,1h-4c-2.757,0-5-2.243-5-5v-9.276c0-1.665.824-3.214,2.204-4.145L9.203.855c1.699-1.146,3.895-1.146,5.594,0l7.203,4.881c.641.482,1.166,1.106,1.512,1.833.237.499.026,1.096-.472,1.333-.5.238-1.095.026-1.333-.472-.229-.482-.585-.895-1.028-1.193l-7.001-4.724c-1.019-.689-2.336-.689-3.355,0L3.322,7.237c-.828.559-1.322,1.487-1.322,2.486Zm22,8.276v2c0,2.206-1.794,4-4,4h-4c-2.206,0-4-1.794-4-4v-2c0-1.474.81-2.75,2-3.444v-1.556c0-2.206,1.794-4,4-4s4,1.794,4,4v1.556c1.19.694,2,1.97,2,3.444Zm-8-4h4v-1c0-1.103-.897-2-2-2s-2,.897-2,2v1Zm6,4c0-1.103-.897-2-2-2h-4c-1.103,0-2,.897-2,2v2c0,1.103.897,2,2,2h4c1.103,0,2-.897,2-2v-2Zm-4-.5c-.828,0-1.5.672-1.5,1.5s.672,1.5,1.5,1.5,1.5-.672,1.5-1.5-.672-1.5-1.5-1.5Z"/>
</svg>
