<?xml version="1.0" encoding="UTF-8"?>
<svg xmlns="http://www.w3.org/2000/svg" id="Layer_1" data-name="Layer 1" viewBox="0 0 24 24">
  <path d="M.12,2.04c-.241-.479-.045-1.063,.442-1.287C1.882,.146,4.864-.653,7.689,.905c1.534,.846,2.181,2.64,1.624,4.222,.149,.396,.279,.82,.38,1.286,.41-.378,.874-.705,1.354-.995-.071-1.214,.698-2.413,1.91-2.941,2.029-.885,4.363-.339,5.482,.111,.502,.202,.721,.789,.478,1.272-.773,1.541-2.225,2.952-3.709,3.781-1.102,.616-2.431,.402-3.302-.422-.981,.64-1.73,1.532-1.98,2.154-.154,.383-.525,.626-.927,.626-.667,0-.98-.488-1-.959-.04-.981-.165-1.836-.358-2.56-.308-.863-1.43-2.376-1.496-2.494-1.629-1.728-3.63-1.986-3.63-1.986,2.179,2.49,3,3.5,3.471,5.484-.605,.008-1.218-.121-1.784-.433C2.295,5.999,.991,3.771,.12,2.04ZM23.235,13.016l-6.804,7.637c-1.896,2.128-4.618,3.348-7.467,3.348H4c-2.206,0-4-1.794-4-4v-5c0-2.206,1.794-4,4-4H12.857c1.14,0,2.139,.609,2.689,1.519l3.217-3.535c.54-.595,1.281-.944,2.085-.981,.812-.039,1.574,.24,2.169,.782,1.214,1.107,1.312,3.005,.218,4.23Zm-1.565-2.752c-.199-.181-.457-.271-.728-.262-.27,.013-.519,.129-.699,.329l-4.427,4.865c-.385,1.07-1.339,1.89-2.514,2.058l-5.161,.737c-.548,.076-1.054-.303-1.132-.849-.078-.547,.302-1.054,.849-1.132l5.161-.737c.56-.079,.98-.565,.98-1.13,0-.63-.513-1.143-1.143-1.143H4c-1.103,0-2,.897-2,2v5c0,1.103,.897,2,2,2h4.965c2.279,0,4.456-.977,5.974-2.678l6.804-7.638c.368-.412,.335-1.049-.072-1.421Z"/>
</svg>
