<?xml version="1.0" encoding="UTF-8"?>
<svg xmlns="http://www.w3.org/2000/svg" id="Layer_1" data-name="Layer 1" viewBox="0 0 24 24">
  <path d="m24,12v11c0,.552-.448,1-1,1s-1-.448-1-1v-11c0-5.514-4.486-10-10-10S2,6.486,2,12v11c0,.552-.448,1-1,1s-1-.448-1-1v-11C0,5.383,5.383,0,12,0s12,5.383,12,12Zm-4.647,3.014c.432,1.21.647,2.455.647,3.718,0,1.353-.826,2.516-2,3.012v.756c0,.827-.673,1.5-1.5,1.5s-1.5-.673-1.5-1.5v-.5h-6v.5c0,.827-.673,1.5-1.5,1.5s-1.5-.673-1.5-1.5v-.756c-1.174-.496-2-1.659-2-3.012,0-1.263.215-2.508.641-3.699l.967-2.708c.71-1.986,2.602-3.318,4.709-3.318h.01l3.308.007c2.059.004,3.933,1.3,4.665,3.226l1.053,2.775Zm-11.861-2.017l-.358,1.003h9.695l-.399-1.052c-.438-1.155-1.563-1.933-2.798-1.936l-3.308-.007h-.006c-1.265,0-2.399.8-2.825,1.991Zm10.508,5.735c0-.93-.151-1.847-.433-2.732h-1.567v1c0,.552-.448,1-1,1s-1-.448-1-1v-1h-4v1c0,.552-.448,1-1,1s-1-.448-1-1v-1h-1.567c-.282.885-.433,1.801-.433,2.732,0,.699.569,1.268,1.268,1.268h9.464c.699,0,1.268-.569,1.268-1.268Z"/>
</svg>
