<?xml version="1.0" encoding="UTF-8"?>
<svg xmlns="http://www.w3.org/2000/svg" id="Layer_1" data-name="Layer 1" viewBox="0 0 24 24">
  <path d="M12,23c0,.552-.448,1-1,1H4.192c-1.45,0-2.761-.676-3.508-1.809-.454-.688-.684-1.473-.684-2.334,0-3.665,3.803-7.817,6.07-9.966,.591-.56,.93-1.351,.93-2.17V2h-1c-.552,0-1-.448-1-1s.448-1,1-1h11c.552,0,1,.448,1,1s-.448,1-1,1h-1V7.721c0,.328,.053,.651,.157,.96,.176,.523-.105,1.09-.629,1.267-.524,.177-1.09-.105-1.267-.629-.173-.515-.261-1.053-.261-1.598V2h-5V7.721c0,1.366-.566,2.686-1.554,3.622-1.33,1.261-2.437,2.494-3.302,3.658h4.856c.552,0,1,.448,1,1s-.448,1-1,1H2.864c-.562,1.066-.864,2.035-.864,2.857,0,.469,.116,.873,.354,1.232,.371,.562,1.075,.911,1.839,.911h6.808c.552,0,1,.448,1,1Zm11.632-2.255c-.185,.321-.521,.5-.867,.5-.169,0-.341-.043-.499-.134l-.977-.563c-.605,.652-1.393,1.126-2.289,1.33v1.121c0,.552-.448,1-1,1s-1-.448-1-1v-1.121c-.896-.205-1.685-.678-2.289-1.33l-.977,.563c-.158,.091-.329,.134-.499,.134-.346,0-.682-.18-.867-.5-.276-.479-.112-1.09,.367-1.366l.983-.567c-.129-.418-.218-.853-.218-1.313s.09-.895,.218-1.313l-.983-.567c-.479-.275-.643-.887-.367-1.366,.275-.479,.885-.643,1.366-.367l.977,.563c.605-.652,1.393-1.126,2.289-1.33v-1.121c0-.552,.448-1,1-1s1,.448,1,1v1.121c.896,.205,1.685,.678,2.289,1.33l.977-.563c.48-.276,1.09-.111,1.366,.367,.276,.479,.112,1.09-.367,1.366l-.983,.567c.129,.418,.218,.853,.218,1.313s-.09,.895-.218,1.313l.983,.567c.479,.275,.643,.887,.367,1.366Zm-3.132-3.245c0-1.378-1.122-2.5-2.5-2.5s-2.5,1.122-2.5,2.5,1.122,2.5,2.5,2.5,2.5-1.122,2.5-2.5Z"/>
</svg>
