<?xml version="1.0" encoding="UTF-8"?>
<svg xmlns="http://www.w3.org/2000/svg" id="Layer_1" data-name="Layer 1" viewBox="0 0 24 24">
  <path d="M24,6c0,.759-.295,1.473-.832,2.009l-3.665,3.695c-.195,.197-.453,.296-.71,.296-.254,0-.509-.097-.704-.29-.392-.389-.395-1.021-.006-1.414l3.268-3.296h-3.352c-2.757,0-5,2.243-5,5v11c0,.553-.448,1-1,1s-1-.447-1-1V12c0-2.757-2.243-5-5-5H2.648l3.268,3.296c.389,.393,.386,1.025-.006,1.414-.195,.193-.45,.29-.704,.29-.257,0-.515-.099-.71-.296L.829,8.006c-.534-.533-.829-1.247-.829-2.006s.295-1.473,.832-2.009L4.497,.296c.388-.394,1.021-.396,1.414-.006,.392,.389,.395,1.021,.006,1.414l-3.268,3.296h3.352c2.548,0,4.775,1.373,6,3.413,1.225-2.04,3.452-3.413,6-3.413h3.352l-3.268-3.296c-.389-.393-.386-1.025,.006-1.414,.393-.389,1.026-.387,1.414,.006l3.667,3.698c.534,.533,.829,1.247,.829,2.006Z"/>
</svg>
