<?xml version="1.0" encoding="UTF-8"?>
<svg xmlns="http://www.w3.org/2000/svg" id="Layer_1" data-name="Layer 1" viewBox="0 0 24 24">
  <path d="m9.5,2.5c0-1.381,1.119-2.5,2.5-2.5s2.5,1.119,2.5,2.5-1.119,2.5-2.5,2.5-2.5-1.119-2.5-2.5Zm14.5,18.5v.5c0,1.379-1.121,2.5-2.5,2.5H2.5c-1.378,0-2.5-1.121-2.5-2.5v-1.5c0-1.654,1.346-3,3-3h3c.395,0,.77.081,1.116.22.258-.95.965-1.708,1.884-2.036v-7.338L4.257,2.669c-.37-.411-.336-1.043.074-1.412s1.043-.336,1.412.074l4.202,4.669h4.109l4.202-4.669c.37-.41,1.002-.444,1.412-.074.41.369.443,1.001.074,1.412l-4.743,5.177v7.339c1.161.414,2,1.514,2,2.816v.184c.314-.112.648-.184,1-.184h3c1.654,0,3,1.346,3,3Zm-11-6v-2h-2v2h2Zm0-7h-2v3h2v-3ZM2.5,22h4.5v-2c0-.552-.449-1-1-1h-3c-.551,0-1,.448-1,1v1.5c0,.275.224.5.5.5Zm6.5,0h6v-4c0-.552-.448-1-1-1h-4c-.551,0-1,.448-1,1v4Zm13-1c0-.552-.448-1-1-1h-3c-.552,0-1,.448-1,1v1h4.5c.275,0,.5-.225.5-.5v-.5Z"/>
</svg>
