<?xml version="1.0" encoding="UTF-8"?>
<svg xmlns="http://www.w3.org/2000/svg" id="Layer_1" data-name="Layer 1" viewBox="0 0 24 24">
  <path d="M24,4.5v3.5c0,.552-.448,1-1,1s-1-.448-1-1v-3.5c0-1.378-1.122-2.5-2.5-2.5H4.5c-1.378,0-2.5,1.122-2.5,2.5v3.5c0,.552-.448,1-1,1s-1-.448-1-1v-3.5C0,2.019,2.019,0,4.5,0h15c2.481,0,4.5,2.019,4.5,4.5Zm-2.186,8.374c.467,1.134,.218,2.377-.65,3.245,0,0-6.34,6.738-6.347,6.745-.774,.773-1.791,1.16-2.807,1.16s-2.034-.387-2.809-1.161l-6.331-6.797c-.843-.841-1.093-2.085-.626-3.219,.467-1.134,1.52-1.842,2.747-1.846h2.057l-.005-1.998c0-2.194,1.783-3.977,3.974-3.977h1.982c2.191,0,3.974,1.783,3.974,3.974l.023,2.026h2.068c1.231,.006,2.283,.714,2.749,1.848Zm-1.85,.761c-.059-.143-.296-.606-.904-.609h-3.052c-.548,0-.994-.44-1-.988l-.034-3.026c0-1.1-.886-1.985-1.974-1.985h-1.982c-1.088,0-1.974,.886-1.974,1.974l.007,2.998c0,.266-.104,.521-.292,.708-.188,.188-.442,.294-.708,.294h-3.056c-.604,.002-.842,.466-.901,.607s-.216,.639,.215,1.068l6.332,6.798c.74,.739,1.984,.742,2.753-.015l6.336-6.733c.451-.452,.294-.949,.235-1.091Z"/>
</svg>
