<?xml version="1.0" encoding="UTF-8"?>
<svg xmlns="http://www.w3.org/2000/svg" id="Layer_1" data-name="Layer 1" viewBox="0 0 24 24">
  <path d="M9,23c0,.553-.448,1-1,1h-3.5c-2.481,0-4.5-2.019-4.5-4.5V4.5C0,2.019,2.019,0,4.5,0h3.5c.552,0,1,.448,1,1s-.448,1-1,1h-3.5c-1.378,0-2.5,1.122-2.5,2.5v15c0,1.379,1.122,2.5,2.5,2.5h3.5c.552,0,1,.447,1,1Zm13.864-8.183c-.007,.007-6.768,6.368-6.768,6.368-.561,.562-1.299,.861-2.064,.861-.385,0-.778-.076-1.158-.232-1.134-.467-1.843-1.518-1.849-2.744v-2.074l-2.037-.022c-2.18,0-3.963-1.782-3.963-3.974v-1.982c0-2.191,1.783-3.974,3.974-3.974l2,.005v-2.054c.004-1.231,.712-2.283,1.846-2.75,1.135-.467,2.379-.217,3.246,.651l6.746,6.281c1.572,1.574,1.573,4.093,.027,5.641Zm-1.416-4.203l-6.746-6.281c-.457-.457-.953-.299-1.095-.24s-.605,.296-.607,.904v3.053c0,.266-.105,.521-.294,.708s-.487,.272-.708,.292l-3-.007c-1.086,0-1.972,.886-1.972,1.974v1.982c0,1.088,.886,1.974,1.974,1.974l3.037,.034c.548,.006,.989,.452,.989,1v3.058c.003,.603,.467,.841,.609,.899s.639,.215,1.069-.215l6.755-6.356c.758-.769,.754-2.013-.011-2.779Z"/>
</svg>
