<?xml version="1.0" encoding="UTF-8"?>
<svg xmlns="http://www.w3.org/2000/svg" id="Layer_1" data-name="Layer 1" viewBox="0 0 24 24">
  <path d="m17.266,7.281c-.198.235-.48.356-.766.356-.227,0-.456-.077-.643-.235-2.235-1.879-5.479-1.879-7.714,0-.422.356-1.053.301-1.409-.122-.355-.422-.301-1.053.122-1.409,2.98-2.508,7.308-2.508,10.288,0,.423.355.477.986.122,1.409Zm-10.531,9.438c-.355.423-.301,1.054.122,1.409,1.49,1.253,3.317,1.88,5.144,1.88s3.654-.627,5.144-1.88c.423-.355.477-.986.122-1.409-.354-.422-.985-.477-1.409-.122-2.235,1.881-5.479,1.881-7.714,0-.423-.354-1.054-.301-1.409.122Zm1.266-4.719c0-2.206,1.794-4,4-4s4,1.794,4,4-1.794,4-4,4-4-1.794-4-4Zm2,0c0,1.103.897,2,2,2s2-.897,2-2-.897-2-2-2-2,.897-2,2Zm-4.348-7.728c3.686-3.036,9.031-3.03,12.71.012.187.154.412.229.637.229.288,0,.573-.124.771-.363.352-.426.292-1.056-.133-1.408-4.417-3.651-10.832-3.658-15.256-.015-.426.351-.487.981-.136,1.408.351.426.981.488,1.408.136Zm12.71,15.444c-3.679,3.042-9.025,3.046-12.71.013-.427-.354-1.057-.291-1.408.136-.351.427-.29,1.057.136,1.407,2.209,1.819,4.914,2.729,7.619,2.729s5.426-.915,7.637-2.743c.426-.352.485-.982.133-1.407-.353-.426-.982-.486-1.408-.134Zm-13.363-4.716v-6c0-.552-.448-1-1-1s-1,.448-1,1v6c0,.553.448,1,1,1s1-.447,1-1Zm17-7h-4c-.552,0-1,.448-1,1s.448,1,1,1h1v5c0,.553.448,1,1,1s1-.447,1-1v-5h1c.552,0,1-.448,1-1s-.448-1-1-1Z"/>
</svg>
