<?xml version="1.0" encoding="UTF-8"?>
<svg xmlns="http://www.w3.org/2000/svg" id="Layer_1" data-name="Layer 1" viewBox="0 0 24 24">
  <path d="m12,2.5c0-1.381,1.119-2.5,2.5-2.5s2.5,1.119,2.5,2.5-1.119,2.5-2.5,2.5-2.5-1.119-2.5-2.5Zm12,14.5c0,.553-.448,1-1,1h-1v5c0,.553-.448,1-1,1s-1-.447-1-1v-5H4v5c0,.553-.448,1-1,1s-1-.447-1-1v-5h-1c-.552,0-1-.447-1-1s.448-1,1-1h1v-2.672c0-.801.312-1.555.879-2.121l.695-.695c-.044-.164-.074-.334-.074-.512,0-1.105.895-2,2-2s2,.895,2,2-.895,2-2,2c-.178,0-.347-.031-.512-.074l-.695.695c-.186.187-.293.444-.293.707v2.672h6V7.362L5.232,1.64c-.354-.424-.296-1.055.128-1.408.423-.355,1.055-.296,1.408.128l4.7,5.64h6.063L22.232.36c.353-.424.984-.482,1.408-.128.424.354.481.984.128,1.408l-4.768,5.722v8.638h4c.552,0,1,.447,1,1Zm-12-1h5v-8h-5v8Z"/>
</svg>
