<?xml version="1.0" encoding="UTF-8"?>
<svg xmlns="http://www.w3.org/2000/svg" id="Layer_1" data-name="Layer 1" viewBox="0 0 24 24">
  <path d="m15.232,0h-6.465c-1.526,0-2.768,1.242-2.768,2.768,0,.739.288,1.435.811,1.957l2.189,2.189s-.027,12.36.007,12.503c.019,1.307.531,2.535,1.457,3.461l.829.829c.195.195.451.293.707.293s.512-.098.707-.293l.829-.829c.944-.944,1.464-2.2,1.464-3.535V6.914l2.189-2.189c.523-.522.811-1.218.811-1.957,0-1.526-1.242-2.768-2.768-2.768Zm-2.232,19.343c0,.79-.32,1.562-.878,2.121l-.122.122-.122-.122c-.514-.514-.813-1.211-.86-1.934l1.981-2.053v1.867Zm0-4.747l-2,2.073v-2.755l2-2v2.682Zm0-5.51l-2,2v-4.086h2v2.086Zm2.775-5.775l-1.689,1.689h-4.172l-1.689-1.689c-.145-.145-.225-.338-.225-.543,0-.423.344-.768.768-.768h6.465c.423,0,.768.344.768.768,0,.205-.08.398-.225.543Z"/>
</svg>
