<?xml version="1.0" encoding="UTF-8"?>
<svg xmlns="http://www.w3.org/2000/svg" id="Layer_1" data-name="Layer 1" viewBox="0 0 24 24">
  <path d="m17,10c-3.859,0-7,3.141-7,7s3.141,7,7,7,7-3.141,7-7-3.141-7-7-7Zm0,12c-2.757,0-5-2.243-5-5s2.243-5,5-5,5,2.243,5,5-2.243,5-5,5Zm-1-6v-2c0-.553.447-1,1-1s1,.447,1,1v2c0,.553-.447,1-1,1s-1-.447-1-1Zm2.5,3.5c0,.828-.672,1.5-1.5,1.5s-1.5-.672-1.5-1.5.672-1.5,1.5-1.5,1.5.672,1.5,1.5Zm-8.5,3.5c0,.553-.448,1-1,1h-4c-2.757,0-5-2.243-5-5v-9.276c0-1.665.824-3.214,2.204-4.145L9.203.855c1.699-1.146,3.895-1.146,5.594,0l7.203,4.893c.99.748,1.692,1.844,1.918,3.07.101.543-.259,1.064-.802,1.165-.541.103-1.065-.259-1.165-.802-.146-.788-.609-1.497-1.272-1.944l-7.001-4.724c-1.02-.689-2.336-.689-3.355,0L3.322,7.237c-.828.559-1.322,1.487-1.322,2.486v9.276c0,1.654,1.346,3,3,3h4c.552,0,1,.447,1,1Z"/>
</svg>
