<?xml version="1.0" encoding="UTF-8"?>
<svg xmlns="http://www.w3.org/2000/svg" id="Layer_1" data-name="Layer 1" viewBox="0 0 24 24">
  <path d="m24,12.5c0,2.57-1.294,4.933-3.461,6.32-.466.299-1.084.161-1.381-.303-.298-.465-.162-1.083.303-1.381,1.59-1.019,2.539-2.752,2.539-4.637,0-2.614-1.858-4.883-4.417-5.394-.958-.191-1.744-.801-2.158-1.673-1.182-2.494-3.822-3.832-6.567-3.329-2.407.44-4.369,2.439-4.771,4.862-.122.735-.114,1.469.024,2.181.191.988-.177,2.046-.963,2.762-.729.662-1.146,1.606-1.146,2.59,0,1.339.745,2.541,1.945,3.137.495.246.696.846.451,1.341-.175.352-.529.555-.896.555-.149,0-.301-.033-.444-.104-1.885-.937-3.055-2.824-3.055-4.928,0-1.546.656-3.03,1.801-4.07.272-.248.405-.593.345-.901-.183-.947-.194-1.919-.033-2.89C2.66,3.349,5.226.736,8.497.137c3.592-.657,7.184,1.169,8.735,4.439.14.295.411.502.742.569,3.492.697,6.026,3.79,6.026,7.354Zm-5.244,8.837c.689,1.181-.163,2.663-1.53,2.663H6.773c-1.367,0-2.218-1.483-1.53-2.663l5.227-8.96c.683-1.171,2.376-1.171,3.059,0l5.227,8.96Zm-5.756.663c0-.552-.448-1-1-1s-1,.448-1,1,.448,1,1,1,1-.448,1-1Zm0-6c0-.552-.448-1-1-1s-1,.448-1,1v3c0,.552.448,1,1,1s1-.448,1-1v-3Z"/>
</svg>
