<?xml version="1.0" encoding="UTF-8"?>
<svg xmlns="http://www.w3.org/2000/svg" id="Layer_1" data-name="Layer 1" viewBox="0 0 24 24">
  <path d="m17,10c-3.86,0-7,3.141-7,7s3.14,7,7,7,7-3.141,7-7-3.14-7-7-7Zm0,12c-2.757,0-5-2.243-5-5s2.243-5,5-5,5,2.243,5,5-2.243,5-5,5Zm-1-6v-2c0-.553.448-1,1-1s1,.447,1,1v2c0,.553-.448,1-1,1s-1-.447-1-1Zm2.5,3.5c0,.828-.672,1.5-1.5,1.5s-1.5-.672-1.5-1.5.672-1.5,1.5-1.5,1.5.672,1.5,1.5Zm-8.105,3.947c-.175.351-.528.553-.896.553-.15,0-.303-.034-.446-.105-1.512-.756-9.053-4.872-9.053-11.701v-5.321C0,4.713,1.377,2.806,3.426,2.126L9.685.051c.205-.068.425-.068.63,0l6.259,2.075c2.049.68,3.426,2.587,3.426,4.746v.128c0,.553-.448,1-1,1s-1-.447-1-1v-.128c0-1.295-.826-2.439-2.056-2.848l-5.944-1.971-5.944,1.971c-1.23.408-2.056,1.553-2.056,2.848v5.321c0,5.652,6.62,9.249,7.947,9.912.494.247.694.848.447,1.342Z"/>
</svg>
