<?xml version="1.0" encoding="UTF-8"?>
<svg xmlns="http://www.w3.org/2000/svg" id="Layer_1" data-name="Layer 1" viewBox="0 0 24 24">
  <path d="m16.646,9h.627c.123.844.843,1.494,1.722,1.494s1.598-.65,1.722-1.494h.634c.727,0,1.405-.323,1.862-.886.455-.561.631-1.288.482-1.995l-.519-2.475c-.478-2.282-2.039-3.645-4.176-3.645-2.157,0-3.678,1.327-4.175,3.64-.17.795-.363,1.711-.524,2.481-.148.707.028,1.434.484,1.994.457.562,1.135.885,1.861.885Zm.135-4.941c.442-2.059,1.78-2.059,2.219-2.059.442,0,1.788,0,2.218,2.054l.52,2.477c.033.158-.035.271-.078.324-.044.055-.143.146-.309.146h-4.705c-.166,0-.265-.091-.309-.146-.043-.053-.111-.166-.078-.324.16-.767.352-1.68.521-2.471Zm6.312,12.68c-.031-.03-2.437-1.882-2.437-1.882-1.16-1.109-3.126-1.105-4.282.006l-1.464,1.165c-3.198-1.357-5.473-3.638-6.932-6.947l1.158-1.456c.557-.579.863-1.338.863-2.145s-.304-1.559-.857-2.138c0,0-1.852-2.406-1.882-2.437-.584-.584-1.362-.907-2.189-.907s-1.604.322-2.138.859l-1.15,1.004C.633,3.012,0,4.566,0,6.238c0,7.636,10.126,17.762,17.762,17.762,1.672,0,3.226-.633,4.421-1.833l.91-1.05c.585-.584.907-1.362.907-2.188s-.322-1.604-.907-2.189Zm-1.461,3.014l-.911,1.05c-.771.772-1.822,1.197-2.959,1.197-5.989,0-15.762-8.805-15.762-15.762,0-1.138.425-2.188,1.147-2.913l1.15-1.005c.207-.207.482-.321.774-.321.274,0,.533.1.734.283,0,0,1.842,2.394,1.873,2.424.207.207.321.482.321.774s-.114.567-.321.774c-.027.027-1.635,2.045-1.635,2.045-.224.281-.279.662-.145.995,1.714,4.268,4.682,7.232,8.822,8.812.33.126.702.068.979-.151,0,0,2.018-1.608,2.045-1.635.413-.414,1.134-.414,1.548,0,.031.031,2.424,1.873,2.424,1.873.183.202.283.46.283.734,0,.292-.114.567-.368.825Z"/>
</svg>
