<?xml version="1.0" encoding="UTF-8"?>
<svg xmlns="http://www.w3.org/2000/svg" id="Layer_1" data-name="Layer 1" viewBox="0 0 24 24">
  <path d="M23.744,12.068l-1.111-3.333c-.545-1.634-2.074-2.735-3.796-2.735h-.837v-.5c0-.828-.672-1.5-1.5-1.5s-1.5,.672-1.5,1.5v.5h-2V3h10c.552,0,1-.448,1-1s-.448-1-1-1H1c-.552,0-1,.448-1,1s.448,1,1,1H3v3.276c-1.742,.621-3,2.271-3,4.224v8.992c0,1.937,1.57,3.508,3.508,3.508,0,0,.233-.006,.35-.018,.826-.083,1.561-.485,2.116-1.072,.77,.806,1.912,1.253,3.154,1.034,1.692-.299,2.871-1.862,2.871-3.581v-.364s3,0,3,0v.399c0,1.67,1.129,3.19,2.765,3.525,2.249,.461,4.235-1.255,4.235-3.425v-1.056c1.19-.694,2-1.97,2-3.444v-1.351c0-.598-.208-1.438-.256-1.582Zm-3.009-2.7l.878,2.632h-4.613v-4h1.838c.862,0,1.625,.549,1.897,1.368Zm-5.735,7.632H2v-3H15v3ZM11,6h-2V3h2v3ZM7,3v3h-2V3h2Zm-2.5,5H15v4H2v-1.5c0-1.378,1.122-2.5,2.5-2.5Zm-.841,12.992c-.436,.039-.847-.092-1.165-.38-.319-.288-.494-.683-.494-1.112v-.5h3v.357c0,.841-.589,1.56-1.341,1.635Zm6.341-1.492c0,.827-.673,1.5-1.5,1.5s-1.5-.673-1.5-1.5c0-.016-.008-.029-.009-.045,0-.033,.009-.455,.009-.455h3v.5Zm10,0c0,.827-.673,1.5-1.5,1.5s-1.5-.673-1.5-1.5v-.5h3v.5Zm0-2.5h-3v-3h5v1c0,1.103-.897,2-2,2Z"/>
</svg>
