<?xml version="1.0" encoding="UTF-8"?>
<svg xmlns="http://www.w3.org/2000/svg" id="Layer_1" data-name="Layer 1" viewBox="0 0 24 24">
  <path d="m15,11c-.552,0-1,.448-1,1s.448,1,1,1h8c.552,0,1-.448,1-1,0-.546-.438-.991-.983-1l-.017-6.19c-.005-.404-.152-3.97-3.837-4.777-.785-.169-1.634.258-1.971.999-.461,1.016-1.146,1.747-1.979,2.114-.737.324-1.213,1.047-1.213,1.841,0,1.11.903,2.013,2.013,2.013h.987v.5c0,3.5-1.062,3.5-2,3.5Zm1.019-6.024c.871-.384,2.07-1.205,2.911-2.941,1.943.542,2.065,2.417,2.07,2.787v5.435c-.003.248-.005.499.011.744h-2.578c.468-1.023.567-2.303.567-3.5v-1.5c0-.552-.448-1-1-1l-1.981-.024ZM5,15c-1.105,0-2-.895-2-2,0-.718.845-1.745,1.437-2.689.26-.415.867-.415,1.127,0,.591.944,1.437,1.971,1.437,2.689,0,1.105-.895,2-2,2Zm4,7h-.005c-.602-.826-1.995-2.956-1.995-5,.552,0,1-.448,1-1s-.448-1-1-1H3c-.552,0-1,.448-1,1s.448,1,1,1c0,2.044-1.393,4.174-1.995,5h-.005c-.552,0-1,.448-1,1s.448,1,1,1h8c.552,0,1-.448,1-1s-.448-1-1-1Zm-5.6,0c.752-1.264,1.6-3.108,1.6-5,0,1.892.848,3.736,1.6,5h-3.201ZM12,1c0,.552-.448,1-1,1h-3.5c-1.378,0-2.5,1.122-2.5,2.5v1.529l1.307-1.25c.398-.382,1.031-.371,1.414.028.383.398.371,1.031-.028,1.414l-2.301,2.212c-.379.379-.882.569-1.387.569-.51,0-1.021-.194-1.411-.583L.307,6.221c-.398-.383-.411-1.016-.028-1.414.384-.399,1.016-.41,1.414-.028l1.307,1.257v-1.536C3,2.019,5.019,0,7.5,0h3.5c.552,0,1,.448,1,1Zm11.693,16.779c.398.383.411,1.016.028,1.414-.196.205-.458.307-.721.307-.25,0-.499-.093-.693-.279l-1.307-1.257v1.536c0,2.481-2.019,4.5-4.5,4.5h-3.5c-.552,0-1-.448-1-1s.448-1,1-1h3.5c1.378,0,2.5-1.122,2.5-2.5v-1.529l-1.307,1.25c-.397.383-1.03.371-1.414-.028-.383-.398-.371-1.031.028-1.414l2.301-2.212c.762-.761,2.023-.76,2.798.013l2.287,2.199Z"/>
</svg>
