<?xml version="1.0" encoding="UTF-8"?>
<svg xmlns="http://www.w3.org/2000/svg" id="Layer_1" data-name="Layer 1" viewBox="0 0 24 24">
  <path d="m14,1c0-.552-.448-1-1-1s-1,.448-1,1v8.882l-.236.118c-1.705.852-2.764,2.566-2.764,4.472v7.528h-2.941l1.83-3.541c.254-.491.062-1.094-.429-1.347-.492-.256-1.095-.061-1.347.429l-1.91,3.699c-.276.607-.225,1.304.136,1.865.361.561.975.895,1.642.895h5.521c1.93,0,3.5-1.57,3.5-3.5,0-6.893-.658-9.387-1-10.218V1Zm-2.5,21h-.5v-7.528c0-1.047.536-1.992,1.411-2.537.253,1.165.589,3.634.589,8.565,0,.827-.673,1.5-1.5,1.5Zm9.5-.5c0,1.381-1.139,2.5-2.545,2.5s-2.455-1.119-2.455-2.5,1.05-2.5,2.455-2.5,2.545,1.119,2.545,2.5Z"/>
</svg>
