<?xml version="1.0" encoding="UTF-8"?>
<svg xmlns="http://www.w3.org/2000/svg" id="Layer_1" data-name="Layer 1" viewBox="0 0 24 24">
  <path d="M16,0H8C5.243,0,3,2.243,3,5v14c0,2.757,2.243,5,5,5h8c2.757,0,5-2.243,5-5V5c0-2.757-2.243-5-5-5Zm3,19c0,1.654-1.346,3-3,3H8c-1.654,0-3-1.346-3-3V5c0-1.654,1.346-3,3-3h8c1.654,0,3,1.346,3,3v14Zm-1-8.5c0,.828-.672,1.5-1.5,1.5-.334,0-.639-.113-.888-.297-.281,.577-.612,1.432-.612,2.297v1c0,.552-.448,1-1,1h-4c-.552,0-1-.448-1-1v-1c0-.864-.331-1.719-.612-2.297-.249,.184-.554,.297-.888,.297-.828,0-1.5-.672-1.5-1.5s.672-1.5,1.5-1.5,1.5,.672,1.5,1.5c0,.3-.09,.578-.242,.812,.63,.306,1.483,.844,1.891,1.674,.265-1.078,.814-2.339,1.124-3.009-.72-.11-1.274-.726-1.274-1.477,0-.828,.672-1.5,1.5-1.5s1.5,.672,1.5,1.5c0,.751-.553,1.367-1.274,1.477,.31,.669,.859,1.931,1.124,3.009,.408-.83,1.261-1.369,1.891-1.674-.151-.234-.242-.512-.242-.812,0-.828,.672-1.5,1.5-1.5s1.5,.672,1.5,1.5Z"/>
</svg>
