<?xml version="1.0" encoding="UTF-8"?>
<svg xmlns="http://www.w3.org/2000/svg" id="Layer_1" data-name="Layer 1" viewBox="0 0 24 24">
  <path d="M24,20c0,1.654-1.346,3-3,3,0,.552-.448,1-1,1s-1-.448-1-1h0s-.268,0-.268,0c-1.068,0-2.063-.574-2.598-1.499-.276-.478-.113-1.089,.365-1.366,.477-.277,1.09-.113,1.366,.365,.178,.308,.511,.5,.867,.5h2.268c.551,0,1-.448,1-1,0-.378-.271-.698-.644-.76l-3.042-.507c-1.341-.223-2.315-1.373-2.315-2.733,0-1.654,1.346-3,3-3,0-.552,.448-1,1-1s1,.448,1,1h0s.268,0,.268,0c1.068,0,2.063,.574,2.598,1.499,.276,.478,.113,1.089-.365,1.366-.477,.277-1.089,.113-1.366-.365-.178-.308-.511-.5-.867-.5h-2.268c-.551,0-1,.448-1,1,0,.378,.271,.698,.644,.76l3.042,.507c1.341,.223,2.315,1.373,2.315,2.733ZM14,2.538c0-.965,.538-1.848,1.444-2.294,.571-.281,1.228-.29,1.845-.131,3.273,.842,5.869,3.485,6.644,6.783,.169,.72,.006,1.459-.446,2.03-.549,.693-1.446,1.075-2.525,1.075h-3.962c-1.657,0-3-1.343-3-3V2.538Zm2,4.462c0,.552,.448,1,1,1h3.962c.443,0,.801-.118,.958-.316,.075-.094,.096-.203,.066-.332-.617-2.627-2.713-4.723-5.34-5.338-.042-.01-.082-.014-.12-.014-.149,0-.261,.068-.32,.115-.131,.104-.206,.258-.206,.423V7Zm-2,5h-2V5.251c0-.938-.425-1.809-1.166-2.389-.712-.558-1.618-.755-2.481-.541C3.373,3.552-.138,8.174,.004,13.312c.159,5.732,4.952,10.525,10.685,10.684,.103,.003,.205,.004,.308,.004,.743,0,1.483-.074,2.203-.22,.541-.11,.891-.638,.781-1.179-.11-.542-.638-.893-1.179-.781-.671,.136-1.368,.193-2.057,.177-4.69-.13-8.611-4.051-8.741-8.741-.116-4.204,2.756-7.986,6.829-8.993,.358-.088,.637,.071,.769,.174,.25,.195,.398,.5,.398,.814v7.749c0,.552,.448,1,1,1h3c.552,0,1-.448,1-1s-.448-1-1-1Z"/>
</svg>
