<?xml version="1.0" encoding="UTF-8"?>
<svg xmlns="http://www.w3.org/2000/svg" id="Layer_1" data-name="Layer 1" viewBox="0 0 24 24">
  <path d="M24,16v3.5c0,2.481-2.019,4.5-4.5,4.5H4.5c-2.481,0-4.5-2.019-4.5-4.5v-3.5c0-.553,.448-1,1-1s1,.447,1,1v3.5c0,1.379,1.122,2.5,2.5,2.5h15c1.379,0,2.5-1.121,2.5-2.5v-3.5c0-.553,.447-1,1-1s1,.447,1,1ZM2.245,11.154c-.467-1.135-.218-2.378,.651-3.246L9.176,1.163c1.573-1.572,4.093-1.574,5.641-.027,.007,.007,6.368,6.768,6.368,6.768,.846,.844,1.096,2.087,.629,3.222s-1.518,1.843-2.744,1.849h-2.074l-.022,2.038c0,2.18-1.782,3.962-3.974,3.962h-1.982c-2.191,0-3.974-1.782-3.974-3.974l.005-2h-2.054c-1.231-.004-2.283-.712-2.75-1.846Zm1.849-.762c.059,.142,.296,.605,.904,.607h3.053c.266,0,.521,.105,.708,.294,.188,.188,.292,.443,.292,.708l-.007,3c0,1.085,.886,1.971,1.974,1.971h1.982c1.088,0,1.974-.886,1.974-1.974l.034-3.037c.006-.548,.452-.989,1-.989h3.058c.603-.003,.841-.467,.899-.609s.216-.639-.215-1.069L13.394,2.541c-.383-.377-.883-.565-1.383-.565-.505,0-1.011,.192-1.396,.576l-6.281,6.746c-.456,.456-.299,.953-.24,1.095Z"/>
</svg>
