<?xml version="1.0" encoding="UTF-8"?>
<svg xmlns="http://www.w3.org/2000/svg" id="Layer_1" data-name="Layer 1" viewBox="0 0 24 24">
  <path d="m8.925,5.759l.338,4.659c.026.352-.253.651-.605.651-.318,0-.582-.246-.605-.563l-.201-2.776-.644,1.416c-.216.474-.889.474-1.105,0l-.644-1.416-.201,2.776c-.023.317-.287.563-.605.563-.352,0-.631-.299-.605-.651l.338-4.659c.032-.535.358-.759.749-.759.26,0,.501.184.638.486l.883,1.942.883-1.942c.137-.302.378-.486.638-.486.391,0,.717.224.749.759Zm8.464,4.027h-1.381c-.357,0-.647.29-.647.647s.29.647.647.647h1.381c1.03,0,1.868-.827,1.868-1.843,0-.459-.177-.875-.46-1.198.283-.322.46-.736.46-1.194,0-1.01-.833-1.832-1.857-1.832l-1.374-.002c-.355,0-.644.287-.644.643s.288.643.643.643h1.375c.316,0,.573.246.573.548s-.257.548-.573.548h-.497c-.358-.001-.649.289-.649.647s.29.648.648.648h.488c.316,0,.573.246.573.548s-.257.548-.573.548Zm-2.91-2.801c0,1.094-.902,1.985-2.012,1.985l-.717.003v1.471c0,.345-.28.625-.625.625s-.625-.28-.625-.625v-4.819c0-.345.28-.625.625-.625h1.342c1.109,0,2.012.891,2.012,1.985Zm-1.25,0c0-.398-.349-.735-.762-.735h-.715l.005,1.473.71-.003c.413,0,.762-.336.762-.735Zm10.771-1.985v11.343c0,1.335-.521,2.591-1.465,3.535l-2.656,2.657c-.944.944-2.2,1.464-3.536,1.464H5c-2.757,0-5-2.243-5-5V5C0,2.243,2.243,0,5,0h14c2.757,0,5,2.243,5,5ZM5,22h10v-4c0-1.654,1.346-3,3-3h4V5c0-1.654-1.346-3-3-3H5c-1.654,0-3,1.346-3,3v14c0,1.654,1.346,3,3,3Zm16.121-3.536c.401-.401.674-.915.799-1.464h-3.92c-.552,0-1,.449-1,1v3.922c.55-.122,1.057-.393,1.465-.8l2.656-2.657Z"/>
</svg>
