<?xml version="1.0" encoding="UTF-8"?>
<svg xmlns="http://www.w3.org/2000/svg" id="Layer_1" data-name="Layer 1" viewBox="0 0 24 24">
  <path d="M15.207,10.207l-1.793,1.793,1.793,1.793c.391,.391,.391,1.023,0,1.414-.195,.195-.451,.293-.707,.293s-.512-.098-.707-.293l-1.793-1.793-1.793,1.793c-.195,.195-.451,.293-.707,.293s-.512-.098-.707-.293c-.391-.391-.391-1.023,0-1.414l1.793-1.793-1.793-1.793c-.391-.391-.391-1.023,0-1.414s1.023-.391,1.414,0l1.793,1.793,1.793-1.793c.391-.391,1.023-.391,1.414,0s.391,1.023,0,1.414Zm8.793,1.793c0,6.627-5.373,12-12,12S0,18.627,0,12,5.373,0,12,0s12,5.373,12,12Zm-4.6-3.03c.263,.64,.442,1.321,.531,2.03h2.019c-.106-1.065-.384-2.078-.799-3.019l-1.75,.988Zm-2.413-3.215c.536,.429,1.012,.927,1.422,1.478l1.753-.99c-.593-.839-1.313-1.578-2.13-2.199l-1.046,1.712Zm-3.987-1.686c.803,.101,1.569,.32,2.28,.642l1.046-1.713c-1.026-.495-2.143-.83-3.326-.948v2.019Zm-5.326-1.071l1.046,1.713c.711-.322,1.477-.541,2.28-.642V2.051c-1.183,.118-2.3,.452-3.326,.948Zm-3.836,3.244l1.753,.99c.411-.551,.886-1.049,1.422-1.478l-1.046-1.712c-.817,.621-1.537,1.361-2.13,2.199Zm-1.787,4.757h2.019c.089-.709,.268-1.391,.531-2.03l-1.75-.988c-.415,.941-.693,1.954-.799,3.019Zm2.549,4.029c-.263-.639-.441-1.32-.53-2.029H2.051c.106,1.064,.384,2.078,.799,3.018l1.75-.988Zm2.414,3.216c-.536-.429-1.012-.927-1.422-1.478l-1.753,.99c.593,.839,1.313,1.578,2.13,2.2l1.045-1.712Zm3.987,1.685c-.803-.101-1.569-.32-2.28-.642l-1.046,1.713c1.026,.495,2.143,.829,3.326,.948v-2.019Zm1-1.931c3.309,0,6-2.691,6-6s-2.691-6-6-6-6,2.691-6,6,2.691,6,6,6Zm4.326,3.002l-1.046-1.713c-.711,.322-1.477,.541-2.28,.642v2.019c1.183-.118,2.3-.452,3.326-.948Zm3.836-3.244l-1.753-.99c-.411,.551-.886,1.049-1.422,1.478l1.045,1.712c.817-.621,1.537-1.361,2.13-2.2Zm1.787-4.757h-2.019c-.089,.709-.268,1.39-.53,2.029l1.75,.988c.415-.94,.693-1.953,.799-3.018Z"/>
</svg>
