<?xml version="1.0" encoding="UTF-8"?>
<svg xmlns="http://www.w3.org/2000/svg" id="Layer_1" data-name="Layer 1" viewBox="0 0 24 24">
  <path d="m8,9.829v1.671c0,1.379,1.122,2.5,2.5,2.5h3c1.378,0,2.5-1.121,2.5-2.5v-1.671c.505-.178.958-.491,1.31-.915.572-.69.804-1.598.636-2.489-.208-1.106-1.086-2.042-2.182-2.326h0c-.749-.195-1.505-.101-2.159.258-1.008-.469-2.2-.469-3.208,0-.654-.357-1.409-.451-2.16-.258-1.096.284-1.974,1.22-2.183,2.326-.168.892.064,1.799.636,2.489.352.424.805.737,1.31.915Zm.019-3.033c.067-.355.363-.669.72-.762.092-.023.178-.034.259-.034.297,0,.519.141.664.275.348.322.876.356,1.262.08.649-.465,1.503-.465,2.152,0,.385.276.914.242,1.262-.08.184-.171.494-.353.922-.241.357.093.653.406.72.762.079.417-.098.706-.21.842-.191.23-.472.362-.771.362-.552,0-1,.447-1,1v2.5c0,.275-.224.5-.5.5h-3c-.276,0-.5-.225-.5-.5v-2.5c0-.553-.448-1-1-1-.298,0-.579-.132-.771-.362-.112-.136-.289-.425-.21-.842ZM17,0H7C4.243,0,2,2.243,2,5v15c0,2.206,1.794,4,4,4h11c2.757,0,5-2.243,5-5V5c0-2.757-2.243-5-5-5ZM7,2h10c1.654,0,3,1.346,3,3v11H6c-.732,0-1.409.212-2,.556V5c0-1.654,1.346-3,3-3Zm10,20H6c-1.103,0-2-.897-2-2s.897-2,2-2h14v1c0,1.654-1.346,3-3,3Z"/>
</svg>
