<?xml version="1.0" encoding="UTF-8"?>
<svg xmlns="http://www.w3.org/2000/svg" id="Layer_1" data-name="Layer 1" viewBox="0 0 24 24">
  <path d="m6.506,12.599c.957-2.187,3.114-3.599,5.494-3.599s4.537,1.413,5.494,3.599c.222.506-.009,1.096-.515,1.317-.131.057-.267.084-.4.084-.386,0-.753-.224-.917-.6-.639-1.458-2.076-2.401-3.662-2.401s-3.023.942-3.662,2.401c-.222.505-.812.735-1.317.515-.506-.221-.737-.811-.515-1.317Zm1.494-8.599c0-2.206,1.794-4,4-4s4,1.794,4,4-1.794,4-4,4-4-1.794-4-4Zm2,0c0,1.103.897,2,2,2s2-.897,2-2-.897-2-2-2-2,.897-2,2Zm13.96,11.859c-.096-.263-.346-.438-.626-.438h-2.001l-.708-1.987c-.097-.261-.346-.434-.625-.434s-.528.173-.625.434l-.708,1.987h-2.001c-.28,0-.529.174-.626.437-.097.262-.019.557.194.738l1.585,1.29-.627,2.011c-.085.27.01.564.236.734.118.089.259.133.4.133.129,0,.258-.037.371-.113l1.805-1.208,1.836,1.196c.237.154.546.142.771-.031.225-.173.315-.469.226-.738l-.652-1.987,1.577-1.285c.214-.18.293-.476.197-.739Zm-8.626,2.562h-2.001l-.708-1.987c-.097-.261-.346-.434-.625-.434s-.528.173-.625.434l-.708,1.987h-2.001c-.28,0-.529.174-.626.437-.097.262-.019.557.194.738l1.585,1.29-.627,2.011c-.085.27.01.564.236.734.118.089.259.133.4.133.129,0,.258-.037.371-.113l1.805-1.208,1.836,1.196c.237.154.546.142.771-.031.225-.173.315-.469.226-.738l-.652-1.987,1.577-1.285c.214-.18.293-.476.197-.739s-.346-.438-.626-.438Zm-8-3h-2.001l-.708-1.987c-.097-.261-.346-.434-.625-.434s-.528.173-.625.434l-.708,1.987H.667c-.28,0-.529.174-.626.437-.097.262-.019.557.194.738l1.585,1.29-.627,2.011c-.085.27.01.564.236.734.118.089.259.133.4.133.129,0,.258-.037.371-.113l1.805-1.208,1.836,1.196c.237.154.546.142.771-.031.225-.173.315-.469.226-.738l-.652-1.987,1.577-1.285c.214-.18.293-.476.197-.739-.096-.263-.346-.438-.626-.438Z"/>
</svg>
