<?xml version="1.0" encoding="UTF-8"?>
<svg xmlns="http://www.w3.org/2000/svg" id="Layer_1" data-name="Layer 1" viewBox="0 0 24 24">
  <path d="m24,19c0,1.654-1.346,3-3,3v1c0,.553-.448,1-1,1s-1-.447-1-1v-1h-.268c-1.067,0-2.063-.574-2.598-1.499-.276-.479-.113-1.09.365-1.366.477-.278,1.09-.113,1.366.364.179.31.511.501.867.501h2.268c.551,0,1-.448,1-1,0-.379-.271-.698-.644-.761l-3.041-.506c-1.342-.224-2.315-1.374-2.315-2.733,0-1.654,1.346-3,3-3v-1c0-.553.448-1,1-1s1,.447,1,1v1h.268c1.067,0,2.063.574,2.598,1.499.276.479.113,1.09-.365,1.366-.477.278-1.089.114-1.366-.364-.179-.31-.511-.501-.867-.501h-2.268c-.551,0-1,.448-1,1,0,.379.271.698.644.761l3.041.506c1.342.224,2.315,1.374,2.315,2.733ZM5,4h1c.552,0,1-.447,1-1s.449-1,1-1h2c.551,0,1,.448,1,1s.448,1,1,1h1c1.654,0,3,1.346,3,3v2c0,.553.448,1,1,1s1-.447,1-1v-2c0-2.757-2.243-5-5-5h-.171c-.413-1.164-1.525-2-2.829-2h-2c-1.304,0-2.416.836-2.829,2h-.171C2.243,2,0,4.243,0,7v12c0,2.757,2.243,5,5,5h8c.421,0,.841-.053,1.249-.157.535-.138.857-.683.72-1.217-.137-.535-.68-.859-1.217-.721-.245.062-.498.095-.751.095H5c-1.654,0-3-1.346-3-3V7c0-1.654,1.346-3,3-3Z"/>
  <path d="m9.727,6.793c.391.391.391,1.023,0,1.414l-2.179,2.179c-.409.409-.946.613-1.483.613s-1.074-.204-1.483-.613l-1.288-1.289c-.391-.391-.391-1.024,0-1.414.391-.391,1.023-.391,1.414,0l1.288,1.289c.033.033.105.033.139,0l2.179-2.179c.391-.391,1.023-.391,1.414,0h-.001Z"/>
  <path d="m9.727,12.793c.391.391.391,1.023,0,1.414l-2.179,2.179c-.409.409-.946.613-1.483.613s-1.074-.204-1.483-.613l-1.288-1.289c-.391-.391-.391-1.024,0-1.414.391-.391,1.023-.391,1.414,0l1.288,1.289c.033.033.105.033.139,0l2.179-2.179c.391-.391,1.023-.391,1.414,0h-.001Z"/>
</svg>
