<?xml version="1.0" encoding="UTF-8"?>
<svg xmlns="http://www.w3.org/2000/svg" id="Layer_1" data-name="Layer 1" viewBox="0 0 24 24">
  <path d="M20.5,12h-7.5v-2h2c2.206,0,4-1.794,4-4v-2c0-2.206-1.794-4-4-4h-6c-2.206,0-4,1.794-4,4v2c0,2.206,1.794,4,4,4h2v2H1c-.553,0-1,.448-1,1s.447,1,1,1h1v9c0,.553,.447,1,1,1s1-.447,1-1V14H15v6.5c0,1.93,1.57,3.5,3.5,3.5h2c1.93,0,3.5-1.57,3.5-3.5v-5c0-1.93-1.57-3.5-3.5-3.5ZM7,6v-2c0-1.103,.897-2,2-2h6c1.103,0,2,.897,2,2v2c0,1.103-.897,2-2,2h-6c-1.103,0-2-.897-2-2Zm13.5,8c.827,0,1.5,.673,1.5,1.5v1.5h-5v-3h3.5Zm0,8h-2c-.827,0-1.5-.673-1.5-1.5v-1.5h5v1.5c0,.827-.673,1.5-1.5,1.5Z"/>
</svg>
