<?xml version="1.0" encoding="UTF-8"?>
<svg xmlns="http://www.w3.org/2000/svg" id="Layer_1" data-name="Layer 1" viewBox="0 0 24 24">
  <path d="m3,4c1.105,0,2-.895,2-2S4.105,0,3,0,1,.895,1,2s.895,2,2,2Zm7,0c1.105,0,2-.895,2-2s-.895-2-2-2-2,.895-2,2,.895,2,2,2Zm7,0c1.105,0,2-.895,2-2s-.895-2-2-2-2,.895-2,2,.895,2,2,2Zm3,4.155h0c0-1.586-1.163-3.012-2.743-3.144-1.415-.118-2.633.751-3.073,1.989h-1.367c-.413-1.163-1.512-2-2.816-2s-2.403.837-2.816,2h-1.367c-.44-1.238-1.658-2.107-3.073-1.989C1.163,5.143,0,6.569,0,8.155v.903c0,1.215.552,2.365,1.501,3.124l5.499,4.398v4.066c0,.876.495,1.676,1.278,2.068l2.203,1.101c.248.124.514.186.779.186.317,0,.633-.088.915-.263.517-.319.825-.873.825-1.48v-5.678l1.625-1.299c.432-.346.501-.975.156-1.406-.345-.43-.975-.502-1.405-.156l-2,1.6c-.237.19-.375.477-.375.781v5.739l-1.828-.914c-.106-.053-.172-.161-.172-.279v-4.547c0-.304-.138-.591-.375-.781l-5.874-4.699c-.477-.381-.75-.95-.75-1.561v-.059h17.155c.467,0,.845-.378.845-.845Zm1.685,8.112l-3.041-.506c-.373-.062-.644-.382-.644-.761,0-.552.449-1,1-1h2.268c.356,0,.688.191.867.501.277.479.89.644,1.366.364.479-.276.642-.888.365-1.366-.535-.925-1.531-1.499-2.598-1.499h-.268v-1c0-.552-.448-1-1-1s-1,.448-1,1v1c-1.654,0-3,1.346-3,3,0,1.359.974,2.51,2.315,2.733l3.041.506c.373.062.644.382.644.761,0,.552-.449,1-1,1h-2.268c-.356,0-.688-.191-.867-.501-.277-.478-.89-.643-1.366-.364-.479.276-.642.888-.365,1.366.535.925,1.531,1.499,2.598,1.499h.268v1c0,.552.448,1,1,1s1-.448,1-1v-1c1.654,0,3-1.346,3-3,0-1.359-.974-2.51-2.315-2.733Z"/>
</svg>
