<?xml version="1.0" encoding="UTF-8"?>
<svg xmlns="http://www.w3.org/2000/svg" id="Layer_1" data-name="Layer 1" viewBox="0 0 24 24">
  <path d="m8.641,13.528c-.678,1.049-.766,2.16-.254,3.214.385.79,1.109,1.533,2.154,2.208,1.162.75,2.123,1.031,2.91,1.031,1.4,0,2.253-.887,2.71-1.594,1.043-1.614,1.612-6.945,1.769-8.634L23.648,1.564c.312-.456.194-1.078-.262-1.39-.457-.312-1.078-.194-1.391.262l-5.662,8.108c-1.45.707-6.608,3.306-7.693,4.984Zm1.545,2.339c-.144-.295-.239-.675.135-1.253h0c.362-.56,1.866-1.545,3.565-2.514l-3.036,4.578c-.305-.275-.537-.549-.664-.811Zm4.296,1.435c-.239.37-.663.983-1.945.45l2.932-4.421c-.283,1.801-.633,3.424-.987,3.971Zm9.354-2.152c-.706,2.42-1.988,4.604-3.706,6.316-1.617,1.61-3.902,2.534-6.269,2.534h-3.722c-2.366,0-4.651-.923-6.269-2.534-1.718-1.711-2.999-3.896-3.707-6.316-.359-1.234-.125-2.528.643-3.553.343-.457.775-.811,1.254-1.079-.033-.215-.06-.432-.06-.653,0-1.501.767-2.852,2.008-3.629-.005-.08-.008-.159-.008-.238,0-2.349,2.035-4.26,4.436-3.974C9.178.786,10.519,0,12,0s2.822.786,3.564,2.027c.613-.074,1.207.003,1.769.201.521.184.794.755.61,1.276-.185.52-.753.794-1.276.61-.408-.144-.836-.165-1.33.012-.253.09-.533.075-.774-.043-.242-.118-.426-.329-.511-.584-.297-.896-1.121-1.499-2.052-1.499s-1.755.602-2.052,1.499c-.085.255-.269.466-.511.584-.241.118-.522.134-.774.043-.236-.084-.453-.125-.663-.125-1.103,0-2,.897-2,2,0,.153.026.321.084.529.137.495-.124,1.013-.603,1.199-.9.348-1.481,1.188-1.481,2.14,0,.045.01.089.012.134h2.988c.553,0,1,.448,1,1s-.447,1-1,1h-2.998c-.634,0-1.216.291-1.596.798-.388.516-.505,1.169-.323,1.792.604,2.068,1.74,4.007,3.199,5.46,1.245,1.24,3.015,1.951,4.856,1.951h3.722c1.842,0,3.611-.711,4.856-1.951,1.459-1.454,2.595-3.393,3.198-5.46.302-1.034-.246-2.122-1.248-2.476l-.341-.092c-.294-.082-.534-.293-.653-.575-.118-.281-.102-.602.045-.869.188-.341.282-.714.282-1.107,0-.552.447-1.003,1-1.003s1,.445,1,.997c0,.344-.041.685-.12,1.015,1.666.905,2.492,2.833,1.955,4.671Z"/>
</svg>
