<?xml version="1.0" encoding="UTF-8"?>
<svg xmlns="http://www.w3.org/2000/svg" id="Layer_1" data-name="Layer 1" viewBox="0 0 24 24">
  <path d="m19,2h-1v-1c0-.553-.448-1-1-1s-1,.447-1,1v1h-8v-1c0-.553-.448-1-1-1s-1,.447-1,1v1h-1C2.243,2,0,4.243,0,7v12.126c0,2.282,1.542,4.273,3.75,4.843.536.138,1.08-.186,1.218-.72s-.184-1.08-.719-1.218c-1.325-.341-2.25-1.535-2.25-2.905v-9.126h20v9.126c0,1.37-.925,2.564-2.25,2.905-.535.138-.856.684-.719,1.218.116.451.522.751.968.751.083,0,.167-.01.25-.031,2.208-.569,3.75-2.561,3.75-4.843V7c0-2.757-2.243-5-5-5ZM2,8v-1c0-1.654,1.346-3,3-3h14c1.654,0,3,1.346,3,3v1H2Zm12.5,10h-1.5v-1c0-.553-.448-1-1-1s-1,.447-1,1v1h-1.5c-1.378,0-2.5,1.121-2.5,2.5v1c0,1.379,1.122,2.5,2.5,2.5h5c1.378,0,2.5-1.121,2.5-2.5v-1c0-1.379-1.122-2.5-2.5-2.5Zm.5,3.5c0,.275-.224.5-.5.5h-5c-.276,0-.5-.225-.5-.5v-1c0-.275.224-.5.5-.5h5c.276,0,.5.225.5.5v1Zm-3-6.5c-.828,0-1.5-.672-1.5-1.5,0-.777.716-1.96,1.158-2.366.194-.178.489-.178.683,0,.443.406,1.158,1.589,1.158,2.366,0,.828-.672,1.5-1.5,1.5Z"/>
</svg>
