<?xml version="1.0" encoding="UTF-8"?>
<svg xmlns="http://www.w3.org/2000/svg" id="Layer_1" data-name="Layer 1" viewBox="0 0 24 24">
  <path d="M19.4,18c0,.772-.628,1.4-1.4,1.4s-1.4-.628-1.4-1.4,.628-1.4,1.4-1.4,1.4,.628,1.4,1.4Zm4.6,0c0,3.314-2.686,6-6,6s-6-2.686-6-6,2.686-6,6-6,6,2.686,6,6Zm-3.4-1.469l.65-.65c.312-.312,.312-.819,0-1.132-.312-.312-.819-.312-1.131,0l-.65,.65c-.436-.247-.932-.4-1.469-.4s-1.033,.153-1.469,.4l-.65-.65c-.312-.312-.819-.312-1.131,0-.313,.312-.313,.819,0,1.132l.65,.65c-.247,.436-.4,.932-.4,1.469s.153,1.033,.4,1.469l-.65,.65c-.312,.312-.312,.819,0,1.132,.312,.312,.819,.312,1.131,0l.65-.65c.436,.247,.932,.4,1.469,.4s1.033-.153,1.469-.4l.65,.65c.312,.312,.819,.312,1.131,0,.313-.312,.313-.819,0-1.132l-.65-.65c.247-.436,.4-.932,.4-1.469s-.153-1.033-.4-1.469ZM14,7.004V2.538c0-.779,.352-1.505,.963-1.99,.607-.482,1.389-.66,2.139-.481,3.361,.789,6.042,3.469,6.832,6.829,.169,.72,.006,1.46-.446,2.031-.549,.692-1.445,1.074-2.525,1.074h-4.469c-1.241,0-2.493-.926-2.493-2.996Zm2,0c0,.234,.035,.996,.493,.996h4.469c.443,0,.801-.118,.958-.316,.075-.094,.097-.203,.066-.332-.617-2.626-3.486-5.353-5.459-5.353-.15,0-.262,.068-.321,.115-.131,.104-.206,.258-.206,.423V7.004Zm-5,6.996c.553,0,1-.447,1-1V5.251c0-.938-.425-1.809-1.165-2.389-.713-.559-1.62-.756-2.482-.542C3.374,3.552-.138,8.174,.004,13.312c.158,5.7,4.747,10.39,10.446,10.676,.017,0,.034,0,.051,0,.529,0,.971-.415,.998-.95,.027-.552-.397-1.021-.949-1.049-4.585-.229-8.419-4.147-8.546-8.732-.116-4.205,2.756-7.987,6.829-8.994,.358-.087,.638,.071,.769,.175,.25,.195,.398,.5,.398,.814v7.749c0,.553,.447,1,1,1Z"/>
</svg>
