<?xml version="1.0" encoding="UTF-8"?>
<svg xmlns="http://www.w3.org/2000/svg" id="Layer_1" data-name="Layer 1" viewBox="0 0 24 24">
  <path d="m22.083,6.564L15.083,1.08c-1.815-1.422-4.352-1.422-6.167,0L1.917,6.564c-1.218.953-1.917,2.388-1.917,3.936v8.5c0,2.757,2.243,5,5,5h14c2.757,0,5-2.243,5-5v-8.5c0-1.548-.699-2.982-1.917-3.936Zm-.083,12.436c0,1.654-1.346,3-3,3H5c-1.654,0-3-1.346-3-3v-8.5c0-.929.419-1.789,1.15-2.361l7-5.484c.545-.427,1.197-.64,1.85-.64s1.306.213,1.85.64l7,5.484c.731.572,1.15,1.433,1.15,2.361v8.5Zm-11-5v-5c0-.553.448-1,1-1s1,.447,1,1v5c0,.553-.448,1-1,1s-1-.447-1-1Zm5.771-3.604c1.796,2.376,1.569,5.749-.528,7.846-1.133,1.134-2.64,1.758-4.243,1.758s-3.109-.624-4.243-1.758c-2.097-2.097-2.324-5.47-.528-7.846.333-.44.959-.529,1.401-.194.44.333.528.96.195,1.401-1.198,1.583-1.048,3.83.347,5.225,1.512,1.512,4.146,1.512,5.657,0,1.395-1.395,1.544-3.642.347-5.225-.333-.441-.246-1.068.195-1.401.441-.335,1.067-.246,1.401.194Z"/>
</svg>
