<?xml version="1.0" encoding="UTF-8"?>
<svg xmlns="http://www.w3.org/2000/svg" id="Layer_1" data-name="Layer 1" viewBox="0 0 24 24">
  <path d="M20.956,11.024H3.044c-.94,0-1.812,.419-2.393,1.151-.572,.722-.781,1.649-.571,2.545,1.282,5.478,6.184,9.304,11.92,9.304s10.638-3.826,11.92-9.304c.21-.896,0-1.823-.571-2.545-.58-.731-1.452-1.151-2.393-1.151Zm-8.956,2.976c.729,0,1.36-.394,1.71-.976h2.141c-.456,1.708-2.001,2.976-3.851,2.976s-3.395-1.268-3.851-2.976h2.141c.35,.582,.981,.976,1.71,.976Zm9.973,.264c-1.069,4.569-5.17,7.76-9.973,7.76S3.097,18.833,2.027,14.264c-.095-.407,.079-.705,.19-.846,.199-.25,.5-.394,.826-.394h3.05c.488,2.822,2.947,4.976,5.906,4.976s5.418-2.155,5.906-4.976h3.05c.326,0,.627,.144,.826,.394,.111,.142,.285,.439,.19,.846ZM8,6c.351,0,.688-.061,1-.171v.171c0,.551-.448,1-1,1h-1.5c-.553,0-1,.448-1,1s.447,1,1,1h1.5c1.654,0,3-1.346,3-3V2.999c0-1.654-1.347-2.999-3-2.999s-3,1.346-3,3,1.346,3,3,3Zm0-4c.552,0,1,.449,1,1s-.448,1-1,1-1-.449-1-1,.448-1,1-1Zm7,7c1.654,0,3-1.346,3-3V3c0-1.654-1.346-3-3-3s-3,1.346-3,3v3c0,1.654,1.346,3,3,3Zm-1-6c0-.551,.448-1,1-1s1,.449,1,1v3c0,.551-.448,1-1,1s-1-.449-1-1V3Zm5.829,5.091c-.231-.254-.212-.647,.042-.877h0c.254-.231,.647-.212,.877,.042h0c.285,.314,.732,.501,1.197,.501,.446,0,.759-.264,.805-.519,.061-.343-.449-.559-.607-.618-.748-.276-1.422-.577-1.422-.577-.596-.38-.859-.963-.773-1.57,.093-.646,.565-1.172,1.232-1.373,1.31-.395,2.394,.496,2.439,.534l.003,.002c.261,.22,.295,.61,.075,.871l-.005,.005c-.22,.261-.609,.295-.871,.075-.025-.02-.629-.492-1.283-.298-.291,.088-.349,.281-.36,.359-.008,.059-.013,.204,.129,.301,.016,0,.611,.262,1.265,.504,1.216,.449,1.521,1.328,1.4,2.002-.159,.894-1.013,1.543-2.029,1.543-.822,0-1.594-.331-2.118-.909Z"/>
</svg>
