<?xml version="1.0" encoding="UTF-8"?>
<svg xmlns="http://www.w3.org/2000/svg" id="Layer_1" data-name="Layer 1" viewBox="0 0 24 24">
  <path d="M14,12c0,1.105-.895,2-2,2s-2-.895-2-2,.895-2,2-2,2,.895,2,2ZM6.579,7.993l-2.582,.007c-.552,.001-.999,.451-.997,1.003,.001,.551,.449,.997,1,.997h.003l4.008-.011c1.097,0,1.989-.892,1.989-1.989V4c0-.552-.448-1-1-1s-1,.448-1,1l.005,2.591L1.707,.293C1.316-.098,.684-.098,.293,.293S-.098,1.316,.293,1.707L6.579,7.993Zm9.421,2.007h4c.552,0,1-.448,1-1s-.448-1-1-1l-2.592,.006L23.707,1.707c.391-.391,.391-1.023,0-1.414s-1.023-.391-1.414,0l-6.285,6.285-.008-2.581c-.002-.553-.435-.98-1.003-.997-.552,.001-.999,.451-.997,1.003l.012,4.009c0,1.096,.892,1.988,1.988,1.988Zm-7.986,4.012l-4.011-.012h-.003c-.551,0-.999,.446-1,.997-.001,.553,.445,1.001,.997,1.003h2.589L.293,22.293c-.391,.391-.391,1.023,0,1.414,.195,.195,.451,.293,.707,.293s.512-.098,.707-.293l6.293-6.293v2.586c0,.553,.448,1,1,1s1-.447,1-1v-4c0-1.097-.892-1.988-1.986-1.988Zm9.4,1.988h2.586c.552,0,1-.447,1-1s-.448-1-1-1h-4c-1.096,0-1.988,.892-1.988,1.985l-.012,4.012c-.001,.553,.445,1.001,.997,1.003h.003c.551,0,.999-.446,1-.997v-2.589l6.293,6.293c.195,.195,.451,.293,.707,.293s.512-.098,.707-.293c.391-.391,.391-1.023,0-1.414l-6.293-6.293Z"/>
</svg>
