<?xml version="1.0" encoding="UTF-8"?>
<svg xmlns="http://www.w3.org/2000/svg" id="Layer_1" data-name="Layer 1" viewBox="0 0 24 24">
  <path d="m19,2h-1v-1c0-.552-.447-1-1-1s-1,.448-1,1v1h-8v-1c0-.552-.447-1-1-1s-1,.448-1,1v1h-1C2.243,2,0,4.243,0,7v12c0,2.757,2.243,5,5,5h7c.553,0,1-.448,1-1s-.447-1-1-1h-7c-1.654,0-3-1.346-3-3v-9h20v2c0,.552.447,1,1,1s1-.448,1-1v-5c0-2.757-2.243-5-5-5ZM2,8v-1c0-1.654,1.346-3,3-3h14c1.654,0,3,1.346,3,3v1H2Zm17.75,10.336l1.586-1.586.207.207c.195.195.451.293.707.293s.512-.098.707-.293c.391-.391.391-1.023,0-1.414l-4.5-4.5c-.391-.391-1.023-.391-1.414,0s-.391,1.023,0,1.414l.056.056-4.586,4.586-.056-.056c-.391-.391-1.023-.391-1.414,0s-.391,1.023,0,1.414l4.5,4.5c.195.195.451.293.707.293s.512-.098.707-.293c.391-.391.391-1.023,0-1.414l-.207-.207,1.586-1.586,3.957,3.957c.195.195.451.293.707.293s.512-.098.707-.293c.391-.391.391-1.023,0-1.414l-3.957-3.957Zm-5.823.177l4.586-4.586,1.409,1.409-4.586,4.586-1.409-1.409Z"/>
</svg>
