<?xml version="1.0" encoding="UTF-8"?>
<svg xmlns="http://www.w3.org/2000/svg" id="Layer_1" data-name="Layer 1" viewBox="0 0 24 24">
  <path d="m22.634,7.967c1.819-1.82,1.818-4.78,0-6.6-.881-.882-2.053-1.367-3.3-1.367s-2.419.485-3.3,1.367l-2.667,2.666c-1.576,1.577-1.781,4.007-.626,5.812l-.447.447c-.391.391-.391,1.023,0,1.414.195.195.451.293.707.293s.512-.098.707-.293l.448-.448c.744.478,1.606.741,2.512.741,1.247,0,2.419-.485,3.3-1.367l2.667-2.666Zm-6.997,1.81l2.07-2.07c.391-.391.391-1.023,0-1.414s-1.023-.391-1.414,0l-2.079,2.079c-.409-.97-.222-2.135.567-2.924l2.667-2.666c.503-.504,1.173-.781,1.885-.781s1.382.277,1.886.781c1.04,1.039,1.039,2.731,0,3.771l-2.667,2.666c-.76.76-1.945.945-2.915.558ZM2.793,4.207c-.391-.391-.391-1.023,0-1.414s1.023-.391,1.414,0l2,2c.391.391.391,1.023,0,1.414-.195.195-.451.293-.707.293s-.512-.098-.707-.293l-2-2Zm5.207-1.207V1c0-.553.448-1,1-1s1,.447,1,1v2c0,.553-.448,1-1,1s-1-.447-1-1ZM0,9c0-.553.448-1,1-1h2c.552,0,1,.447,1,1s-.448,1-1,1H1c-.552,0-1-.447-1-1Zm21.207,10.793c.391.391.391,1.023,0,1.414-.195.195-.451.293-.707.293s-.512-.098-.707-.293l-2-2c-.391-.391-.391-1.023,0-1.414s1.023-.391,1.414,0l2,2Zm-5.207,1.207v2c0,.553-.448,1-1,1s-1-.447-1-1v-2c0-.553.448-1,1-1s1,.447,1,1Zm8-6c0,.553-.448,1-1,1h-2c-.552,0-1-.447-1-1s.448-1,1-1h2c.552,0,1,.447,1,1Zm-12.293-2.707c-.391-.391-1.023-.391-1.414,0l-.448.448c-.744-.478-1.606-.741-2.512-.741-1.247,0-2.419.485-3.3,1.367l-2.667,2.666c-1.819,1.82-1.818,4.78,0,6.6.881.882,2.053,1.367,3.3,1.367s2.419-.485,3.3-1.367l2.667-2.666c1.576-1.577,1.781-4.007.626-5.812l.447-.447c.391-.391.391-1.023,0-1.414Zm-2.488,6.26l-2.667,2.666c-1.007,1.007-2.763,1.008-3.771,0-1.04-1.039-1.039-2.731,0-3.771l2.667-2.666c.503-.504,1.173-.781,1.885-.781.364,0,.715.074,1.04.212l-2.081,2.081c-.391.391-.391,1.023,0,1.414.195.195.451.293.707.293s.512-.098.707-.293l2.079-2.079c.409.97.222,2.135-.567,2.924Z"/>
</svg>
