<?xml version="1.0" encoding="UTF-8"?>
<svg xmlns="http://www.w3.org/2000/svg" id="Layer_1" data-name="Layer 1" viewBox="0 0 24 24">
  <path d="M20,0c-2.206,0-4,1.794-4,4,0,.067,.017,.13,.02,.196L7.386,6.894c-.707-1.133-1.955-1.894-3.386-1.894C1.794,5,0,6.794,0,9s1.794,4,4,4c.802,0,1.547-.243,2.174-.651l6.31,5.784c-.299,.56-.484,1.189-.484,1.867,0,2.206,1.794,4,4,4s4-1.794,4-4c0-1.513-.854-2.816-2.096-3.496l2.127-8.507c2.191-.017,3.969-1.802,3.969-3.997S22.206,0,20,0ZM4,11c-1.105,0-2-.895-2-2s.895-2,2-2,2,.895,2,2-.895,2-2,2Zm14,9c0,1.105-.895,2-2,2s-2-.895-2-2,.895-2,2-2,2,.895,2,2Zm-2.031-3.997c-.79,.006-1.524,.245-2.143,.647l-6.31-5.784c.299-.56,.484-1.189,.484-1.867,0-.067-.017-.13-.02-.196l8.634-2.698c.365,.584,.876,1.058,1.482,1.39l-2.126,8.508Zm4.031-10.003c-1.105,0-2-.895-2-2s.895-2,2-2,2,.895,2,2-.895,2-2,2Z"/>
</svg>
