<?xml version="1.0" encoding="UTF-8"?>
<svg xmlns="http://www.w3.org/2000/svg" id="Layer_1" data-name="Layer 1" viewBox="0 0 24 24">
  <path d="m11.131,12.207c-.555.543-1.282.814-2.009.814-.732,0-1.464-.275-2.02-.825l-1.78-1.76c-.393-.388-.396-1.021-.008-1.414.388-.393,1.02-.396,1.414-.008l1.78,1.76c.336.332.884.335,1.224.003l3.568-3.492c.395-.387,1.027-.378,1.414.016.386.395.379,1.028-.016,1.414l-3.568,3.492Zm12.869,4.793v4c0,1.654-1.346,3-3,3h-6.379c-1.9,0-3.551-1.353-3.923-3.216l-.639-3.196c-.177-.884.05-1.792.622-2.49.571-.697,1.417-1.098,2.319-1.098h3.183l-.58-3.265c-.057-.334-.029-.519-.007-.599.188-.69.75-1.136,1.432-1.136.213,0,.428.044.64.132.254.105.503.367.682.719l2.193,4.149h.456c1.654,0,3,1.346,3,3Zm-9.379,5h5.379v-6h-6.999c-.301,0-.582.133-.772.365-.191.233-.267.536-.208.83l.639,3.196c.187.932,1.012,1.608,1.962,1.608Zm-6.844-4.312c-3.401-.982-5.777-4.144-5.777-7.688C2,5.589,5.589,2,10,2c3.06,0,5.807,1.703,7.169,4.445.245.495.844.698,1.341.451.494-.246.696-.846.45-1.34C17.257,2.128,13.824,0,10,0,4.486,0,0,4.486,0,10c0,4.43,2.97,8.381,7.223,9.609.093.026.186.039.277.039.435,0,.834-.284.961-.723.153-.53-.153-1.085-.684-1.238Z"/>
</svg>
