<?xml version="1.0" encoding="UTF-8"?>
<svg xmlns="http://www.w3.org/2000/svg" id="Layer_1" data-name="Layer 1" viewBox="0 0 24 24">
  <path d="m24,14v5c0,2.757-2.243,5-5,5H5c-2.757,0-5-2.243-5-5v-11C0,5.243,2.243,3,5,3h4c.552,0,1,.447,1,1s-.448,1-1,1h-4c-1.119,0-2.086.623-2.601,1.534l7.587,7.587c1.134,1.133,3.109,1.133,4.243,0l.329-.329c.391-.389,1.023-.39,1.414,0,.39.392.39,1.024,0,1.415l-.329.328c-.944.943-2.199,1.464-3.535,1.464s-2.591-.521-3.535-1.465l-6.571-6.571v10.036c0,1.654,1.346,3,3,3h14c1.654,0,3-1.346,3-3v-5c0-.553.448-1,1-1s1,.447,1,1ZM12,6c0-3.309,2.691-6,6-6s6,2.691,6,6-2.691,6-6,6-6-2.691-6-6Zm2,0c0,2.206,1.794,4,4,4s4-1.794,4-4-1.794-4-4-4-4,1.794-4,4Zm4.293,1.707c.195.195.451.293.707.293s.512-.098.707-.293c.391-.391.391-1.023,0-1.414l-.707-.707v-1.586c0-.553-.448-1-1-1s-1,.447-1,1v2c0,.266.105.52.293.707l1,1Z"/>
</svg>
