<?xml version="1.0" encoding="UTF-8"?>
<svg xmlns="http://www.w3.org/2000/svg" id="Layer_1" data-name="Layer 1" viewBox="0 0 24 24">
  <path d="m17,21v2c0,.552-.448,1-1,1s-1-.448-1-1v-2c0-.552.448-1,1-1s1,.448,1,1ZM7,10c-1.654,0-3-1.346-3-3,0-.552-.448-1-1-1s-1,.448-1,1c0,2.415,1.721,4.435,4,4.899v11.101c0,.552.448,1,1,1s1-.448,1-1v-12c0-.552-.448-1-1-1Zm16.707,13.707c-.195.195-.451.293-.707.293s-.512-.098-.707-.293L.293,1.707C-.098,1.316-.098.684.293.293S1.316-.098,1.707.293l.363.363c.141-.381.5-.656.93-.656.552,0,1,.448,1,1v1.586l2,2V1c0-.552.448-1,1-1s1,.448,1,1c0,0-.013,5.547-.014,5.571l1.713,1.713c.19-.399.302-.834.302-1.284V1c0-.552.448-1,1-1s1,.448,1,1v6c0,.986-.302,1.934-.839,2.747l3.839,3.839V2c0-.796.434-1.479,1.131-1.783.771-.335,1.695-.156,2.356.458,1.692,1.57,3.513,5.158,3.513,9.325,0,3.427-1.486,6.016-2.884,7.702l4.591,4.591c.391.391.391,1.023,0,1.414Zm-6.009-7.423c1.139-1.42,2.302-3.542,2.302-6.284,0-3.81-1.718-6.787-2.873-7.859-.046-.043-.09-.066-.125-.079l-.002,13.438c0,.025.698.784.698.784Z"/>
</svg>
