<?xml version="1.0" encoding="UTF-8"?>
<svg xmlns="http://www.w3.org/2000/svg" id="Layer_1" data-name="Layer 1" viewBox="0 0 24 24">
  <path d="M23,22h-1v-7.5c0-.553-.448-1-1-1s-1,.447-1,1v7.5h-2v-6c0-.553-.448-1-1-1s-1,.447-1,1v6H8c-.877,0-1.708-.191-2.46-.531,.016-.184,.277-1.586,.364-2.051,.674-2.573,2.528-6.332,7.597-7.86,.134,.061,.269,.123,.399,.181,.65,.29,1.265,.564,1.778,.882,.409,.254,.868,.381,1.327,.381s.917-.127,1.326-.381c.514-.318,1.128-.592,1.778-.882,1.733-.773,3.89-1.736,3.89-3.973,0-.976-.377-2.008-.993-2.964l.006-2.708c0-.808-.452-1.528-1.179-1.88-.727-.353-1.573-.26-2.206,.24l-1.055,.822c-.526-.171-1.054-.274-1.568-.274s-1.043,.103-1.57,.275l-1.051-.823c-.633-.5-1.479-.593-2.206-.24-.727,.352-1.179,1.073-1.179,1.88v2.714c-.614,.955-.989,1.985-.989,2.959,0,1.094,.519,1.88,1.249,2.491-1.997,.878-3.489,2.084-4.588,3.403,.251-2.891,.32-5.604,.334-7.633,0-.009,0-1.944-.005-2.539-.018-1.922-1.588-3.487-3.5-3.487S.036,1.546,0,3.459c0,.012,0,.023,0,.035v12.506c0,4.411,3.589,8,8,8h15c.552,0,1-.447,1-1s-.448-1-1-1Zm-1.143-15.055c-1.009-.519-2.453-.945-3.358-.945-.828,0-1.499,.671-1.499,1.499s.671,1.499,1.499,1.499c.467,0,1.839-.054,2.946-.25-.463,.384-1.195,.737-2.151,1.163-.467,.208-.936,.432-1.393,.671-.159-.342-.5-.582-.902-.582s-.739,.239-.899,.578c-.454-.237-.921-.459-1.385-.666-.952-.425-1.682-.776-2.146-1.159,1.105,.194,2.466,.249,2.931,.249,.828,0,1.499-.671,1.499-1.499s-.671-1.498-1.499-1.499c-.9-.002-2.336,.42-3.344,.936,.608-1.859,3.026-3.939,4.849-3.939s4.247,2.084,4.851,3.945ZM4.905,10H2v-3h2.995c-.014,.911-.042,1.922-.09,3Zm-2.905,2h2.793c-.066,.978-.151,1.984-.262,3H2v-3ZM3.5,2c.833,0,1.492,.661,1.5,1.505,.004,.39,.008,.903,.009,1.495H2v-1.475c0-.855,.659-1.525,1.5-1.525Zm-1.41,15h2.189c-.125,.873-.272,1.738-.443,2.584-.011,.048-.089,.454-.124,.61-.837-.856-1.414-1.963-1.622-3.193Z"/>
</svg>
