<?xml version="1.0" encoding="UTF-8"?>
<svg xmlns="http://www.w3.org/2000/svg" id="Layer_1" data-name="Layer 1" viewBox="0 0 24 24">
  <path d="m9.691,20.777c.399.382.413,1.016.031,1.414-.196.205-.459.309-.722.309-.249,0-.498-.092-.691-.277l-5.364-5.136c-3.915-3.915-3.915-10.259-.016-14.158C4.818,1.04,7.329,0,10,0s5.182,1.04,7.071,2.929c2.16,2.16,3.205,5.143,2.867,8.182-.061.549-.547.938-1.104.884-.549-.062-.944-.556-.883-1.104.27-2.433-.566-4.818-2.294-6.547-1.511-1.511-3.52-2.343-5.657-2.343s-4.146.832-5.657,2.343c-3.119,3.119-3.119,8.195,0,11.314l5.349,5.12Zm.309-6.777c-2.206,0-4-1.794-4-4s1.794-4,4-4,4,1.794,4,4-1.794,4-4,4Zm2-4c0-1.103-.897-2-2-2s-2,.897-2,2,.897,2,2,2,2-.897,2-2Zm12,7v4c0,1.654-1.346,3-3,3h-6c-1.654,0-3-1.346-3-3v-4c0-1.654,1.346-3,3-3h6c1.654,0,3,1.346,3,3Zm-8.414-1l1.707,1.707c.378.379,1.037.379,1.414,0l1.707-1.707h-4.828Zm6.414,5v-3.758l-1.879,1.879c-.566.566-1.319.879-2.121.879s-1.555-.312-2.122-.879l-1.878-1.879v3.758c0,.552.449,1,1,1h6c.551,0,1-.448,1-1Z"/>
</svg>
