<?xml version="1.0" encoding="UTF-8"?>
<svg xmlns="http://www.w3.org/2000/svg" id="Layer_1" data-name="Layer 1" viewBox="0 0 24 24">
  <path d="m12.5,5h-4c-1.378,0-2.5,1.121-2.5,2.5l.002,6.209c0,.463.381.791.792.791.142,0,.288-.039.424-.126l1.697-1.374h.086v1.5c0,1.379,1.122,2.5,2.5,2.5h2.969l2.314,1.874c.135.086.281.126.424.126.411,0,.791-.327.792-.791l.002-6.709c0-1.379-1.122-2.5-2.5-2.5h-.5v-1.5c0-1.379-1.122-2.5-2.5-2.5Zm-4.5,2.5c0-.275.224-.5.5-.5h4c.276,0,.5.225.5.5v1.5h-1.5c-1.207,0-2.217.86-2.449,2h-1.051v-3.5Zm8,4v3.5h-4.5c-.276,0-.5-.225-.5-.5v-3c0-.275.224-.5.5-.5h4c.276,0,.5.225.5.5Zm8,.5c0,6.617-5.383,12-12,12-4.055,0-7.795-2.059-9.996-5.37l-.004,1.37c0,.553-.448,1-1,1s-1-.447-1-1v-2.991c0-1.107.901-2.009,2.008-2.009h2.992c.552,0,1,.447,1,1s-.448,1-1,1h-1.637c1.776,3.06,5.052,5,8.637,5,5.514,0,10-4.486,10-10,0-.553.448-1,1-1s1,.447,1,1Zm0-8v2.991c0,1.107-.901,2.009-2.008,2.009h-2.992c-.552,0-1-.447-1-1s.448-1,1-1h1.665c-1.765-3.079-5.025-5-8.665-5C6.486,2,2,6.486,2,12c0,.553-.448,1-1,1s-1-.447-1-1C0,5.383,5.383,0,12,0c4.107,0,7.807,2.041,9.996,5.356l.004-1.356c0-.553.448-1,1-1s1,.447,1,1Z"/>
</svg>
