<?xml version="1.0" encoding="UTF-8"?>
<svg xmlns="http://www.w3.org/2000/svg" id="Layer_1" data-name="Layer 1" viewBox="0 0 24 24">
  <path d="m14.204,12.795l-.028.028c-.255.254-.646.292-.956.109-.75-.442-1.69-.442-2.439,0-.31.183-.702.145-.956-.109l-.028-.028c-.356-.356-.295-.96.136-1.22,1.267-.765,2.87-.765,4.136,0,.431.26.492.864.136,1.22Zm-2.204.955c-.69,0-1.25.56-1.25,1.25s.56,1.25,1.25,1.25,1.25-.56,1.25-1.25-.56-1.25-1.25-1.25Zm0-5.25c-1.427,0-2.783.457-3.902,1.301-.39.294-.434.864-.088,1.209.281.28.726.315,1.042.076.845-.639,1.87-.985,2.948-.985s2.103.346,2.948.985c.316.239.762.204,1.042-.076.346-.345.302-.915-.088-1.209-1.119-.844-2.476-1.301-3.903-1.301Zm11,10.25c0,2.344-1.907,4.25-4.25,4.25-1.787,0-3.33-1.137-3.949-2.734-.878.308-1.818.484-2.801.484-.628,0-1.238-.073-1.828-.203-.749,2.054-2.689,3.453-4.918,3.453-2.897,0-5.254-2.356-5.254-5.254,0-2.3,1.461-4.291,3.641-4.994-.088-.488-.141-.989-.141-1.502,0-1.361.329-2.644.901-3.785-1.902-.179-3.401-1.766-3.401-3.715,0-2.068,1.682-3.75,3.75-3.75,1.99,0,3.608,1.563,3.727,3.524,1.075-.492,2.265-.774,3.523-.774,1.314,0,2.554.308,3.666.843-.013-.135-.041-.267-.041-.405,0-2.309,1.878-4.188,4.188-4.188s4.188,1.878,4.188,4.188-1.878,4.188-4.188,4.188c-.092,0-.179-.021-.269-.027.608,1.17.957,2.495.957,3.902,0,.869-.132,1.707-.375,2.497,1.672.579,2.875,2.162,2.875,4.003Zm-5.375-14.562c0,1.206.981,2.188,2.188,2.188s2.188-.981,2.188-2.188-.981-2.188-2.188-2.188-2.188.981-2.188,2.188Zm-12.875,2.312c.965,0,1.75-.785,1.75-1.75s-.785-1.75-1.75-1.75-1.75.785-1.75,1.75.785,1.75,1.75,1.75Zm3.542,13.387c-1.806-.881-3.257-2.377-4.07-4.221-1.312.441-2.222,1.69-2.222,3.081,0,1.794,1.459,3.254,3.254,3.254,1.372,0,2.568-.855,3.038-2.113Zm3.708-1.137c3.584,0,6.5-2.916,6.5-6.5s-2.916-6.5-6.5-6.5-6.5,2.916-6.5,6.5,2.916,6.5,6.5,6.5Zm9,0c0-1.038-.719-1.928-1.695-2.177-.674,1.135-1.602,2.101-2.709,2.816.279.932,1.146,1.611,2.154,1.611,1.241,0,2.25-1.01,2.25-2.25Z"/>
</svg>
