<?xml version="1.0" encoding="UTF-8"?>
<svg xmlns="http://www.w3.org/2000/svg" id="Layer_1" data-name="Layer 1" viewBox="0 0 24 24">
  <path d="M20,15.051v-1.551c0-.828-.672-1.5-1.5-1.5h-1c-.828,0-1.5,.672-1.5,1.5v1.5h-2v-1.5c0-.828-.672-1.5-1.5-1.5h-1c-.828,0-1.5,.672-1.5,1.5v1.5h-2v-1.5c0-.828-.672-1.5-1.5-1.5h-1c-.828,0-1.5,.672-1.5,1.5v1.551c-2.244,.252-4,2.139-4,4.449,0,2.481,2.019,4.5,4.5,4.5h15c2.481,0,4.5-2.019,4.5-4.5,0-2.31-1.756-4.197-4-4.449Zm-.5,6.949H4.5c-1.378,0-2.5-1.122-2.5-2.5s1.122-2.5,2.5-2.5h15c1.378,0,2.5,1.122,2.5,2.5s-1.122,2.5-2.5,2.5Zm-13.5-2.5c0,.828-.672,1.5-1.5,1.5s-1.5-.672-1.5-1.5,.672-1.5,1.5-1.5,1.5,.672,1.5,1.5Zm15,0c0,.828-.672,1.5-1.5,1.5s-1.5-.672-1.5-1.5,.672-1.5,1.5-1.5,1.5,.672,1.5,1.5Zm-7.5,0c0,.828-.672,1.5-1.5,1.5s-1.5-.672-1.5-1.5,.672-1.5,1.5-1.5,1.5,.672,1.5,1.5ZM0,1C0,.448,.448,0,1,0H23c.552,0,1,.448,1,1s-.448,1-1,1H6.076c.154,.487,.544,.875,1.06,1.003l8.071,2.018c1.556,.109,2.793,1.396,2.793,2.979v1c0,.552-.448,1-1,1s-1-.448-1-1v-1c0-.551-.449-1-1-1s-1,.449-1,1v1c0,.552-.448,1-1,1s-1-.448-1-1v-1c0-.59,.177-1.137,.472-1.601l-5.821-1.455c-1.411-.353-2.43-1.532-2.613-2.944H1c-.552,0-1-.448-1-1Z"/>
</svg>
