<?xml version="1.0" encoding="UTF-8"?>
<svg xmlns="http://www.w3.org/2000/svg" id="Layer_1" data-name="Layer 1" viewBox="0 0 24 24">
  <path d="m19.316,11.552c-.527-.176-1.007-.341-1.467-.501.692-2.367,1.114-4.476,1.35-5.879.114-.679.692-1.172,1.375-1.172,1.382,0,2.614-.826,3.139-2.105l.211-.516c.209-.511-.035-1.095-.546-1.304-.509-.212-1.095.034-1.305.546l-.211.515c-.215.525-.721.864-1.288.864-1.663,0-3.07,1.194-3.348,2.84-.223,1.325-.618,3.306-1.263,5.533-1.104-.41-1.982-.759-2.706-1.048-2.28-.91-3.321-1.325-5.759-1.325-.793,0-1.557.126-2.276.355l-.915-3.355h1.691c.552,0,1-.447,1-1s-.448-1-1-1H1c-.552,0-1,.447-1,1s.448,1,1,1h1.236l1.154,4.233c-2.04,1.342-3.391,3.648-3.391,6.267,0,2.872,1.624,5.369,4,6.628v.872c0,.553.448,1,1,1s1-.447,1-1v-.151c.485.099.986.151,1.5.151h10.5c0,.553.448,1,1,1s1-.447,1-1v-.283c2.322-.713,4-2.705,4-5.05,0-2.856-1.514-4.85-4.684-6.115Zm-1.191,9.448H7.5c-3.033,0-5.5-2.468-5.5-5.5s2.467-5.5,5.5-5.5c2.054,0,2.801.298,5.018,1.183,1.359.542,3.22,1.284,6.11,2.246,2.971,1.188,3.372,2.81,3.372,4.238,0,1.994-2.003,3.333-3.875,3.333Zm-5.125-6.5h-2.163c-.434-1.441-1.757-2.5-3.337-2.5-1.93,0-3.5,1.57-3.5,3.5s1.57,3.5,3.5,3.5c1.58,0,2.903-1.059,3.337-2.5h2.163c.552,0,1-.447,1-1s-.448-1-1-1Zm-5.5,2.5c-.827,0-1.5-.673-1.5-1.5s.673-1.5,1.5-1.5,1.5.673,1.5,1.5-.673,1.5-1.5,1.5Z"/>
</svg>
