<?xml version="1.0" encoding="UTF-8"?>
<svg xmlns="http://www.w3.org/2000/svg" id="Layer_1" data-name="Layer 1" viewBox="0 0 24 24">
  <path d="m5,10c-1.654,0-3,1.346-3,3,0,.553-.448,1-1,1s-1-.447-1-1c0-2.757,2.243-5,5-5s5,2.243,5,5c0,.553-.448,1-1,1s-1-.447-1-1c0-1.654-1.346-3-3-3ZM1.5,3.5C1.5,1.57,3.07,0,5,0s3.5,1.57,3.5,3.5-1.57,3.5-3.5,3.5-3.5-1.57-3.5-3.5Zm2,0c0,.827.673,1.5,1.5,1.5s1.5-.673,1.5-1.5-.673-1.5-1.5-1.5-1.5.673-1.5,1.5Zm15.5,4.5c-2.757,0-5,2.243-5,5,0,.553.448,1,1,1s1-.447,1-1c0-1.654,1.346-3,3-3s3,1.346,3,3c0,.553.448,1,1,1s1-.447,1-1c0-2.757-2.243-5-5-5Zm-3.5-4.5c0-1.93,1.57-3.5,3.5-3.5s3.5,1.57,3.5,3.5-1.57,3.5-3.5,3.5-3.5-1.57-3.5-3.5Zm2,0c0,.827.673,1.5,1.5,1.5s1.5-.673,1.5-1.5-.673-1.5-1.5-1.5-1.5.673-1.5,1.5Zm2.851,12.048c-.73-.728-1.919-.729-2.625-.023l-2.407,2.244c-.404.377-.426,1.01-.049,1.413.197.212.464.318.731.318.245,0,.489-.089.682-.269l1.318-1.229v1.998c0,1.103-.897,2-2,2h-8c-1.103,0-2-.897-2-2v-4c0-.553-.448-1-1-1s-1,.447-1,1v4c0,2.206,1.794,4,4,4h8c2.206,0,4-1.794,4-4v-2.024l1.31,1.248c.401.381,1.033.368,1.414-.034.381-.399.366-1.032-.034-1.413l-2.339-2.229Z"/>
</svg>
