<?xml version="1.0" encoding="UTF-8"?>
<svg xmlns="http://www.w3.org/2000/svg" id="Layer_1" data-name="Layer 1" viewBox="0 0 24 24">
  <path d="M24,10c-.039-2.172-1.885-4-4.144-4-.4,0-.802,.053-1.201,.148,.21-.576,.344-1.186,.344-1.847,0-2.371-1.794-4.3-3.999-4.3-1.133,0-2.198,.51-2.996,1.464-.763-.933-1.849-1.464-3.004-1.464-2.206,0-4.001,1.929-4.001,4.3,0,.662,.134,1.272,.345,1.848-.4-.095-.802-.148-1.203-.148C1.857,6,0,7.795,0,10.001c0,1.154,.513,2.238,1.413,2.999-.9,.763-1.413,1.847-1.413,3.001,0,2.205,1.857,3.999,4.142,3.999,2.526,0,5.089-2.062,6.773-3.758,.129,2.388,1.178,5.631,4.581,7.622,.158,.093,.332,.137,.504,.137,.344,0,.678-.177,.864-.495,.278-.477,.118-1.089-.358-1.368-3.035-1.776-3.564-4.604-3.596-6.221,1.773,1.735,4.604,4.084,6.948,4.084,2.285,0,4.144-1.794,4.144-3.999,0-1.154-.514-2.239-1.415-3.001,.901-.761,1.415-1.846,1.415-3ZM4.142,18c-1.181,0-2.142-.897-2.142-2,0-.572,.267-1.115,.734-1.497,.374-.248,.766-.763,.766-1.503s-.392-1.255-.767-1.502c-.467-.382-.733-.925-.733-1.499,0-1.102,.961-1.999,2.142-1.999,2.38,0,5.502,3.146,6.981,5-1.165,1.49-4.449,5-6.981,5Zm6.611-8.488c-1.846-1.574-3.753-3.202-3.753-5.212,0-1.269,.897-2.3,2.001-2.3,.577,0,1.129,.293,1.466,.735,.232,.37,.757,.765,1.533,.765s1.3-.394,1.485-.694c.386-.512,.938-.806,1.516-.806,1.103,0,1.999,1.032,1.999,2.3,0,2.01-1.907,3.638-3.753,5.212-.435,.372-.855,.73-1.247,1.09-.392-.36-.812-.719-1.247-1.09Zm9.104,8.488c-1.904,0-5.226-3.011-6.973-5.007,1.417-1.792,4.572-4.993,6.973-4.993,1.181,0,2.143,.947,2.143,2.049-.015,.554-.28,1.077-.734,1.448-.373,.248-.765,.762-.765,1.503s.392,1.256,.765,1.503c.468,.383,.735,.926,.735,1.498,0,1.103-.962,1.999-2.144,1.999Z"/>
</svg>
