<?xml version="1.0" encoding="UTF-8"?>
<svg xmlns="http://www.w3.org/2000/svg" id="Layer_1" data-name="Layer 1" viewBox="0 0 24 24">
  <path d="m24,12c0,.552-.448,1-1,1h-.551c-.474,4.992-4.457,8.975-9.449,9.449v.551c0,.552-.448,1-1,1s-1-.448-1-1v-.551c-4.992-.474-8.975-4.457-9.449-9.449h-.551c-.552,0-1-.448-1-1s.448-1,1-1h.556c.264-2.786,1.615-5.349,3.813-7.141.428-.348,1.058-.286,1.407.143.349.428.285,1.058-.143,1.407-1.729,1.41-2.815,3.409-3.071,5.591h1.439c.552,0,1,.448,1,1s-.448,1-1,1h-1.436c.458,3.888,3.548,6.977,7.436,7.436v-1.436c0-.552.448-1,1-1s1,.448,1,1v1.436c3.888-.458,6.977-3.548,7.436-7.436h-1.436c-.552,0-1-.448-1-1s.448-1,1-1h1.439c-.256-2.182-1.342-4.18-3.071-5.591-.428-.349-.492-.979-.143-1.407.349-.429.98-.491,1.407-.143,2.198,1.792,3.549,4.354,3.813,7.141h.556c.552,0,1,.448,1,1Zm-16.409-2.697c-.656-.714-.775-1.765-.298-2.613l2.644-5.427C10.386.456,11.146.003,11.997,0c.857.003,1.618.456,2.041,1.212l2.686,5.506c.458.843.334,1.878-.314,2.584-.634.69-1.591.886-2.437.503l-1.973-.896-1.973.896c-.287.13-.587.194-.883.194-.576,0-1.135-.241-1.554-.697Zm1.474-1.352c.061.066.099.05.136.034l2.386-1.084c.263-.119.564-.119.827,0l2.386,1.084c.037.017.075.033.136-.034.043-.047.104-.146.028-.281-.01-.017-2.698-5.531-2.698-5.531-.061-.105-.182-.138-.269-.139-.08,0-.201.033-.288.189l-2.645,5.429c-.103.187-.042.286,0,.333Z"/>
</svg>
