<?xml version="1.0" encoding="UTF-8"?>
<svg xmlns="http://www.w3.org/2000/svg" id="Layer_1" data-name="Layer 1" viewBox="0 0 24 24">
  <path d="M12,24c-.77,0-1.541-.073-2.291-.218-.542-.105-.897-.629-.792-1.171,.104-.542,.625-.895,1.171-.792,.625,.121,1.269,.182,1.912,.182,5.514,0,10-4.486,10-10S17.514,2,12,2c-.681,0-1.362,.069-2.023,.205-.543,.112-1.07-.237-1.181-.778-.111-.541,.237-1.07,.778-1.181,.794-.163,1.61-.246,2.426-.246,6.617,0,12,5.383,12,12s-5.383,12-12,12Zm-1.571-17.349l-3.137,3.143c-.39,.391-.389,1.024,.001,1.415,.392,.391,1.025,.389,1.415-.001l2.292-2.297v8.09c0,.552,.448,1,1,1s1-.448,1-1V8.91l2.292,2.297c.391,.391,1.023,.391,1.414,.001,.392-.39,.392-1.023,.002-1.415l-3.136-3.142c-.431-.429-.994-.645-1.558-.648-.005,0-.009-.003-.014-.003-.005,0-.009,.003-.013,.003-.565,.003-1.128,.218-1.558,.648ZM6.25,3.818c.452-.318,.56-.942,.242-1.394-.195-.276-.504-.424-.819-.424-.199,0-.399,.059-.575,.182-.671,.473-1.297,1.017-1.859,1.617-.378,.403-.357,1.036,.046,1.413,.403,.378,1.036,.358,1.413-.046,.469-.5,.991-.954,1.551-1.348Zm-3.55,4.5c.204-.513-.047-1.095-.561-1.298-.121-.048-.246-.071-.368-.071-.398,0-.774,.239-.93,.632-.285,.717-.5,1.467-.641,2.229-.1,.543,.259,1.065,.802,1.165,.544,.103,1.065-.259,1.165-.802,.117-.634,.296-1.258,.533-1.855Zm3.792,13.258c.318-.452,.209-1.076-.242-1.394-.56-.394-1.082-.848-1.551-1.348-.197-.21-.463-.316-.729-.316-.245,0-.491,.089-.684,.271-.403,.377-.424,1.01-.046,1.413,.562,.6,1.188,1.144,1.859,1.617,.453,.318,1.076,.209,1.394-.242Zm-3.792-5.894c-.237-.597-.416-1.221-.533-1.855-.089-.481-.509-.818-.982-.818-.06,0-.121,.005-.183,.017-.543,.1-.902,.622-.802,1.165,.141,.762,.356,1.512,.641,2.229,.203,.514,.782,.766,1.298,.561,.514-.204,.765-.785,.561-1.298Z"/>
</svg>
