<?xml version="1.0" encoding="UTF-8"?>
<svg xmlns="http://www.w3.org/2000/svg" id="Layer_1" data-name="Layer 1" viewBox="0 0 24 24">
  <path d="m23.942,21.333c-.546,1.545-2.204,2.667-3.942,2.667-1.859,0-3.411-1.28-3.858-3h-.142c-.553,0-1-.448-1-1s.447-1,1-1v-1c-.553,0-1-.448-1-1s.447-1,1-1h.142c.447-1.72,1.999-3,3.858-3,1.738,0,3.396,1.122,3.942,2.667.185.521-.088,1.092-.609,1.276-.519.187-1.093-.089-1.275-.609-.265-.748-1.169-1.333-2.058-1.333-.737,0-1.375.405-1.722,1h.722c.553,0,1,.448,1,1s-.447,1-1,1h-1v1h1c.553,0,1,.448,1,1s-.447,1-1,1h-.722c.347.595.985,1,1.722,1,.889,0,1.793-.586,2.058-1.333.183-.52.757-.793,1.275-.609.521.184.794.756.609,1.276ZM7,9c-.553,0-1,.448-1,1v13c0,.552.447,1,1,1s1-.448,1-1v-13c0-.552-.447-1-1-1Zm-5,3c-.553,0-1,.448-1,1v10c0,.552.447,1,1,1s1-.448,1-1v-10c0-.552-.447-1-1-1Zm10-6c-.553,0-1,.448-1,1v16c0,.552.447,1,1,1s1-.448,1-1V7c0-.552-.447-1-1-1Zm10,5c.553,0,1-.448,1-1V1c0-.552-.447-1-1-1s-1,.448-1,1v9c0,.552.447,1,1,1Zm-5,1c.553,0,1-.448,1-1v-7c0-.552-.447-1-1-1s-1,.448-1,1v7c0,.552.447,1,1,1Z"/>
</svg>
