<?xml version="1.0" encoding="UTF-8"?>
<svg xmlns="http://www.w3.org/2000/svg" id="Layer_1" data-name="Layer 1" viewBox="0 0 24 24">
  <path d="m21,16.142v-7.142C21,4.037,16.962,0,12,0c-3.309,0-6,2.691-6,6s2.691,6,6,6c1.906,0,3.655-.875,4.8-2.399.332-.441.242-1.068-.199-1.4-.442-.331-1.068-.242-1.4.199-.764,1.018-1.93,1.601-3.201,1.601-2.206,0-4-1.794-4-4s1.794-4,4-4c3.86,0,7,3.141,7,7v7.142c-1.72.447-3,1.999-3,3.858v1.5c0,1.379,1.122,2.5,2.5,2.5h3c1.378,0,2.5-1.121,2.5-2.5v-1.5c0-1.859-1.28-3.411-3-3.858Zm1,5.358c0,.275-.224.5-.5.5h-3c-.276,0-.5-.225-.5-.5v-1.5c0-1.103.897-2,2-2s2,.897,2,2v1.5Zm-17-5.358v-7.142c0-.553-.448-1-1-1s-1,.447-1,1v7.142c-1.72.447-3,1.999-3,3.858v1.5c0,1.379,1.122,2.5,2.5,2.5h3c1.378,0,2.5-1.121,2.5-2.5v-1.5c0-1.859-1.28-3.411-3-3.858Zm1,5.358c0,.275-.224.5-.5.5h-3c-.276,0-.5-.225-.5-.5v-1.5c0-1.103.897-2,2-2s2,.897,2,2v1.5Z"/>
</svg>
