<?xml version="1.0" encoding="UTF-8"?>
<svg xmlns="http://www.w3.org/2000/svg" id="Layer_1" data-name="Layer 1" viewBox="0 0 24 24">
  <path d="M17,10c-3.859,0-7,3.14-7,7s3.141,7,7,7,7-3.14,7-7-3.141-7-7-7Zm0,12c-2.757,0-5-2.243-5-5s2.243-5,5-5,5,2.243,5,5-2.243,5-5,5Zm-8-3.078v4.078c0,.552-.447,1-1,1s-1-.448-1-1v-4.078c-3.417-.478-6-3.458-6-6.922v-4c-.553,0-1-.448-1-1s.447-1,1-1h3V1c0-.552,.447-1,1-1s1,.448,1,1V6h5V1c0-.552,.447-1,1-1s1,.448,1,1V6h3c.553,0,1,.448,1,1s-.447,1-1,1H3v4c0,2.475,1.844,4.603,4.289,4.95,.976,.14,1.711,.987,1.711,1.972Zm10.309-2.074c.28,.522,.25,1.151-.077,1.645h0s-1.44,2.145-1.44,2.145c-.311,.45-.926,.566-1.379,.261-.462-.311-.58-.941-.262-1.398l1-1.498h-1.007c-.509,0-.994-.244-1.297-.652-.303-.409-.462-.969-.249-1.431,.314-.68,.922-1.636,1.551-2.55,.315-.457,.937-.576,1.399-.268,.463,.309,.591,.933,.287,1.4l-.94,1.502h1.001c.592,0,1.133,.324,1.413,.846Z"/>
</svg>
