<?xml version="1.0" encoding="UTF-8"?>
<svg xmlns="http://www.w3.org/2000/svg" id="Layer_1" data-name="Layer 1" viewBox="0 0 24 24">
  <path d="m8.092,2.5c0-1.381,1.119-2.5,2.5-2.5s2.5,1.119,2.5,2.5-1.119,2.5-2.5,2.5-2.5-1.119-2.5-2.5Zm15.53,8.33c-.375-.52-.981-.83-1.622-.83h-3c-.553,0-1,.447-1,1s.447,1,1,1l3.01-.03-2.982,8.07c-.433,1.173-1.563,1.96-2.813,1.96h-5.214v-4.429c0-.705-.377-1.365-.984-1.723l-3.549-2.091c-.411-.261-.576-.775-.391-1.225l1.859-4.533h.16c.576,0,1.115.25,1.515.702l-1.195,2.919c-.209.511.035,1.095.546,1.305.124.051.252.074.378.074.394,0,.768-.234.926-.621l.827-2.019.864.971c.379.425.923.669,1.493.669h2.552c.553,0,1-.447,1-1s-.447-1-1-1h-2.552l-2.281-2.562c-.762-.914-1.882-1.438-3.073-1.438H3.855c-.805,0-1.528.479-1.842,1.221l-1.434,3.39c-.215.509.022,1.096.531,1.311.127.054.259.079.389.079.39,0,.76-.229.921-.61l1.434-3.39h1.917l-1.548,3.773c-.439,1.07-.211,2.257.527,3.102l-.911,2.124H1c-.552,0-1,.447-1,1s.448,1,1,1h2.841c.801,0,1.522-.476,1.838-1.213l.743-1.735,2.578,1.519v4.429H1c-.552,0-1,.447-1,1s.448,1,1,1h15.214c2.083,0,3.968-1.312,4.69-3.267l2.992-8.101c.203-.608.101-1.282-.274-1.803Z"/>
</svg>
