<?xml version="1.0" encoding="UTF-8"?>
<svg xmlns="http://www.w3.org/2000/svg" id="Layer_1" data-name="Layer 1" viewBox="0 0 24 24">
  <path d="M12,7c1.021,0,1.997,.398,2.747,1.122,.468,.451,1.089,.675,1.696,.606l2.165-.234c.317-.034,.599-.218,.759-.494l1.058-1.833c.472-.818,.356-1.845-.288-2.554C18.053,1.317,15.087,0,12,0,5.935,0,1,4.935,1,11c0,.271,.024,.546,.036,.819-.012,.061-.036,.117-.036,.181,0,.1,.03,.192,.057,.283,.27,3.785,1.624,7.684,2.434,9.717h-.491c-.552,0-1,.447-1,1s.448,1,1,1H7.999c.614,0,1.185-.274,1.566-.754,.38-.478,.52-1.094,.383-1.689-.085-.374-.192-.819-.311-1.316-.612-2.563-1.638-6.854-1.638-9.24,0-2.206,1.794-4,4-4Zm-3.85-.596l-2.494-1.781c1.406-1.398,3.27-2.334,5.344-2.564v3.031c-1.073,.181-2.05,.643-2.85,1.314Zm10.541-1.237l-.804,1.394-1.66,.18c-.007,0-.044-.011-.092-.058-.878-.847-1.968-1.385-3.135-1.586V2.059c2.156,.244,4.177,1.269,5.655,2.898,.048,.053,.078,.139,.036,.21Zm-14.284,1.021l2.445,1.746c-.537,.899-.852,1.945-.852,3.066H3c0-1.771,.521-3.418,1.407-4.812Zm1.248,15.812c-.6-1.424-2.087-5.247-2.527-9h3.017c.302,2.482,1.025,5.522,1.547,7.705,.117,.49,.223,.93,.307,1.295h-2.344Zm15.345,0h-.492c.742-1.865,1.952-5.31,2.355-8.794,.064-.552-.154-1.09-.584-1.439-.427-.347-.993-.451-1.514-.277l-1.356,.45-1.366-.517c-.462-.175-.971-.128-1.393,.13-.427,.261-.705,.697-.762,1.197-.257,2.258-.956,5.144-1.466,7.251-.145,.597-.273,1.128-.372,1.563-.135,.594,.006,1.208,.386,1.684,.382,.478,.953,.752,1.566,.752h4.999c.552,0,1-.447,1-1s-.448-1-1-1Zm-2.657,.004l-2.343,.003c.097-.428,.224-.95,.365-1.535,.486-2.011,1.141-4.713,1.447-6.997l1.22,.461c.214,.081,.451,.087,.668,.014l1.096-.363c-.515,3.562-1.886,7.07-2.454,8.418Z"/>
</svg>
