<?xml version="1.0" encoding="UTF-8"?>
<svg xmlns="http://www.w3.org/2000/svg" id="Layer_1" data-name="Layer 1" viewBox="0 0 24 24">
  <path d="M19,3H5C2.243,3,0,5.243,0,8v8c0,2.757,2.243,5,5,5h3c.552,0,1-.447,1-1s-.448-1-1-1h-3c-1.654,0-3-1.346-3-3v-6H22v2c0,.553,.448,1,1,1s1-.447,1-1v-4c0-2.757-2.243-5-5-5ZM2,8c0-1.654,1.346-3,3-3h14c1.654,0,3,1.346,3,3H2Zm10.251,9.001v1.998c0,.449,.358,.751,.749,.751,.288-.005,.544-.173,.669-.411,.106-.202,.32-.324,.548-.324,.472,0,.776,.504,.553,.92-.335,.629-1.003,1.059-1.77,1.064h0c-1.109,.001-2-.889-2-1.984v-2.03c0-1.094,.891-1.985,2-1.985h0c.768,.006,1.435,.436,1.77,1.065,.222,.417-.081,.92-.553,.92-.228,0-.442-.122-.548-.324-.125-.238-.381-.406-.669-.411-.391,0-.749,.302-.749,.751Zm11.609-1.27l-.969,4.645c-.076,.364-.397,.625-.768,.625-.36,0-.673-.245-.761-.593l-1.171-4.652c-.096-.383,.193-.755,.588-.755,.278,0,.521,.189,.588,.459l.71,2.823,.583-2.799c.059-.281,.307-.483,.594-.483h.012c.385,0,.673,.354,.594,.731Zm-4.5,0l-.969,4.645c-.076,.364-.397,.625-.768,.625-.36,0-.673-.245-.761-.593l-1.171-4.652c-.096-.383,.193-.755,.588-.755,.278,0,.521,.189,.588,.459l.71,2.823,.583-2.799c.059-.281,.307-.483,.594-.483h.012c.385,0,.673,.354,.594,.731Z"/>
</svg>
