<?xml version="1.0" encoding="UTF-8"?>
<svg xmlns="http://www.w3.org/2000/svg" id="Layer_1" data-name="Layer 1" viewBox="0 0 24 24">
  <path d="M19.423,18c0,.772-.628,1.4-1.4,1.4s-1.4-.628-1.4-1.4,.628-1.4,1.4-1.4,1.4,.628,1.4,1.4Zm4.6,0c0,3.314-2.686,6-6,6s-6-2.686-6-6,2.686-6,6-6,6,2.686,6,6Zm-3.4-1.469l.65-.65c.312-.312,.312-.819,0-1.132-.312-.312-.819-.312-1.131,0l-.65,.65c-.436-.247-.932-.4-1.469-.4s-1.033,.153-1.469,.4l-.65-.65c-.312-.312-.819-.312-1.131,0-.313,.312-.313,.819,0,1.132l.65,.65c-.247,.436-.4,.932-.4,1.469s.153,1.033,.4,1.469l-.65,.65c-.312,.312-.312,.819,0,1.132,.312,.312,.819,.312,1.131,0l.65-.65c.436,.247,.932,.4,1.469,.4s1.033-.153,1.469-.4l.65,.65c.312,.312,.819,.312,1.131,0,.313-.312,.313-.819,0-1.132l-.65-.65c.247-.436,.4-.932,.4-1.469s-.153-1.033-.4-1.469Zm-2.685-9.055l4.062-4.062v2.586c0,.552,.448,1,1,1s1-.448,1-1V2c0-1.103-.897-2-2-2h-4c-.552,0-1,.448-1,1s.448,1,1,1h2.586l-4.062,4.062c-.564,.564-1.483,.564-2.048,0l-2.538-2.538c-1.344-1.345-3.532-1.345-4.876,0L.293,10.293c-.391,.391-.391,1.023,0,1.414,.195,.195,.451,.293,.707,.293s.512-.098,.707-.293l6.769-6.769c.564-.564,1.483-.564,2.048,0l2.538,2.538c1.344,1.345,3.532,1.345,4.876,0ZM2,14c-.552,0-1,.447-1,1v8c0,.553,.448,1,1,1s1-.447,1-1V15c0-.553-.448-1-1-1Zm5-4.5c-.552,0-1,.448-1,1v12.5c0,.553,.448,1,1,1s1-.447,1-1V10.5c0-.552-.448-1-1-1Zm6,2.5v-2c0-.552-.448-1-1-1s-1,.448-1,1v2c0,.552,.448,1,1,1s1-.448,1-1Z"/>
</svg>
