<?xml version="1.0" encoding="UTF-8"?>
<svg xmlns="http://www.w3.org/2000/svg" id="Layer_1" data-name="Layer 1" viewBox="0 0 24 24">
  <path d="M16.5,14c-.828,0-1.5-.672-1.5-1.5s.672-1.5,1.5-1.5,1.5,.672,1.5,1.5-.672,1.5-1.5,1.5Zm5.932-2.954c-.338-.847-.824-1.637-1.432-2.328v-3.714c0-.618-.278-1.193-.764-1.577-.479-.378-1.092-.516-1.682-.374-1.068,.255-2.542,1.085-3.49,3.593-.195,.517,.065,1.094,.582,1.289,.513,.195,1.094-.064,1.289-.582,.512-1.354,1.213-2.147,2.064-2.349v4.106c0,.261,.103,.512,.285,.699,.683,.698,1.188,1.554,1.463,2.476,.126,.424,.516,.715,.958,.715h.294v2h-.294c-.442,0-.832,.291-.958,.715-.479,1.607-1.638,2.952-3.179,3.688-.348,.166-.569,.517-.569,.902v.694c0,.552-.448,1-1,1s-1-.448-1-1-.447-1-1-1h-4c-.552,0-1,.447-1,1s-.449,1-1,1-1-.448-1-1v-.683c0-.386-.222-.737-.57-.903-2.236-1.063-3.577-3.347-3.417-5.815,.094-1.461,.755-2.835,1.859-3.869,.403-.377,.424-1.01,.046-1.414-.377-.402-1.01-.423-1.414-.046-.236,.221-.451,.457-.655,.7-.477-.075-.85-.471-.85-.97,0-.551,.449-1,1-1s1-.448,1-1-.448-1-1-1c-1.654,0-3,1.346-3,3,0,1.199,.712,2.228,1.731,2.708-.405,.865-.651,1.798-.714,2.762-.199,3.074,1.348,5.933,3.983,7.451v.079c0,1.654,1.346,3,3,3,1.304,0,2.416-.836,2.829-2h2.342c.413,1.164,1.525,2,2.829,2,1.654,0,3-1.346,3-3v-.092c1.56-.903,2.771-2.3,3.432-3.954,.821-.175,1.568-.848,1.568-1.954v-2c0-1.106-.747-1.779-1.568-1.954ZM5.085,3.619c.327-1.704,1.676-3.109,3.355-3.497,1.372-.318,2.777-.006,3.858,.854,1.081,.86,1.701,2.144,1.701,3.524,0,1.72-.966,3.261-2.52,4.024l.02,.976c0,.827-.673,1.5-1.5,1.5h-1c-.855,0-1.5-.695-1.5-1.617v-.876c-1.83-.896-2.804-2.865-2.415-4.887Zm3.309,3.105c.15,.074,.282,.171,.405,.275h1.403c.122-.104,.252-.201,.399-.272,.863-.423,1.399-1.277,1.399-2.228,0-.767-.345-1.48-.946-1.958-.449-.357-.984-.542-1.549-.542-.202,0-.408,.023-.615,.071-.921,.213-1.661,.987-1.842,1.925-.25,1.303,.495,2.309,1.345,2.729Z"/>
</svg>
