<?xml version="1.0" encoding="UTF-8"?>
<svg xmlns="http://www.w3.org/2000/svg" id="Layer_1" data-name="Layer 1" viewBox="0 0 24 24">
  <path d="M17.5,24c-3.584,0-6.5-2.916-6.5-6.5s2.916-6.5,6.5-6.5,6.5,2.916,6.5,6.5-2.916,6.5-6.5,6.5Zm0-11c-2.481,0-4.5,2.019-4.5,4.5s2.019,4.5,4.5,4.5,4.5-2.019,4.5-4.5-2.019-4.5-4.5-4.5Zm.999,6.354l1.886-1.833c.396-.385,.405-1.018,.021-1.414-.385-.395-1.018-.406-1.414-.02l-1.892,1.838c-.099,.1-.262,.1-.362,0l-.876-.858c-.395-.386-1.027-.379-1.414,.016s-.38,1.027,.015,1.414l.876,.858c.437,.428,1.01,.641,1.582,.641s1.146-.215,1.579-.643Zm-9.499-7.354c-3.309,0-6-2.691-6-6S5.691,0,9,0s6,2.691,6,6-2.691,6-6,6Zm0-10c-2.206,0-4,1.794-4,4s1.794,4,4,4,4-1.794,4-4-1.794-4-4-4ZM2,23c0-3.524,2.633-6.511,6.124-6.946,.548-.068,.937-.568,.869-1.116s-.574-.931-1.116-.868C3.386,14.629,0,18.469,0,23c0,.553,.448,1,1,1s1-.447,1-1Z"/>
</svg>
