<?xml version="1.0" encoding="UTF-8"?>
<svg xmlns="http://www.w3.org/2000/svg" id="Layer_1" data-name="Layer 1" viewBox="0 0 24 24">
  <path d="m23.99,11.042c.071.879-.246,1.74-.869,2.364-1.489,1.415-3.292,3.117-3.532,3.291-.178.13-.384.192-.588.192-.309,0-.613-.143-.809-.41-.322-.44-.23-1.056.201-1.385.23-.19,1.883-1.745,3.332-3.121.189-.19.295-.477.271-.771-.024-.297-.174-.56-.424-.739-.38-.274-.976-.19-1.355.189-.286.286-.715.371-1.088.217-.373-.154-.617-.517-.619-.921l-.02-6.201c0-.415-.335-.749-.747-.749-.2,0-.388.078-.53.22-.13.131-.199.304-.209.487l-.004,2.292c0,.552-.448,1-1,1s-1-.448-1-1l.006-3.256c0-.41-.334-.744-.746-.744-.2,0-.388.078-.528.22-.141.142-.218.33-.217.53l-.015,1.263c-.006.465-.332.866-.787.965-.452.101-.918-.128-1.117-.55-.096-.203-.474-.43-.836-.43-.289,0-.556.169-.679.43-.236.5-.833.712-1.332.476s-.712-.833-.476-1.332c.572-1.21,2.039-1.822,3.313-1.458.114-.486.363-.938.728-1.305.519-.521,1.21-.809,1.946-.809.971,0,1.821.51,2.31,1.272.363-.172.759-.272,1.173-.272,1.515,0,2.747,1.231,2.747,2.746l.015,4.607c.775-.136,1.586.02,2.237.489.722.52,1.177,1.322,1.248,2.201Zm-8.791-2.234c.52.522.805,1.216.801,1.953v7.239c0,3.309-2.691,6-6,6h-1.592c-1.804,0-3.5-.702-4.776-1.979l-2.726-2.599c-.64-.64-.957-1.502-.886-2.381.071-.878.525-1.681,1.248-2.201.65-.469,1.46-.624,2.237-.488l.015-4.61c0-1.511,1.232-2.743,2.747-2.743.414,0,.81.1,1.173.273.488-.763,1.338-1.273,2.31-1.273.736,0,1.427.288,1.947.81.369.371.613.831.725,1.33.263-.084.538-.142.829-.142.737,0,1.429.288,1.949.811Zm-1.199,1.948c0-.206-.077-.395-.218-.538-.142-.143-.331-.221-.532-.221-.414,0-.75.336-.75.749,0,.009-.005.017-.005.026v3.228c0,.552-.447,1-1,1s-1-.447-1-1v-5.246c0-.205-.076-.393-.217-.535-.141-.142-.329-.22-.528-.22-.411,0-.746.334-.746.744l.01,5.256c0,.553-.448,1-1,1s-1-.447-1-1l-.008-4.29c-.009-.184-.078-.358-.209-.489-.141-.142-.33-.22-.53-.22-.412,0-.747.334-.747.746l-.02,6.204c-.001.404-.246.768-.619.922-.373.153-.803.068-1.088-.218-.381-.381-.976-.463-1.356-.189-.249.18-.399.442-.423.739-.023.294.082.581.29.789l2.726,2.599c.915.915,2.109,1.409,3.379,1.409h1.592c2.206,0,4-1.794,4-4v-7.244Z"/>
</svg>
