<?xml version="1.0" encoding="UTF-8"?>
<svg xmlns="http://www.w3.org/2000/svg" id="Layer_1" data-name="Layer 1" viewBox="0 0 24 24">
  <path d="m23.297,10.034c-.454-.524-1.073-.859-1.745-.978,1.317-3.008,1.779-5.782,1.187-7.388-.326-.887-.897-1.291-1.319-1.474-2.594-1.127-6.009,2.665-8.079,6.667,0,0-.389.75-.599,1.167-.108-.422-.242-.839-.42-1.242l-.896-2.033c-.282-.64-.425-1.318-.425-2.017v-.736c.553,0,1-.447,1-1s-.447-1-1-1h-7c-.553,0-1,.447-1,1s.447,1,1,1v.736c0,.698-.143,1.377-.425,2.017l-.896,2.033c-.338.764-.55,1.565-.636,2.388-.499.169-.956.453-1.309.86-.57.657-.827,1.528-.7,2.412l1.057,6.402c.42,2.937,2.974,5.151,5.94,5.151h9.969c2.966,0,5.52-2.215,5.937-5.13l1.064-6.445c.123-.862-.134-1.733-.704-2.391Zm-8.18-2.255c.308-.595.622-1.136.938-1.634l1.498.749c.144.071.296.105.446.105.367,0,.72-.202.896-.553.247-.494.047-1.095-.447-1.342l-1.218-.609c1.541-1.904,2.92-2.669,3.393-2.468.094.041.174.152.24.331.361.98.049,3.455-1.482,6.641h-4.891c.221-.441.627-1.221.627-1.221Zm-10.607-.187l.896-2.033c.395-.896.595-1.846.595-2.823v-.736h3v.736c0,.978.2,1.927.595,2.823l.896,2.033c.2.453.334.925.417,1.407h-6.814c.082-.482.217-.954.417-1.407Zm16.45,10.973c-.28,1.958-1.982,3.435-3.96,3.435H7.031c-1.979,0-3.681-1.477-3.964-3.456l-1.057-6.402c-.042-.291.042-.574.234-.797.186-.214.443-.33.724-.338.011,0,18.061-.007,18.061-.007.294,0,.562.122.756.345.192.223.276.506.238.775l-1.064,6.445Zm-12.96-4.565v5c0,.553-.447,1-1,1s-1-.447-1-1v-5c0-.553.447-1,1-1s1,.447,1,1Zm5,0v5c0,.553-.447,1-1,1s-1-.447-1-1v-5c0-.553.447-1,1-1s1,.447,1,1Zm5,0v5c0,.553-.447,1-1,1s-1-.447-1-1v-5c0-.553.447-1,1-1s1,.447,1,1Z"/>
</svg>
