<?xml version="1.0" encoding="UTF-8"?>
<svg xmlns="http://www.w3.org/2000/svg" id="Layer_1" data-name="Layer 1" viewBox="0 0 24 24">
  <path d="m23,18h-4.187c-.242,0-.48.04-.713.097l-5.214-4.648,1.134-1.046c.276-.26.638-.404,1.019-.404.336,0,1.222.323,2.008.666.504.22,1.048.334,1.598.334h4.356c.552,0,1-.448,1-1s-.448-1-1-1h-4.769c-.406-.194-1.194-.548-1.969-.779,1.368-1.381,2.071-3.421,1.584-5.603-.497-2.224-2.307-4.009-4.537-4.48-3.885-.821-7.308,2.121-7.308,5.862,0,1.647.665,3.138,1.739,4.223-.778.231-1.565.584-1.97.777H1c-.552,0-1,.448-1,1s.448,1,1,1h4.357c.554,0,1.1-.117,1.608-.338.743-.323,1.65-.662,2.035-.662.371,0,.727.138,1.001.388l.546.497-2.069,1.908c-.562.562-.642,1.425-.189,2.055.272.378.694.616,1.156.652.042.003.084.005.127.005.417,0,.814-.163,1.087-.437l1.604-1.493,4.026,3.589-3.117,2.433c-.667.521-1.679.52-2.346,0l-3.794-2.961c-.524-.41-1.18-.635-1.846-.635H1c-.552,0-1,.448-1,1s.448,1,1,1h4.187c.222,0,.44.075.615.211l3.794,2.962c.684.533,1.537.827,2.403.827s1.72-.293,2.403-.827l3.794-2.961c.175-.136.394-.211.615-.211h4.187c.552,0,1-.448,1-1s-.448-1-1-1Zm-14.001-9.033c-.418-.504-.063-1.266.592-1.266.227,0,.51.107.664.274.128.139.312.226.515.226h2.334c.278,0,.532-.187.586-.46.063-.318-.146-.615-.451-.677l-2.791-.559c-1.112-.223-1.888-1.281-1.725-2.439.152-1.08,1.108-1.866,2.199-1.866h.28v-.4c0-.442.358-.8.8-.8s.8.358.8.8v.4h.405c.711,0,1.348.324,1.77.833.418.504.063,1.266-.592,1.266-.227,0-.51-.107-.664-.274-.128-.139-.312-.226-.515-.226h-2.307c-.278,0-.532.186-.587.458-.064.318.146.617.449.678l2.792.559c1.112.222,1.889,1.282,1.725,2.439-.153,1.08-1.108,1.865-2.199,1.865h-.28v.4c0,.442-.358.8-.8.8s-.8-.358-.8-.8v-.4h-.431c-.711,0-1.348-.325-1.77-.833Z"/>
</svg>
