<?xml version="1.0" encoding="UTF-8"?>
<svg xmlns="http://www.w3.org/2000/svg" id="Layer_1" data-name="Layer 1" viewBox="0 0 24 24">
  <path d="M24,22c0,1.105-.895,2-2,2-.738,0-1.376-.405-1.723-1h-1.277c-1.654,0-3-1.346-3-3v-5c0-.553,.448-1,1-1s1,.447,1,1v5c0,.552,.449,1,1,1h1.277c.346-.595,.984-1,1.723-1,1.105,0,2,.895,2,2Zm-11-1.723v-5.277c0-.553-.448-1-1-1s-1,.447-1,1v5.277c-.595,.346-1,.984-1,1.723,0,1.105,.895,2,2,2s2-.895,2-2c0-.738-.405-1.376-1-1.723Zm-6-6.277c-.552,0-1,.447-1,1v5c0,.552-.449,1-1,1h-1.277c-.346-.595-.984-1-1.723-1-1.105,0-2,.895-2,2s.895,2,2,2c.738,0,1.376-.405,1.723-1h1.277c1.654,0,3-1.346,3-3v-5c0-.553-.448-1-1-1Zm14-2.546c0,.979-.287,1.924-.83,2.732-.308,.459-.186,1.08,.272,1.388,.459,.31,1.081,.185,1.388-.272,.765-1.14,1.169-2.47,1.169-3.848,0-3.284-2.334-6.133-5.551-6.774-.273-.055-.496-.225-.61-.468C15.411,1.201,12.107-.48,8.799,.127,5.787,.678,3.425,3.083,2.922,6.111c-.148,.894-.138,1.788,.03,2.659,.048,.249-.061,.53-.285,.734-1.06,.963-1.667,2.336-1.667,3.768,0,1.255,.46,2.461,1.297,3.395,.198,.221,.471,.333,.746,.333,.237,0,.476-.084,.667-.255,.412-.368,.446-1.001,.078-1.412-.508-.566-.787-1.299-.787-2.061,0-.869,.369-1.703,1.013-2.287,.737-.671,1.083-1.665,.904-2.596-.124-.636-.13-1.292-.021-1.95,.36-2.165,2.113-3.952,4.264-4.346,2.45-.445,4.814,.746,5.872,2.976,.389,.819,1.127,1.393,2.026,1.571,2.284,.456,3.942,2.48,3.942,4.813Z"/>
</svg>
