<?xml version="1.0" encoding="UTF-8"?>
<svg xmlns="http://www.w3.org/2000/svg" id="Layer_1" data-name="Layer 1" viewBox="0 0 24 24">
  <path d="m22,5.735L14.797.855c-1.699-1.146-3.895-1.146-5.594,0L2.203,5.579c-1.379.931-2.203,2.48-2.203,4.145v9.276c0,2.757,2.243,5,5,5h14c2.757,0,5-2.243,5-5v-9.276c0-1.579-.748-3.047-2-3.989Zm0,13.265c0,1.654-1.346,3-3,3h-3.586l-4.399-4.399c-.055-.056-.055-.146.027-.229l3.33-3.606c.404-.405.628-.942.628-1.515s-.224-1.11-.659-1.545l-2.665-2.442c-.407-.374-1.04-.345-1.413.062-.373.407-.346,1.04.062,1.413l2.634,2.413c.034.034.041.073.041.1s-.007.066-.069.129l-3.33,3.606c-.835.835-.835,2.194,0,3.029l2.985,2.985h-7.586c-1.654,0-3-1.346-3-3v-9.276c0-.999.494-1.928,1.322-2.487l7-4.724c.51-.344,1.094-.516,1.678-.516s1.168.172,1.678.516l7,4.724c.828.558,1.322,1.488,1.322,2.487v9.276Z"/>
</svg>
