<?xml version="1.0" encoding="UTF-8"?>
<svg xmlns="http://www.w3.org/2000/svg" id="Layer_1" data-name="Layer 1" viewBox="0 0 24 24">
  <path d="m13,17h-5c-1.105,0-2,.895-2,2v3c0,1.105.895,2,2,2h5c1.105,0,2-.895,2-2v-3c0-1.105-.895-2-2-2Zm-2,4h-1c-.552,0-1-.448-1-1s.448-1,1-1h1c.552,0,1,.448,1,1s-.448,1-1,1Zm12-13h-1.173c-1.785,0-3.447.964-4.34,2.518l-.188.324c-1.027,1.717-2.829,2.826-3.033,2.947-.582.349-1.395.234-1.865-.269-.201-.215-.433-.59-.395-1.159.03-.456.33-.904.802-1.198,1.435-.893,2.192-1.987,2.192-3.164,0-.882-.387-1.716-1.061-2.288-.674-.571-1.559-.814-2.441-.671-1.424.236-2.498,1.556-2.498,3.072v4.887c0,.294-.129.572-.353.763-.228.193-.522.271-.822.223-.463-.076-.825-.556-.825-1.093v-5.893c0-2.757,2.243-5,5-5h11c.553,0,1-.448,1-1s-.447-1-1-1h-11.169c-2.918,0-5.801.636-8.448,1.863l-1.546.717c-.738.311-1.312.892-1.615,1.635-.301.742-.295,1.558.016,2.294.311.738.891,1.312,1.637,1.616.121.049.251.073.378.106l-.936,1.431c-.358.718-.415,1.531-.16,2.291s.791,1.375,1.505,1.729c.418.21.868.316,1.339.316.4,0,.782-.083,1.135-.228.322,1.119,1.228,2.002,2.368,2.188.88.142,1.768-.102,2.439-.673.272-.231.497-.505.669-.808.098.143.208.28.328.409.662.708,1.596,1.113,2.562,1.113.633,0,1.253-.171,1.792-.495.402-.24,2.47-1.543,3.726-3.641l.204-.353c.535-.932,1.533-1.511,2.604-1.511h1.173c.553,0,1-.448,1-1s-.447-1-1-1ZM2.626,6.272c-.247-.101-.442-.293-.546-.54-.106-.248-.107-.512-.005-.763.101-.248.293-.442.516-.537l3.103-1.466-2.091,3.199-.227.106c-.232.099-.508.099-.749,0Zm.929,5.622c-.239-.118-.417-.323-.502-.577-.085-.252-.066-.522.054-.763l1.894-3.041v3.728l-.105.205c-.238.481-.853.691-1.34.447Zm7.445-1.823v-1.958c0-.54.385-1.113.999-1.113.821,0,1.001.707,1.001,1,0,.438-.455.972-1.249,1.466-.279.174-.531.378-.751.605Z"/>
</svg>
