<?xml version="1.0" encoding="UTF-8"?>
<svg xmlns="http://www.w3.org/2000/svg" id="Layer_1" data-name="Layer 1" viewBox="0 0 24 24">
  <path d="m11.412,12.588c-.543-.545-1.334-.725-2.062-.479-.03.011-.061.022-.09.036L.586,16.09c-.351.159-.579.506-.586.892s.208.74.553.913l2.759,1.379-3.019,3.019c-.391.391-.391,1.023,0,1.414.195.195.451.293.707.293s.512-.098.707-.293l3.019-3.019,1.379,2.759c.17.339.517.553.895.553h.019c.386-.007.732-.235.892-.586l3.98-8.765c.249-.728.066-1.518-.479-2.062Zm-4.455,8.091l-1.062-2.126c-.097-.193-.254-.351-.447-.447l-2.126-1.062,6.667-3.031-3.031,6.667Zm17.043-8.679C24,5.383,18.617,0,12,0S0,5.383,0,12c0,.367.017.73.049,1.089.049.55.526.964,1.085.907.55-.049.956-.534.907-1.085-.026-.3-.041-.604-.041-.911,0-1.048.164-2.057.464-3.007.013,0,.023.007.036.007h3.399c-.069.268-.136.538-.188.813-.104.542.253,1.065.796,1.169.539.1,1.066-.254,1.169-.796.077-.404.183-.799.302-1.187h8.049c.291.952.473,1.959.473,3s-.18,2.047-.472,3h-1.528c-.553,0-1,.447-1,1s.447,1,1,1h.722c-1.213,2.464-2.939,4.318-3.607,4.983-.176-.007-.353-.008-.526-.024-.561-.049-1.036.358-1.085.907-.049.551.357,1.036.907,1.085.358.032.722.049,1.089.049,0,0,0,0,0,0,0,0,0,0,0,0,0,0,0,0,0,0,6.616,0,11.999-5.383,11.999-12Zm-3.353-5h-3.225c-.787-1.875-1.87-3.475-2.811-4.642,2.569.697,4.727,2.39,6.035,4.642Zm-17.294,0c1.309-2.254,3.469-3.947,6.041-4.643-.941,1.168-2.032,2.762-2.821,4.643h-3.22Zm5.432,0c1.021-2.072,2.403-3.725,3.216-4.589.815.864,2.206,2.51,3.227,4.589h-6.442Zm9.311,2h3.403c.013,0,.023-.007.036-.007.3.95.464,1.96.464,3.007s-.164,2.057-.464,3.007c-.013,0-.023-.007-.036-.007h-3.403c.246-.956.403-1.958.403-3s-.157-2.044-.403-3Zm-3.485,12.642c.94-1.167,2.024-2.767,2.811-4.642h3.225c-1.308,2.253-3.466,3.945-6.035,4.642Z"/>
</svg>
