<?xml version="1.0" encoding="UTF-8"?>
<svg xmlns="http://www.w3.org/2000/svg" id="Layer_1" data-name="Layer 1" viewBox="0 0 24 24">
  <path d="m23.018,8.785c-.595-.542-1.356-.82-2.169-.782-.804.037-1.545.386-2.085.981l-3.217,3.535c-.551-.91-1.55-1.519-2.689-1.519H4c-2.206,0-4,1.794-4,4v5c0,2.206,1.794,4,4,4h4.965c2.849,0,5.57-1.22,7.467-3.348l6.804-7.637c1.094-1.226.996-3.123-.218-4.23Zm-1.275,2.899l-6.804,7.638c-1.518,1.701-3.695,2.678-5.974,2.678h-4.965c-1.103,0-2-.897-2-2v-5c0-1.103.897-2,2-2h8.858c.629,0,1.142.513,1.142,1.143,0,.564-.421,1.051-.98,1.13l-5.161.737c-.546.078-.926.585-.848,1.132.078.548.587.928,1.131.849l5.161-.737c1.175-.168,2.129-.987,2.514-2.058l4.427-4.865c.181-.2.43-.316.699-.329.272-.008.529.082.728.262.407.372.44,1.009.072,1.421Zm-15.75-2.698l6.007.014c.799,0,1.551-.311,2.118-.876.568-.567.882-1.321.882-2.124V1.91c0-.815-.496-1.521-1.268-1.798-.773-.276-1.613-.032-2.174.662l-.399.549-.553-.651c-.891-.882-2.356-.856-3.324.12l-.458.543-.498-.668c-.094-.126-.207-.236-.332-.325-.521-.371-1.26-.432-1.888-.146-.682.316-1.106.979-1.106,1.732v4.058c0,1.651,1.343,2.997,2.993,3Zm-.993-6.752l.974,1.306c.183.245.467.393.771.402.325.03.598-.121.794-.354l1.215-1.445c.14-.14.331-.163.384-.114l1.318,1.557c.198.234.505.372.8.353.307-.012.591-.163.772-.412l.97-1.335v3.809c0,.268-.104.519-.293.708-.189.188-.44.292-.707.292l-6.003-.014c-.55,0-.998-.45-.998-1v-3.752Z"/>
</svg>
