<?xml version="1.0" encoding="UTF-8"?>
<svg xmlns="http://www.w3.org/2000/svg" id="Layer_1" data-name="Layer 1" viewBox="0 0 24 24">
  <path d="M23.849,14.971l-1.849-2.962v-.009c0-1.359-.382-2.654-1.096-3.767l1.308-1.502c.632-.727,.896-1.608,.744-2.481-.152-.877-.729-1.654-1.58-2.132l-.571-.327c-1.518-.88-3.087-1.79-6.305-1.79C8.052,0,3,5.271,3,12v4.872c0,.926-.148,1.354-.309,1.68-.223,.454-.569,.886-1.029,1.285l-.891,.771c-.647,.472-.924,1.291-.688,2.063,.242,.795,.964,1.329,1.795,1.329h2.685c1.862,0,3.592-1.004,4.515-2.62,.604-1.056,.923-2.257,.923-3.474v-5.655c0-2.814,2.174-5.169,4.846-5.249,1.36-.033,2.657,.459,3.636,1.409,.979,.95,1.519,2.224,1.519,3.588h-2.807c-.659,0-1.193,.534-1.193,1.193,0,.488,.297,.926,.75,1.107l3.345,1.338,.897,5.238c.036,.289-.05,.567-.242,.786-.192,.218-.459,.338-.75,.338h-6.614c.337-.686,.614-1.541,.614-2.5,0-.553-.447-1-1-1s-1,.447-1,1c0,1.545-1.198,2.784-1.207,2.793-.286,.286-.372,.716-.217,1.09,.154,.374,.52,.617,.924,.617h8.5c.86,0,1.68-.37,2.249-1.015,.569-.646,.834-1.504,.721-2.402l-.699-4.083h.729c.363,0,.698-.197,.875-.515,.176-.318,.166-.707-.026-1.015Zm-4.268-8.264c-1.33-1.154-3.01-1.761-4.796-1.703-3.741,.112-6.785,3.364-6.785,7.248v5.655c0,.869-.228,1.727-.659,2.481-.568,.994-1.633,1.612-2.778,1.612H2.22l.752-.651c.664-.576,1.174-1.221,1.514-1.914,.361-.73,.515-1.497,.515-2.562v-4.872C5,6.393,9.173,2,14.5,2c2.68,0,3.896,.705,5.302,1.52l.596,.341c.33,.185,.538,.444,.588,.73,.048,.273-.05,.559-.282,.826l-1.122,1.289Z"/>
</svg>
