<?xml version="1.0" encoding="UTF-8"?>
<svg xmlns="http://www.w3.org/2000/svg" id="Layer_1" data-name="Layer 1" viewBox="0 0 24 24">
  <path d="m24,8c0,1.064-.256,2.205-.762,3.392-.162.38-.531.609-.92.609-.131,0-.264-.026-.392-.081-.509-.216-.745-.804-.528-1.312.399-.938.602-1.815.602-2.608,0-2.71-2.061-5-4.5-5-2.235,0-3.508.905-4.366,1.694l-3.824,3.549c-.353.354-.437.949-.163,1.33.179.249.442.399.739.423.295.027.581-.081.788-.29l4.173-3.995c.396-.381,1.031-.368,1.414.031.382.399.368,1.032-.031,1.414l-1.238,1.185,4.747,4.166c1.112.976,1.386,2.615.637,3.812-.461.736-1.214,1.231-2.065,1.356-.058.008-.115.015-.173.02-.004.515-.141,1.025-.422,1.475-.461.736-1.214,1.231-2.065,1.356-.185.026-.369.037-.553.028-.054.382-.184.754-.395,1.091-.461.736-1.204,1.387-2.492,1.387-.707,0-1.393-.255-1.931-.728l-3.104-2.784C3.901,16.56,0,12.161,0,8,0,4.14,2.916,1,6.5,1c.826,0,1.633.168,2.397.5.507.22.74.809.52,1.315-.22.506-.809.738-1.315.52-.512-.222-1.051-.334-1.603-.334-2.439,0-4.5,2.29-4.5,5,0,2.674,2.313,6.237,6.515,10.034l3.094,2.774c.197.173.47.253.74.214.274-.04.509-.195.66-.438.23-.369.116-.917-.261-1.247l-3.207-3.049c-.399-.38-.416-1.012-.037-1.413.38-.4,1.012-.417,1.413-.039l3.722,3.514c.179.156.456.238.722.196.274-.04.509-.196.66-.438.23-.369.116-.917-.261-1.248l-3.56-3.223c-.408-.369-.441-1-.073-1.409.367-.409.998-.445,1.409-.079l3.742,3.33c.2.176.474.258.743.216.274-.04.509-.196.66-.438.23-.369.116-.917-.261-1.248l-4.878-4.281-1.47,1.407c-.607.608-1.464.924-2.348.854-.878-.071-1.681-.526-2.201-1.249-.845-1.174-.674-2.867.398-3.939l3.855-3.578c1.042-.957,2.764-2.225,5.723-2.225,3.584,0,6.5,3.14,6.5,7Z"/>
</svg>
