<?xml version="1.0" encoding="UTF-8"?>
<svg xmlns="http://www.w3.org/2000/svg" id="Layer_1" data-name="Layer 1" viewBox="0 0 24 24">
  <path d="m9,11c2.757,0,5-2.243,5-5S11.757,1,9,1s-5,2.243-5,5,2.243,5,5,5Zm0-8c1.654,0,3,1.346,3,3s-1.346,3-3,3-3-1.346-3-3,1.346-3,3-3Zm4.881,14.802c.079.392.119.795.119,1.198v4c0,.552-.447,1-1,1s-1-.448-1-1v-4c0-.271-.026-.54-.08-.802-.109-.541.241-1.069.782-1.178.542-.109,1.068.241,1.179.782Zm4.834-11.804h3.455l-.624,6.005c-.02.191-.156.594-.562.872s-3.174,1.751-3.174,1.751c-.442.244-.943.374-1.449.374h-8.36c-2.206,0-4,1.794-4,4v4c0,.552-.447,1-1,1s-1-.448-1-1v-4c0-3.309,2.691-6,6-6h8.36c.168,0,.335-.043.482-.124l2.447-1.35-.575-5.528Zm4.45-2.733c0,.662-.246,1.261-.639,1.733h-4.166c-.393-.472-.639-1.071-.639-1.733,0-.703.434-1.296.763-1.675.154-.178.447-.081.46.154.024.439-.019,1.254.308,1.254,1.051,0,.428-1.583.881-2.7.122-.301.507-.392.761-.189.932.746,2.273,1.8,2.273,3.156Z"/>
</svg>
