<?xml version="1.0" encoding="UTF-8"?>
<svg xmlns="http://www.w3.org/2000/svg" id="Layer_1" data-name="Layer 1" viewBox="0 0 24 24">
  <path d="M5.5,13c.828,0,1.5,.672,1.5,1.5s-.672,1.5-1.5,1.5-1.5-.672-1.5-1.5,.672-1.5,1.5-1.5Zm18.109,7.738c-.848,1.218-2.769,3.262-6.109,3.262s-5.262-2.044-6.11-3.262c-.523-.752-.523-1.724,0-2.476,.848-1.218,2.769-3.262,6.11-3.262s5.263,2.043,6.11,3.262c.523,.752,.522,1.725,0,2.476Zm-1.642-1.333c-.763-1.097-2.157-2.404-4.468-2.404s-3.705,1.308-4.468,2.405c-.043,.061-.043,.13,0,.19,.764,1.098,2.158,2.405,4.469,2.405s3.705-1.308,4.468-2.405c.043-.061,.043-.13,0-.191Zm-12.968-.404c0,.552-.448,1-1,1h-3c-2.757,0-5-2.243-5-5V7C0,4.243,2.243,2,5,2h14c2.757,0,5,2.243,5,5v7c0,.552-.447,1-1,1s-1-.448-1-1v-5H2v6c0,1.654,1.346,3,3,3h3c.552,0,1,.448,1,1ZM2,7H22c0-1.654-1.346-3-3-3H5c-1.654,0-3,1.346-3,3Zm15.5,11c-.829,0-1.5,.671-1.5,1.5s.671,1.5,1.5,1.5,1.5-.671,1.5-1.5-.671-1.5-1.5-1.5Z"/>
</svg>
