<?xml version="1.0" encoding="UTF-8"?>
<svg xmlns="http://www.w3.org/2000/svg" id="Layer_1" data-name="Layer 1" viewBox="0 0 24 24">
  <path d="M17.163,13c.434,1.441,1.757,2.5,3.337,2.5,1.93,0,3.5-1.57,3.5-3.5s-1.57-3.5-3.5-3.5c-1.58,0-2.903,1.059-3.337,2.5h-4.163V6.5c0-1.103,.897-2,2-2h2.163c.434,1.441,1.757,2.5,3.337,2.5,1.93,0,3.5-1.57,3.5-3.5s-1.57-3.5-3.5-3.5c-1.58,0-2.903,1.059-3.337,2.5h-2.163c-2.206,0-4,1.794-4,4v4.5H6.837c-.434-1.441-1.757-2.5-3.337-2.5-1.93,0-3.5,1.57-3.5,3.5s1.57,3.5,3.5,3.5c1.58,0,2.903-1.059,3.337-2.5h4.163v4.5c0,2.206,1.794,4,4,4h2.163c.434,1.441,1.757,2.5,3.337,2.5,1.93,0,3.5-1.57,3.5-3.5s-1.57-3.5-3.5-3.5c-1.58,0-2.903,1.059-3.337,2.5h-2.163c-1.103,0-2-.897-2-2v-4.5h4.163Zm3.337-2.5c.827,0,1.5,.673,1.5,1.5s-.673,1.5-1.5,1.5-1.5-.673-1.5-1.5,.673-1.5,1.5-1.5Zm0-8.5c.827,0,1.5,.673,1.5,1.5s-.673,1.5-1.5,1.5-1.5-.673-1.5-1.5,.673-1.5,1.5-1.5ZM3.5,13.5c-.827,0-1.5-.673-1.5-1.5s.673-1.5,1.5-1.5,1.5,.673,1.5,1.5-.673,1.5-1.5,1.5Zm17,5.5c.827,0,1.5,.673,1.5,1.5s-.673,1.5-1.5,1.5-1.5-.673-1.5-1.5,.673-1.5,1.5-1.5Z"/>
</svg>
