<?xml version="1.0" encoding="UTF-8"?>
<svg xmlns="http://www.w3.org/2000/svg" id="Layer_1" data-name="Layer 1" viewBox="0 0 24 24">
  <path d="m19,0H5C2.243,0,0,2.243,0,5v14c0,2.757,2.243,5,5,5h11.343c1.335,0,2.591-.521,3.535-1.465l2.657-2.656c.944-.944,1.464-2.2,1.464-3.536V5c0-2.757-2.243-5-5-5ZM2,19V5c0-1.654,1.346-3,3-3h14c1.654,0,3,1.346,3,3v10h-4c-1.654,0-3,1.346-3,3v4H5c-1.654,0-3-1.346-3-3Zm16.464,2.121c-.401.401-.915.674-1.464.799v-3.92c0-.552.449-1,1-1h3.922c-.122.55-.393,1.057-.8,1.465l-2.657,2.656Zm-3.04-15.336c-.096-.383.193-.755.588-.755.278,0,.521.189.588.459l.71,2.823.583-2.799c.059-.281.307-.483.594-.483h.012c.385,0,.673.354.594.731l-.969,4.645c-.076.364-.397.625-.768.625-.36,0-.673-.245-.761-.593l-1.171-4.652Zm-6.499-.026l.338,4.659c.026.352-.253.651-.605.651-.318,0-.582-.246-.605-.563l-.201-2.776-.644,1.416c-.216.474-.889.474-1.105,0l-.644-1.416-.201,2.776c-.023.317-.287.563-.605.563-.352,0-.631-.299-.605-.651l.338-4.659c.032-.535.358-.759.749-.759.26,0,.501.184.638.486l.883,1.942.883-1.942c.137-.302.378-.486.638-.486.391,0,.717.224.749.759Zm3.575-.759c-1.086,0-2,.877-2,1.964v2.066c0,1.086.914,1.967,2,1.967s2-.881,2-1.967v-2.066c0-1.086-.914-1.964-2-1.964Zm.746,4.009c.001.403-.322.729-.724.736-.402-.007-.768-.333-.767-.736,0-.048,0-1.976,0-2.024-.001-.403.344-.725.746-.731.402.007.747.328.746.731,0,.048,0,1.976,0,2.024Z"/>
</svg>
