<?xml version="1.0" encoding="UTF-8"?>
<svg xmlns="http://www.w3.org/2000/svg" id="Layer_1" data-name="Layer 1" viewBox="0 0 24 24">
  <path d="m24,2v4c0,.552-.447,1-1,1s-1-.448-1-1v-2.586l-4.063,4.062c-1.344,1.344-3.531,1.345-4.875,0l-2.539-2.538c-.565-.565-1.483-.563-2.047,0L1.707,11.707c-.195.195-.451.293-.707.293s-.512-.098-.707-.293c-.391-.391-.391-1.023,0-1.414L7.062,3.524c1.344-1.344,3.531-1.345,4.875,0l2.539,2.538c.565.566,1.483.563,2.047,0l4.062-4.062h-2.586c-.553,0-1-.448-1-1s.447-1,1-1h4c1.103,0,2,.897,2,2Zm-2.315,14.267l-3.04-.506c-.374-.062-.645-.382-.645-.761,0-.552.448-1,1-1h2.268c.356,0,.688.191.867.501.274.478.885.643,1.366.364.478-.276.642-.888.364-1.366-.534-.924-1.53-1.499-2.598-1.499h-.268v-1c0-.552-.447-1-1-1s-1,.448-1,1v1c-1.654,0-3,1.346-3,3,0,1.359.974,2.51,2.315,2.733l3.04.506c.374.062.645.382.645.761,0,.552-.448,1-1,1h-2.268c-.356,0-.688-.191-.867-.501-.275-.479-.888-.645-1.366-.364-.478.276-.642.888-.364,1.366.534.925,1.53,1.499,2.598,1.499h.268v1c0,.553.447,1,1,1s1-.447,1-1v-1c1.654,0,3-1.346,3-3,0-1.359-.974-2.51-2.315-2.733ZM2,14c-.553,0-1,.447-1,1v8c0,.553.447,1,1,1s1-.447,1-1v-8c0-.553-.447-1-1-1Zm5-4.5c-.553,0-1,.448-1,1v12.5c0,.553.447,1,1,1s1-.447,1-1v-12.5c0-.552-.447-1-1-1Zm5,0c-.553,0-1,.448-1,1v12.5c0,.553.447,1,1,1s1-.447,1-1v-12.5c0-.552-.447-1-1-1Z"/>
</svg>
