<?xml version="1.0" encoding="UTF-8"?>
<svg xmlns="http://www.w3.org/2000/svg" id="Layer_1" data-name="Layer 1" viewBox="0 0 24 24">
  <path d="m23.018,8.785c-.595-.542-1.356-.82-2.169-.782-.804.037-1.545.386-2.085.981l-3.217,3.535c-.551-.91-1.55-1.519-2.689-1.519H4c-2.206,0-4,1.794-4,4v5c0,2.206,1.794,4,4,4h4.965c2.849,0,5.57-1.22,7.467-3.348l6.804-7.637c1.094-1.226.996-3.123-.218-4.23Zm-1.275,2.899l-6.804,7.638c-1.518,1.701-3.694,2.678-5.974,2.678h-4.965c-1.103,0-2-.897-2-2v-5c0-1.103.897-2,2-2h8.857c.63,0,1.143.513,1.143,1.143,0,.564-.421,1.051-.98,1.13l-5.161.737c-.547.078-.927.585-.849,1.132.078.546.584.925,1.132.849l5.161-.737c1.175-.168,2.129-.987,2.514-2.058l4.427-4.865c.181-.2.43-.316.699-.329.271-.008.528.082.728.262.407.372.44,1.009.072,1.421Zm-6.675-6.619l-5.568,5.935,2.06-6h-4.121l2.06,6L3.934,5.065c-.534-.622-.563-1.532-.071-2.188l1.558-2.077c.378-.504.971-.8,1.6-.8h1.605l-1.126,3h4l-1.126-3h1.606c.63,0,1.222.296,1.6.8l1.558,2.077c.492.656.462,1.565-.071,2.188Z"/>
</svg>
