<?xml version="1.0" encoding="UTF-8"?>
<svg xmlns="http://www.w3.org/2000/svg" id="Layer_1" data-name="Layer 1" viewBox="0 0 24 24">
  <path d="m19.5,14c1.381,0,2.5,1.119,2.5,2.5s-1.119,2.5-2.5,2.5-2.5-1.119-2.5-2.5,1.119-2.5,2.5-2.5Zm-10,2.5c0,1.381,1.119,2.5,2.5,2.5s2.5-1.119,2.5-2.5-1.119-2.5-2.5-2.5-2.5,1.119-2.5,2.5Zm-5-2.5c-1.381,0-2.5,1.119-2.5,2.5s1.119,2.5,2.5,2.5,2.5-1.119,2.5-2.5-1.119-2.5-2.5-2.5Zm15,6c-1.382,0-2.656.53-3.563,1.433-1.039-.912-2.435-1.433-3.937-1.433s-2.898.521-3.937,1.433c-.907-.903-2.181-1.433-3.563-1.433-1.875,0-3.555.97-4.384,2.531-.259.488-.073,1.093.415,1.353.488.258,1.094.073,1.353-.415.473-.893,1.5-1.469,2.616-1.469s2.144.576,2.616,1.469c.009.017.27.531.885.531s.819-.429.827-.44c.65-.962,1.866-1.56,3.172-1.56s2.521.598,3.172,1.56c.01.015.253.44.829.44s.875-.517.883-.531c.473-.893,1.5-1.469,2.616-1.469s2.144.576,2.616,1.469c.18.339.526.531.885.531.158,0,.318-.037.468-.116.488-.26.674-.864.415-1.353-.829-1.562-2.509-2.531-4.384-2.531ZM6.735,8.379l.983-.566c-.129-.418-.218-.853-.218-1.313s.089-.895.218-1.313l-.983-.566c-.479-.275-.644-.887-.367-1.365.274-.479.887-.645,1.365-.367l.977.563c.605-.652,1.393-1.126,2.289-1.331v-1.121c0-.553.447-1,1-1s1,.447,1,1v1.121c.896.205,1.685.678,2.289,1.331l.977-.563c.479-.277,1.09-.111,1.365.367.276.479.111,1.09-.367,1.365l-.983.566c.129.418.218.853.218,1.313s-.089.895-.218,1.313l.983.566c.479.275.644.887.367,1.365-.185.321-.521.501-.867.501-.169,0-.341-.043-.498-.134l-.977-.563c-.605.652-1.393,1.126-2.289,1.331v1.121c0,.553-.447,1-1,1s-1-.447-1-1v-1.121c-.896-.205-1.685-.678-2.289-1.331l-.977.563c-.157.091-.329.134-.498.134-.346,0-.683-.18-.867-.501-.276-.479-.111-1.09.367-1.365Zm2.765-1.879c0,1.379,1.121,2.5,2.5,2.5s2.5-1.121,2.5-2.5-1.121-2.5-2.5-2.5-2.5,1.121-2.5,2.5ZM1,14c.553,0,1-.447,1-1v-3c0-1.103.897-2,2-2,.553,0,1-.447,1-1s-.447-1-1-1C1.794,6,0,7.794,0,10v3c0,.553.447,1,1,1ZM20,6c-.553,0-1,.447-1,1s.447,1,1,1c1.103,0,2,.897,2,2v3c0,.553.447,1,1,1s1-.447,1-1v-3c0-2.206-1.794-4-4-4Z"/>
</svg>
