<?xml version="1.0" encoding="UTF-8"?>
<svg xmlns="http://www.w3.org/2000/svg" id="Layer_1" data-name="Layer 1" viewBox="0 0 24 24">
  <path d="M19,1H5C2.243,1,0,3.243,0,6V14c0,2.757,2.243,5,5,5h6v2H7c-.552,0-1,.448-1,1s.448,1,1,1h10c.552,0,1-.448,1-1s-.448-1-1-1h-4v-2h6c2.757,0,5-2.243,5-5V6c0-2.757-2.243-5-5-5Zm3,13c0,1.654-1.346,3-3,3H5c-1.654,0-3-1.346-3-3V6c0-1.654,1.346-3,3-3h14c1.654,0,3,1.346,3,3V14Zm-2-6.5v3.478c0,.552-.448,1-1,1s-1-.448-1-1v-1.563l-3.504,3.504c-.881,.882-2.418,.882-3.299,0l-1.862-1.862c-.13-.13-.341-.13-.471,0l-3.154,3.154c-.195,.195-.451,.293-.707,.293s-.512-.098-.707-.293c-.391-.391-.391-1.023,0-1.414l3.154-3.154c.909-.91,2.39-.91,3.299,0l1.862,1.862c.17,.17,.301,.17,.471,0l3.504-3.504h-1.586c-.552,0-1-.448-1-1s.448-1,1-1h3.5c.827,0,1.5,.673,1.5,1.5Z"/>
</svg>
