<?xml version="1.0" encoding="UTF-8"?>
<svg xmlns="http://www.w3.org/2000/svg" id="Layer_1" data-name="Layer 1" viewBox="0 0 24 24">
  <path d="M21,22h-.492c.901-2.26,2.492-6.838,2.492-11C23,4.935,18.065,0,12,0S1,4.935,1,11c0,4.162,1.591,8.74,2.492,11h-.492c-.552,0-1,.447-1,1s.448,1,1,1h2.03s.004,0,.006,0h2.963c.614,0,1.185-.274,1.566-.754,.38-.478,.52-1.094,.383-1.689-.085-.374-.192-.819-.311-1.316-.612-2.563-1.638-6.854-1.638-9.24,0-2.206,1.794-4,4-4s4,1.794,4,4c0,2.387-1.025,6.677-1.638,9.24-.119,.497-.226,.942-.311,1.316-.137,.596,.003,1.212,.383,1.689,.381,.479,.953,.754,1.566,.754h4.999c.552,0,1-.447,1-1s-.448-1-1-1Zm-3.955-14.236l2.444-1.746c.953,1.428,1.511,3.14,1.511,4.982h-3c0-1.192-.353-2.301-.955-3.236Zm-12.534-1.746l2.444,1.746c-.602,.935-.955,2.044-.955,3.236H3c0-1.841,.558-3.554,1.511-4.982Zm1.145,15.982c-.597-1.417-2.09-5.239-2.531-9h3.021c.302,2.482,1.025,5.522,1.547,7.705,.117,.49,.223,.93,.307,1.295h-2.344Zm2.658-15.724l-2.506-1.79c1.387-1.32,3.19-2.205,5.193-2.427v3.031c-1.002,.169-1.918,.585-2.687,1.186Zm4.687-1.186V2.059c2.003,.223,3.805,1.108,5.193,2.427l-2.506,1.79c-.768-.601-1.685-1.017-2.687-1.186Zm3,16.914c.084-.369,.19-.809,.307-1.299,.522-2.183,1.244-5.223,1.547-7.705h3.021c-.441,3.763-1.936,7.587-2.532,9.002l-2.343,.002Z"/>
</svg>
