<?xml version="1.0" encoding="UTF-8"?>
<svg xmlns="http://www.w3.org/2000/svg" id="Layer_1" data-name="Layer 1" viewBox="0 0 24 24">
  <path d="m24,23c0,.553-.447,1-1,1H3c-1.654,0-3-1.346-3-3V1C0,.447.447,0,1,0s1,.447,1,1v20c0,.552.448,1,1,1h20c.553,0,1,.447,1,1Zm-2-21h-4c-.553,0-1,.447-1,1s.447,1,1,1h2.563l-4.856,4.707c-.391.391-1.023.391-1.414,0-.04-.04-1.239-.894-1.239-.894-1.175-1.104-3.028-1.081-4.161.052l-4.586,4.414c-.398.383-.41,1.017-.027,1.414.196.204.458.307.721.307.25,0,.5-.093.693-.279l4.6-4.428c.391-.391,1.023-.391,1.414,0,.04.04,1.239.894,1.239.894,1.14,1.072,3.075,1.035,4.164-.055l4.89-4.739v2.607c0,.553.447,1,1,1s1-.447,1-1v-4c0-1.103-.897-2-2-2Zm1,10c-.553,0-1,.447-1,1v2.615l-3.47-3.326c-.399-.382-1.031-.368-1.414.029-.383.399-.369,1.032.029,1.414l3.409,3.269h-2.555c-.553,0-1,.447-1,1s.447,1,1,1h4c1.103,0,2-.897,2-2v-4c0-.553-.447-1-1-1Z"/>
</svg>
