<?xml version="1.0" encoding="UTF-8"?>
<svg xmlns="http://www.w3.org/2000/svg" id="Layer_1" data-name="Layer 1" viewBox="0 0 24 24">
  <path d="m3,5.5c0-.828.672-1.5,1.5-1.5s1.5.672,1.5,1.5-.672,1.5-1.5,1.5-1.5-.672-1.5-1.5Zm5.5,1.5c.828,0,1.5-.672,1.5-1.5s-.672-1.5-1.5-1.5-1.5.672-1.5,1.5.672,1.5,1.5,1.5Zm15.5-1v12c0,2.757-2.243,5-5,5H5c-2.757,0-5-2.243-5-5V6C0,3.243,2.243,1,5,1h14c2.757,0,5,2.243,5,5Zm-22,0v2h20v-2c0-1.654-1.346-3-3-3H5c-1.654,0-3,1.346-3,3Zm12,4H2v4.5h12v-4.5Zm-9,11h9v-4.5H2v1.5c0,1.654,1.346,3,3,3Zm17-3v-8h-6v11h3c1.654,0,3-1.346,3-3Z"/>
</svg>
