<?xml version="1.0" encoding="UTF-8"?>
<svg xmlns="http://www.w3.org/2000/svg" id="Layer_1" data-name="Layer 1" viewBox="0 0 24 24">
  <path d="m12,13c-.442,0-.8-.358-.8-.8v-.4h-.2c-.711,0-1.348-.325-1.77-.833-.418-.504-.063-1.266.592-1.266h.076c.227,0,.434.107.588.274.128.139.312.226.515.226h2.103c.278,0,.532-.187.586-.46.063-.318-.146-.615-.451-.677l-2.791-.559c-1.112-.223-1.888-1.281-1.725-2.439.152-1.08,1.108-1.866,2.199-1.866h.28v-.4c0-.442.358-.8.8-.8s.8.358.8.8v.4h.2c.711,0,1.348.324,1.77.833.418.504.063,1.266-.592,1.266h-.076c-.227,0-.434-.107-.588-.274-.128-.139-.312-.226-.515-.226h-2.102c-.278,0-.532.186-.587.458-.064.318.146.617.449.678l2.792.559c1.112.222,1.889,1.282,1.725,2.439-.153,1.08-1.108,1.865-2.199,1.865h-.28v.4c0,.442-.358.8-.8.8Zm11.908,4.425c-1.862,5.301-7.44,6.575-10.908,6.575h-2c-2.469,0-8.412-.601-10.888-6.521-.225-.537-.147-1.149.207-1.637.417-.573,1.128-.884,1.861-.835,4.506.368,7.232,2.448,8.82,4.354v-3.431c-3.94-.495-7-3.859-7-7.931C4,3.589,7.589,0,12,0s8,3.589,8,8c0,4.072-3.06,7.436-7,7.931v3.43c1.588-1.906,4.314-3.986,8.82-4.354.708-.046,1.397.242,1.812.782.372.482.473,1.078.276,1.636Zm-11.908-3.425c3.309,0,6-2.691,6-6s-2.691-6-6-6-6,2.691-6,6,2.691,6,6,6Zm-1.541,8.05c-.985-1.713-3.371-4.609-8.37-5.043,1.95,4.246,6.155,4.972,8.37,5.043Zm11.463-5.021c-5.012.439-7.396,3.318-8.381,5.023,2.298-.058,6.712-.748,8.381-5.023Z"/>
</svg>
