<?xml version="1.0" encoding="UTF-8"?>
<svg xmlns="http://www.w3.org/2000/svg" id="Layer_1" data-name="Layer 1" viewBox="0 0 24 24">
  <path d="m19,3H5C2.243,3,0,5.243,0,8v8c0,2.757,2.243,5,5,5h14c2.757,0,5-2.243,5-5v-8c0-2.757-2.243-5-5-5Zm3,11h-2v-4h2v4Zm-10,0c-1.103,0-2-.897-2-2s.897-2,2-2,2,.897,2,2-.897,2-2,2ZM2,10h2v4h-2v-4Zm0,6h2c1.103,0,2-.897,2-2v-4c0-1.103-.897-2-2-2h-2c0-1.654,1.346-3,3-3h6v3.142c-1.72.447-3,1.999-3,3.858s1.28,3.411,3,3.858v3.142h-6c-1.654,0-3-1.346-3-3Zm17,3h-6v-3.142c1.72-.447,3-1.999,3-3.858s-1.28-3.411-3-3.858v-3.142h6c1.654,0,3,1.346,3,3h-2c-1.103,0-2,.897-2,2v4c0,1.103.897,2,2,2h2c0,1.654-1.346,3-3,3Z"/>
</svg>
