<?xml version="1.0" encoding="UTF-8"?>
<svg xmlns="http://www.w3.org/2000/svg" id="Layer_1" data-name="Layer 1" viewBox="0 0 24 24">
  <path d="m21.891,15.053c.634-.32,1.047-.935,1.103-1.643.057-.708-.253-1.379-.828-1.796-.031-.022-4.271-2.402-4.271-2.402-.626-.312-1.353-.279-1.946.087-.594.367-.948,1.003-.948,1.702v11.999c0,.552.447,1,1,1s1-.448,1-1l-.021-5.889,4.911-2.058Zm-4.933-4.074l4.096,2.259-4.082,1.708-.014-3.968Zm7.042,7.021v1c0,2.283-1.542,4.274-3.751,4.842-.083.021-.167.032-.25.032-.445,0-.852-.3-.968-.751-.138-.535.185-1.08.72-1.217,1.324-.341,2.249-1.536,2.249-2.906v-1c0-.552.447-1,1-1s1,.448,1,1ZM2,9.724v9.276c0,1.654,1.346,3,3,3h7c.553,0,1,.448,1,1s-.447,1-1,1h-7c-2.757,0-5-2.243-5-5v-9.276c0-1.665.824-3.214,2.203-4.145L9.203.855c1.699-1.146,3.895-1.146,5.594,0l7.203,4.893c.99.749,1.692,1.844,1.918,3.071.101.543-.259,1.064-.802,1.165-.544.098-1.065-.258-1.165-.802-.146-.789-.609-1.498-1.272-1.945l-7.001-4.724c-1.02-.688-2.336-.688-3.355,0L3.322,7.237c-.828.558-1.322,1.488-1.322,2.487Z"/>
</svg>
