<?xml version="1.0" encoding="UTF-8"?>
<svg xmlns="http://www.w3.org/2000/svg" id="Layer_1" data-name="Layer 1" viewBox="0 0 24 24">
  <path d="M18,12c-3.314,0-6,2.686-6,6s2.686,6,6,6,6-2.686,6-6-2.686-6-6-6Zm3.301,7.935c-.153,1.08-1.108,1.865-2.199,1.865h-.28v.408c0,.437-.353,.792-.79,.792h-.02c-.436,0-.789-.356-.789-.792v-.408h-.2c-.711,0-1.348-.325-1.77-.833-.418-.504-.063-1.266,.592-1.266,.227,0,.51,.107,.664,.274,.128,.139,.312,.226,.515,.226h2.103c.278,0,.532-.187,.586-.46,.063-.318-.146-.615-.451-.677l-2.791-.559c-1.112-.223-1.888-1.281-1.725-2.439,.152-1.08,1.108-1.866,2.199-1.866h.28v-.4c0-.442,.358-.8,.8-.8s.8,.358,.8,.8v.4h.2c.711,0,1.348,.324,1.77,.833,.418,.504,.063,1.266-.592,1.266-.227,0-.51-.107-.664-.274-.128-.139-.312-.226-.515-.226h-2.102c-.278,0-.532,.186-.587,.458-.064,.318,.146,.617,.449,.678l2.792,.559c1.112,.222,1.889,1.282,1.725,2.439ZM24,2V6c0,.552-.447,1-1,1s-1-.448-1-1V3.414l-4.062,4.062c-1.344,1.344-3.531,1.345-4.875,0l-2.539-2.538c-.564-.564-1.483-.564-2.048,0L1.707,11.707c-.195,.195-.451,.293-.707,.293s-.512-.098-.707-.293c-.391-.391-.391-1.023,0-1.414L7.062,3.524c1.344-1.345,3.532-1.345,4.876,0l2.539,2.538c.565,.566,1.484,.563,2.047,0l4.062-4.062h-2.586c-.553,0-1-.448-1-1s.447-1,1-1h4c1.103,0,2,.897,2,2ZM3,15v8c0,.553-.448,1-1,1s-1-.447-1-1V15c0-.553,.448-1,1-1s1,.447,1,1Zm5-4.5v12.5c0,.553-.448,1-1,1s-1-.447-1-1V10.5c0-.552,.448-1,1-1s1,.448,1,1Zm4,2.5c-.552,0-1-.448-1-1v-2c0-.552,.448-1,1-1s1,.448,1,1v2c0,.552-.448,1-1,1Z"/>
</svg>
