<?xml version="1.0" encoding="UTF-8"?>
<svg xmlns="http://www.w3.org/2000/svg" id="Layer_1" data-name="Layer 1" viewBox="0 0 24 24">
  <path d="m23.5,6.6c-.222-.507-.81-.736-1.317-.516-.506.221-.737.811-.516,1.317.221.505.333,1.043.333,1.6v8c0,1.103-.897,2-2,2h-8.556c.345-.591.556-1.268.556-2v-8c0-1.538-.586-2.937-1.54-4h3.54c.552,0,1-.448,1-1s-.448-1-1-1H6C2.691,3,0,5.691,0,9v8c0,2.206,1.794,4,4,4h16c2.206,0,4-1.794,4-4v-8c0-.834-.168-1.642-.5-2.4ZM4,19c-1.103,0-2-.897-2-2v-8c0-2.206,1.794-4,4-4s4,1.794,4,4v8c0,1.103-.897,2-2,2h-4Zm4-9c0,.552-.448,1-1,1h-2c-.552,0-1-.448-1-1s.448-1,1-1h2c.552,0,1,.448,1,1Zm9-1v-5c0-.552.448-1,1-1h2c.552,0,1,.448,1,1s-.448,1-1,1h-1v4c0,.552-.448,1-1,1s-1-.448-1-1Z"/>
</svg>
