<?xml version="1.0" encoding="UTF-8"?>
<svg xmlns="http://www.w3.org/2000/svg" id="Layer_1" data-name="Layer 1" viewBox="0 0 24 24">
  <path d="m5.5,11c.828,0,1.5.672,1.5,1.5s-.672,1.5-1.5,1.5-1.5-.672-1.5-1.5.672-1.5,1.5-1.5Zm18.5-6v6c0,.552-.447,1-1,1s-1-.448-1-1v-4H2v6c0,1.654,1.346,3,3,3h8c.553,0,1,.448,1,1s-.447,1-1,1H5c-2.757,0-5-2.243-5-5V5C0,2.243,2.243,0,5,0h14c2.757,0,5,2.243,5,5Zm-2,0c0-1.654-1.346-3-3-3H5c-1.654,0-3,1.346-3,3h20Zm-.5,10.5c0-1.379-1.121-2.5-2.5-2.5s-2.5,1.121-2.5,2.5,1.121,2.5,2.5,2.5,2.5-1.121,2.5-2.5Zm-2.5,3.5c-2.333,0-4.375,1.538-4.966,3.741-.144.534.173,1.082.707,1.225s1.081-.173,1.225-.707c.356-1.33,1.604-2.259,3.034-2.259s2.678.929,3.034,2.259c.12.446.523.741.965.741.086,0,.173-.011.26-.035.534-.143.851-.691.707-1.225-.591-2.203-2.633-3.741-4.966-3.741Z"/>
</svg>
