<?xml version="1.0" encoding="UTF-8"?>
<svg xmlns="http://www.w3.org/2000/svg" id="Layer_1" data-name="Layer 1" viewBox="0 0 24 24">
  <path d="M8.947,3c0-1.657,1.367-3,3.054-3s2.946,1.343,2.946,3-1.26,3-2.946,3-3.054-1.343-3.054-3Zm14.6,12.663l-3.812-2.493-1.308-2.13c-1.152-1.875-3.235-3.041-5.436-3.041h-1.83c-2.312,0-4.448,1.255-5.573,3.274l-1.341,2.408L.453,16.163c-.462,.302-.592,.922-.29,1.384,.192,.293,.512,.453,.838,.453,.188,0,.377-.053,.546-.163l4-2.615c.135-.088,.248-.209,.326-.35l1.461-2.624c.184-.331,.41-.629,.665-.895v7.012l-5.13,2.414c-.689,.394-1.015,1.173-.811,1.939s.873,1.282,1.667,1.282h3.274c.552,0,1-.448,1-1s-.448-1-1-1h-2.034l4.459-2.095c.351-.165,.575-.518,.575-.905V10.157c.373-.103,.763-.157,1.161-.157h1.83c.343,0,.681,.046,1.009,.125v8.875c0,.388,.224,.74,.575,.905l4.465,2.095H11c-.552,0-1,.448-1,1s.448,1,1,1h9.274c.793,0,1.463-.515,1.667-1.282s-.122-1.546-.882-1.977l-5.059-2.377v-7.162c.276,.26,.521,.556,.723,.885l1.425,2.321c.077,.125,.181,.233,.305,.313l4,2.615c.463,.303,1.082,.173,1.384-.29s.172-1.082-.29-1.384Z"/>
</svg>
