<?xml version="1.0" encoding="UTF-8"?>
<svg xmlns="http://www.w3.org/2000/svg" id="Layer_1" data-name="Layer 1" viewBox="0 0 24 24">
  <path d="m16.5,23c0,.553-.448,1-1,1h-1.887c-.959,0-1.811-.5-2.279-1.337-.468-.838-.447-1.825.056-2.643l.84-1.362c.291-.47.907-.616,1.376-.327.47.29.616.906.326,1.376l-.84,1.362c-.169.275-.065.524-.013.618s.209.312.533.312h1.887c.552,0,1,.447,1,1Zm-7.5,0c0,.553-.448,1-1,1-2.554,0-4.591-1.901-4.843-4.521L1.86,6h-.86c-.552,0-1-.447-1-1s.448-1,1-1h4.101C5.566,1.721,7.586,0,10,0h2c2.414,0,4.434,1.721,4.899,4h4.101c.552,0,1,.447,1,1s-.448,1-1,1h-.885l-.347,3.661c-.049.518-.58.9-1.09.9-.55-.052-.954-.54-.901-1.09l.329-3.472H3.87l1.278,13.287c.151,1.572,1.351,2.713,2.852,2.713.552,0,1,.447,1,1Zm-1.816-19h7.631c-.414-1.161-1.514-2-2.816-2h-2c-1.302,0-2.402.839-2.816,2Zm12.586,12.785c.182,0,.366-.05.531-.153.468-.294.609-.911.315-1.379l-.942-1.5c-.481-.767-1.306-1.223-2.21-1.223h-.011c-.909.004-1.735.468-2.212,1.241l-.891,1.445c-.29.47-.143,1.086.327,1.376.47.289,1.086.143,1.376-.327l.89-1.445c.161-.261.416-.29.518-.29.127.008.356.026.519.286l.943,1.501c.19.302.515.468.848.468Zm3.827,3.216l-.751-1.195c-.294-.467-.91-.607-1.379-.314-.467.294-.608.911-.314,1.379l.751,1.195c.172.274.069.524.017.619-.053.095-.209.315-.534.315h-1.887c-.552,0-1,.447-1,1s.448,1,1,1h1.887c.964,0,1.818-.504,2.284-1.348.467-.844.439-1.835-.074-2.651Z"/>
</svg>
