<?xml version="1.0" encoding="UTF-8"?>
<svg xmlns="http://www.w3.org/2000/svg" id="Layer_1" data-name="Layer 1" viewBox="0 0 24 24">
  <path d="m12,5c-3.883,0-7.625,1.634-10.268,4.482-.197.212-.465.32-.733.32-.244,0-.488-.088-.68-.267-.405-.375-.429-1.008-.053-1.413C3.286,4.867,7.562,3,12,3c2.813,0,5.58.74,8.001,2.141.478.277.642.889.364,1.367-.275.478-.887.641-1.366.365-2.117-1.225-4.537-1.873-6.999-1.873Zm1.756,7.216c.533.133,1.079-.189,1.214-.726.135-.536-.189-1.079-.726-1.214-.729-.184-1.484-.277-2.244-.277-2.543,0-4.994,1.07-6.724,2.935-.376.405-.352,1.038.053,1.413.192.179.437.267.68.267.268,0,.536-.107.733-.32,1.758-1.896,4.539-2.703,7.014-2.079Zm9.951-4.923c-.391-.391-1.023-.391-1.414,0l-9.781,9.781c-.164-.044-.334-.074-.512-.074-1.105,0-2,.895-2,2s.895,2,2,2,2-.895,2-2c0-.178-.031-.347-.074-.512l9.781-9.781c.391-.391.391-1.023,0-1.414Z"/>
</svg>
