<?xml version="1.0" encoding="UTF-8"?>
<svg xmlns="http://www.w3.org/2000/svg" id="Layer_1" data-name="Layer 1" viewBox="0 0 24 24">
  <path d="M20,9.728c0-.848-.365-1.629-.973-2.195,.606-.563,.973-1.358,.973-2.212,0-1.028-.515-1.976-1.377-2.535-.863-.56-1.936-.642-2.867-.229l-.682,.296c-.055-.959-.542-1.836-1.355-2.363-.863-.56-1.936-.643-2.867-.229L5.791,2.458c-1.088,.485-1.791,1.569-1.791,2.76,0,.853,.37,1.637,.983,2.203-.613,.563-.983,1.363-.983,2.222,0,.848,.365,1.629,.973,2.195-.606,.563-.973,1.358-.973,2.212s.37,1.637,.983,2.203c-.613,.563-.983,1.363-.983,2.222,0,1.028,.515,1.976,1.377,2.535,.5,.324,1.069,.488,1.644,.488,.416,0,.834-.086,1.228-.261l.752-.326v.589c0,1.378,1.121,2.5,2.5,2.5h1c1.379,0,2.5-1.122,2.5-2.5v-1.5c1.103,0,2-.897,2-2v-.562l1.209-.525c1.088-.485,1.791-1.569,1.791-2.76,0-.853-.37-1.637-.983-2.203,.613-.563,.983-1.363,.983-2.222Zm-13.403,3.393l1.636-.71s.01-.003,.015-.005l8.322-3.613c.134-.058,.273-.089,.41-.089,.192,0,.383,.056,.554,.167,.296,.192,.466,.504,.466,.857,0,.403-.238,.769-.597,.929L7.447,14.979l-.009,.004c-.323,.144-.677,.116-.973-.076s-.466-.504-.466-.857c0-.403,.238-.769,.597-.929ZM16.562,4.387c.137-.061,.278-.091,.419-.091,.192,0,.383,.056,.554,.167,.296,.192,.466,.504,.466,.857,0,.403-.238,.769-.597,.929L7.423,10.581c-.319,.136-.666,.108-.958-.081-.296-.192-.466-.504-.466-.857,0-.403,.238-.769,.597-.929l9.965-4.327Zm-9.965-.099l5.061-2.197c.137-.061,.278-.091,.419-.091,.192,0,.383,.056,.554,.167,.296,.192,.466,.504,.466,.857,0,.403-.238,.769-.597,.929l-5.052,2.193-.009,.004c-.323,.143-.677,.115-.973-.076-.296-.192-.466-.504-.466-.857,0-.403,.238-.769,.597-.929Zm6.403,17.212c0,.276-.225,.5-.5,.5h-1c-.275,0-.5-.224-.5-.5v-1.5h2v1.5Zm4.403-6.417l-9.956,4.322-.009,.004c-.323,.144-.677,.116-.973-.076-.296-.192-.466-.504-.466-.857,0-.403,.238-.769,.597-.929l9.965-4.327c.137-.061,.278-.091,.419-.091,.192,0,.383,.056,.554,.167,.296,.192,.466,.504,.466,.857,0,.403-.238,.769-.597,.929Z"/>
</svg>
