<?xml version="1.0" encoding="UTF-8"?>
<svg xmlns="http://www.w3.org/2000/svg" id="Layer_1" data-name="Layer 1" viewBox="0 0 24 24">
  <path d="m19.642,14.308c.274-.297.536-.625.741-.974.346-.59-.115-1.333-.799-1.333h-3.167c-.684,0-1.144.743-.799,1.333.204.349.466.677.741.974-2.376.879-4.358,3.52-4.358,6.204,0,1.923,1.57,3.488,3.5,3.488h5c1.93,0,3.5-1.565,3.5-3.488,0-2.684-1.982-5.325-4.358-6.204Zm.858,7.692h-5c-.827,0-1.5-.667-1.5-1.488,0-2.192,2.056-4.512,4-4.512s4,2.319,4,4.512c0,.821-.673,1.488-1.5,1.488Zm-1.5-20h-1v-1c0-.552-.447-1-1-1s-1,.448-1,1v1h-8v-1c0-.552-.448-1-1-1s-1,.448-1,1v1h-1C2.243,2,0,4.243,0,7v12c0,2.757,2.243,5,5,5h4c.552,0,1-.448,1-1s-.448-1-1-1h-4c-1.654,0-3-1.346-3-3v-9h20v1c0,.552.447,1,1,1s1-.448,1-1v-4c0-2.757-2.243-5-5-5ZM2,8v-1c0-1.654,1.346-3,3-3h14c1.654,0,3,1.346,3,3v1H2Z"/>
</svg>
