<?xml version="1.0" encoding="UTF-8"?>
<svg xmlns="http://www.w3.org/2000/svg" id="Layer_1" data-name="Layer 1" viewBox="0 0 24 24">
  <path d="m24,12.5c0,2.062-.819,3.984-2.308,5.412-.399.382-1.031.369-1.414-.029-.382-.398-.369-1.031.029-1.414,1.092-1.047,1.692-2.457,1.692-3.969,0-2.614-1.857-4.882-4.417-5.394-.958-.191-1.744-.8-2.158-1.673-1.182-2.494-3.816-3.832-6.568-3.329-2.406.44-4.368,2.439-4.771,4.862-.122.737-.114,1.471.023,2.18.191.989-.178,2.047-.962,2.762-.729.663-1.147,1.606-1.147,2.591,0,1.787,1.337,3.282,3.11,3.479.549.061.944.556.884,1.104-.057.511-.49.89-.993.89-.036,0-.073-.002-.111-.006-2.787-.309-4.89-2.659-4.89-5.467,0-1.546.656-3.03,1.801-4.07.272-.248.405-.594.346-.902-.184-.943-.194-1.916-.033-2.889C2.66,3.349,5.226.736,8.497.137c3.591-.658,7.184,1.167,8.734,4.439.141.295.411.502.742.569,3.492.697,6.026,3.79,6.026,7.354Zm-5.693,7.279l-1.307,1.243v-9.022c0-.552-.447-1-1-1s-1,.448-1,1v9.037l-1.307-1.258c-.398-.383-1.031-.371-1.414.027-.383.397-.371,1.031.027,1.414l2.279,2.193c.392.392.906.587,1.419.587.508,0,1.015-.192,1.396-.573l2.293-2.207c.398-.383.41-1.017.027-1.414-.384-.398-1.018-.41-1.414-.027Zm-6.307-4.279c.263,0,.524-.103.721-.307.383-.397.371-1.031-.027-1.414l-2.279-2.193c-.779-.78-2.049-.78-2.814-.014l-2.293,2.207c-.398.383-.41,1.017-.027,1.414.383.398,1.018.41,1.414.027l1.307-1.243v9.022c0,.553.447,1,1,1s1-.447,1-1v-9.037l1.307,1.258c.194.187.443.279.693.279Z"/>
</svg>
