<?xml version="1.0" encoding="UTF-8"?>
<svg xmlns="http://www.w3.org/2000/svg" id="Layer_1" data-name="Layer 1" viewBox="0 0 24 24">
  <path d="m19,2h-1v-1c0-.552-.447-1-1-1s-1,.448-1,1v1h-8v-1c0-.552-.448-1-1-1s-1,.448-1,1v1h-1C2.243,2,0,4.243,0,7v12c0,2.757,2.243,5,5,5h7c.552,0,1-.448,1-1s-.448-1-1-1h-7c-1.654,0-3-1.346-3-3v-9h20v6c0,.552.447,1,1,1s1-.448,1-1V7c0-2.757-2.243-5-5-5ZM2,8v-1c0-1.654,1.346-3,3-3h14c1.654,0,3,1.346,3,3v1H2Zm21.665,12.971c.446.446.446,1.17,0,1.616l-.522.6c-.551.552-1.277.813-2,.813-3.714,0-9.143-5.143-9.143-9.143,0-.723.261-1.449.813-2l.6-.522c.446-.446,1.17-.446,1.616,0l1.208,1.302c.446.446.446,1.17,0,1.616l-1.025,1.036c.901,2.244,2.429,3.71,4.5,4.5l1.036-1.025c.446-.446,1.17-.446,1.616,0l1.302,1.208Z"/>
</svg>
