<?xml version="1.0" encoding="UTF-8"?>
<svg xmlns="http://www.w3.org/2000/svg" id="Layer_1" data-name="Layer 1" viewBox="0 0 24 24">
  <path d="m24,7v1c0,.553-.447,1-1,1s-1-.447-1-1v-1c0-1.654-1.346-3-3-3H5c-1.654,0-3,1.346-3,3v6c0,1.654,1.346,3,3,3h4c.552,0,1,.447,1,1s-.448,1-1,1h-4v5c0,.553-.448,1-1,1s-1-.447-1-1v-5.424c-1.763-.774-3-2.531-3-4.576v-6c0-2.045,1.237-3.802,3-4.576v-1.424c0-.553.448-1,1-1s1,.447,1,1v1h14v-1c0-.553.447-1,1-1s1,.447,1,1v1.424c1.763.774,3,2.531,3,4.576Zm-2.654,3.255c-.458-.308-1.048-.339-1.543-.076-.495.264-.803.774-.803,1.334v1.875c0,.54-.362,1.022-.824,1.098-.301.05-.593-.029-.821-.223-.226-.191-.354-.47-.354-.763v-1.987c0-.56-.308-1.07-.803-1.334-.492-.262-1.083-.233-1.543.076-1.588,1.067-2.654,3.175-2.654,5.245,0,2.159,1.158,4.133,3,5.197v2.303c0,.553.447,1,1,1s1-.447,1-1v-2.916c0-.397-.235-.757-.6-.916-1.458-.639-2.4-2.078-2.4-3.668,0-1.028.387-2.09,1-2.861v.861c0,.881.386,1.715,1.06,2.286.672.572,1.561.818,2.441.673,1.425-.234,2.499-1.555,2.499-3.071v-.75c.613.771,1,1.834,1,2.862,0,1.59-.942,3.029-2.4,3.668-.364.159-.6.519-.6.916v2.916c0,.553.447,1,1,1s1-.447,1-1v-2.303c1.842-1.064,3-3.038,3-5.197,0-2.07-1.066-4.178-2.654-5.245Z"/>
</svg>
