<?xml version="1.0" encoding="UTF-8"?>
<svg xmlns="http://www.w3.org/2000/svg" id="Layer_1" data-name="Layer 1" viewBox="0 0 24 24">
  <path d="m24,14.5c0,4.136-3.364,7.5-7.5,7.5H7.5c-4.136,0-7.5-3.364-7.5-7.5s3.364-7.5,7.5-7.5h6.133c-.032-.039-.059-.08-.095-.116L8.401,1.704c-.389-.392-.386-1.025.006-1.414.392-.388,1.026-.386,1.414.006l5.134,5.177c.673.673,1.045,1.571,1.045,2.527s-.372,1.854-1.048,2.53l-5.131,5.174c-.195.197-.453.296-.71.296-.254,0-.509-.097-.704-.29-.392-.389-.395-1.022-.006-1.414l5.134-5.177c.037-.037.065-.079.098-.119h-6.133c-3.033,0-5.5,2.467-5.5,5.5s2.467,5.5,5.5,5.5h9c3.033,0,5.5-2.467,5.5-5.5,0-2.227-1.327-4.22-3.382-5.078-.509-.213-.75-.799-.537-1.309.214-.509.797-.749,1.309-.537,2.801,1.17,4.61,3.888,4.61,6.923Z"/>
</svg>
