<?xml version="1.0" encoding="UTF-8"?>
<svg xmlns="http://www.w3.org/2000/svg" id="Layer_1" data-name="Layer 1" viewBox="0 0 24 24">
  <path d="m14.173,15.664c.275-.381.441-.844.441-1.349,0-1.106-.803-2.022-1.84-2.252v-.265c-.001-.441-.359-.799-.8-.799h-.007c-.44,0-.797.355-.8.794v.206h-.867c-.442,0-.8.358-.8.8v6.4c0,.442.358.8.8.8h.9v.2c0,.442.358.8.8.8s.8-.358.8-.8v-.2l.231-.029c1.237-.146,2.2-1.187,2.2-2.463,0-.734-.481-1.507-1.058-1.843Zm-3.173-2.065h1.298c.394,0,.715.321.715.715,0,.367-.282.66-.639.7h-1.374v-1.415Zm1.738,4.8h-1.738l-.013-1.785h1.752c.492,0,.893.4.893.892s-.4.893-.893.893Zm.259-10.331l-.017-5.092,2.824,2.741c.194.188.445.282.696.282.261,0,.521-.102.718-.304.385-.396.375-1.029-.021-1.414l-3.808-3.696c-.78-.78-2.05-.778-2.822-.006l-3.768,3.707c-.394.388-.399,1.021-.012,1.414s1.021.398,1.414.012l2.779-2.719.017,5.076c-3.938.496-6.997,3.859-6.997,7.93,0,4.411,3.589,8,8,8s8-3.589,8-8c0-4.073-3.062-7.438-7.003-7.931Zm-.997,13.931c-3.309,0-6-2.691-6-6s2.691-6,6-6,6,2.691,6,6-2.691,6-6,6Z"/>
</svg>
