<?xml version="1.0" encoding="UTF-8"?>
<svg xmlns="http://www.w3.org/2000/svg" id="Layer_1" data-name="Layer 1" viewBox="0 0 24 24">
  <path d="m20.656,14.856c-1.195-1.142-3.089-1.141-4.282.007l-1.464,1.165c-3.198-1.357-5.474-3.638-6.932-6.947l1.159-1.456c1.146-1.192,1.147-3.085.006-4.281,0,0-1.852-2.407-1.883-2.438-1.206-1.208-3.172-1.207-4.327-.047l-1.149,1.003C.634,3.012,0,4.565,0,6.238c0,7.636,10.126,17.762,17.762,17.762,1.673,0,3.227-.633,4.421-1.833l.912-1.05c1.205-1.207,1.205-3.17,0-4.376-.03-.031-2.438-1.883-2.438-1.883Zm.977,4.896l-.912,1.05c-.771.772-1.821,1.197-2.959,1.197-5.989,0-15.762-8.805-15.762-15.762,0-1.138.425-2.189,1.146-2.913l1.15-1.005c.214-.213.494-.32.775-.32.263,0,.526.094.734.283,0,0,1.842,2.393,1.872,2.423.428.427.428,1.123,0,1.549-.027.027-1.635,2.044-1.635,2.044-.225.281-.279.661-.146.995,1.713,4.268,4.681,7.232,8.821,8.812.328.126.702.068.979-.151,0,0,2.018-1.608,2.044-1.635.414-.414,1.135-.414,1.549,0,.03.031,2.425,1.873,2.425,1.873.388.43.374,1.097-.085,1.56ZM23.121.879C22.555.312,21.802,0,21,0h-4c-1.654.002-3,1.348-3,3.001v6.621c.003.515.287.983.744,1.221.195.102.406.153.621.153.289,0,.586-.094.86-.286l2.127-1.71h2.647c1.654,0,3-1.346,3-3v-3c0-.802-.313-1.555-.879-2.122Zm-1.121,5.121c0,.551-.448,1-1,1h-3c-.228,0-.449.078-.627.221l-1.372,1.105V3.002c0-.551.448-1,.999-1h4c.268,0,.519.103.707.292.188.189.293.44.293.708v3Z"/>
</svg>
