<?xml version="1.0" encoding="UTF-8"?>
<svg xmlns="http://www.w3.org/2000/svg" id="Layer_1" data-name="Layer 1" viewBox="0 0 24 24">
  <path d="M23.297,10.035c-.35-.404-.803-.686-1.297-.856v-.179c0-2.045-1.237-3.802-3-4.576V2c0-1.103-.897-2-2-2h-2c-1.103,0-2,.897-2,2v1c0,.552,.448,1,1,1s1-.448,1-1v-1h2v2h-1c-.552,0-1,.448-1,1s.448,1,1,1h1c1.654,0,3,1.346,3,3h-6c0-2.045-1.237-3.802-3-4.576V2c0-1.103-.897-2-2-2h-2c-1.103,0-2,.897-2,2v2.424c-1.763,.774-3,2.531-3,4.576v.189c-.482,.172-.923,.45-1.266,.846C.164,10.692-.093,11.563,.034,12.446l1.058,6.403c.419,2.937,2.973,5.151,5.939,5.151h9.969c2.966,0,5.52-2.215,5.937-5.13l1.063-6.446c.124-.861-.133-1.732-.703-2.39ZM7,2h2v2h-2V2Zm0,4h2c1.654,0,3,1.346,3,3H4c0-1.654,1.346-3,3-3Zm13.96,12.565c-.28,1.958-1.982,3.435-3.96,3.435H7.031c-1.978,0-3.68-1.477-3.963-3.456l-1.058-6.403c-.042-.291,.042-.574,.234-.796,.193-.223,.461-.345,.756-.345H21.03c.294,0,.563,.123,.756,.345,.193,.222,.276,.505,.237,.774l-1.063,6.446Zm-7.96-4.565v5c0,.553-.448,1-1,1s-1-.447-1-1v-5c0-.553,.448-1,1-1s1,.447,1,1Zm5,0v5c0,.553-.448,1-1,1s-1-.447-1-1v-5c0-.553,.448-1,1-1s1,.447,1,1Zm-10,0v5c0,.553-.448,1-1,1s-1-.447-1-1v-5c0-.553,.448-1,1-1s1,.447,1,1Z"/>
</svg>
