<?xml version="1.0" encoding="UTF-8"?>
<svg xmlns="http://www.w3.org/2000/svg" id="Layer_1" data-name="Layer 1" viewBox="0 0 24 24">
  <path d="m6,23c0,.552-.447,1-1,1-2.757,0-5-2.243-5-5V5C0,2.243,2.243,0,5,0h12c2.757,0,5,2.243,5,5v8c0,.552-.447,1-1,1s-1-.448-1-1V5c0-1.654-1.346-3-3-3H5c-1.654,0-3,1.346-3,3v14c0,1.654,1.346,3,3,3,.553,0,1,.448,1,1ZM18,7c0,1.654-1.346,3-3,3H7c-1.654,0-3-1.346-3-3s1.346-3,3-3h8c1.654,0,3,1.346,3,3Zm-2,0c0-.551-.448-1-1-1H7c-.552,0-1,.449-1,1s.448,1,1,1h8c.552,0,1-.449,1-1Zm-10,7c.553,0,1-.448,1-1s-.447-1-1-1h-1c-.553,0-1,.448-1,1s.447,1,1,1h1Zm5,0c.553,0,1-.448,1-1s-.447-1-1-1h-1c-.553,0-1,.448-1,1s.447,1,1,1h1Zm6-2h-2c-.553,0-1,.448-1,1s.447,1,1,1h2c.553,0,1-.448,1-1s-.447-1-1-1Zm.968,10.976c.124.424-.119.868-.543.993-.075.021-.15.032-.225.032-.347,0-.666-.227-.768-.576l-.241-.825h-2.968l-.255.825c-.123.424-.564.667-.992.543-.424-.124-.667-.568-.543-.993l1.684-5.759c.213-.728.849-1.216,1.583-1.216s1.371.489,1.584,1.216l1.247,4.262c.008.017.009.036.016.054l.422,1.443Zm-2.244-1.976l-.975-3.334-1.031,3.334h2.006Zm6.463-1.005l1.697-2.789c.229-.377.109-.87-.268-1.1-.379-.231-.871-.11-1.1.268l-1.267,2.082-1.267-2.082c-.229-.377-.722-.499-1.1-.268-.377.23-.497.722-.268,1.1l1.697,2.789-1.697,2.789c-.229.377-.109.87.268,1.1.13.079.273.117.415.117.271,0,.534-.137.685-.384l1.267-2.082,1.267,2.082c.15.248.414.384.685.384.142,0,.285-.038.415-.117.377-.23.497-.722.268-1.1l-1.697-2.789Zm-10.187-3.195c0-.442-.358-.8-.8-.8h-4.4c-.441,0-.8.358-.8.8s.358.8.8.8h1.4v5.601c0,.442.358.8.8.8s.8-.358.8-.8v-5.601h1.4c.441,0,.8-.358.8-.8Z"/>
</svg>
