<?xml version="1.0" encoding="UTF-8"?>
<svg xmlns="http://www.w3.org/2000/svg" id="Layer_1" data-name="Layer 1" viewBox="0 0 24 24">
  <path d="M23.261,8.6c-.49-.448-1.146-.66-1.801-.585-5.656,.654-8.256,4.435-9.448,7.569-1.192-3.134-3.792-6.916-9.447-7.569-.655-.078-1.312,.137-1.803,.586C.276,9.046,.008,9.674,.024,10.323c.087,3.27,1.156,5.867,3.179,7.72,2.607,2.389,6.083,2.863,7.809,2.943v2.014c0,.553,.447,1,1,1s1-.447,1-1v-2.014c1.727-.08,5.202-.554,7.81-2.943,2.022-1.853,3.092-4.45,3.179-7.72h0c.017-.65-.253-1.278-.739-1.723ZM4.554,16.568c-1.607-1.473-2.458-3.591-2.529-6.298h0c-.003-.096,.054-.163,.088-.194,.033-.03,.099-.077,.19-.077,.01,0,.021,0,.031,.001,6.567,.759,8.173,6.542,8.56,8.974-1.502-.096-4.298-.536-6.34-2.407Zm14.926-.009c-2.031,1.868-4.84,2.314-6.349,2.413,.387-2.434,1.995-8.212,8.56-8.971,.011,0,.021-.001,.031-.001,.091,0,.156,.046,.189,.076,.034,.032,.092,.099,.089,.195-.071,2.701-.919,4.816-2.521,6.289ZM7.782,4.696c-.385-.396-.375-1.029,.021-1.414L10.597,.575C10.98,.191,11.489,0,11.999,0c0,0,0,0,.001,0,0,0,0,0,0,0,.511,.001,1.023,.196,1.414,.586l2.782,2.696c.396,.385,.406,1.018,.021,1.414-.196,.203-.457,.304-.718,.304-.251,0-.502-.094-.696-.282l-1.804-1.748v6.03c0,.552-.447,1-1,1s-1-.448-1-1V2.983l-1.804,1.735c-.396,.383-1.028,.375-1.414-.022Z"/>
</svg>
