<?xml version="1.0" encoding="UTF-8"?>
<svg xmlns="http://www.w3.org/2000/svg" id="Layer_1" data-name="Layer 1" viewBox="0 0 24 24">
  <path d="M24,18c0,.553-.448,1-1,1v2c0,.553-.448,1-1,1s-1-.447-1-1v-6c0-.553,.448-1,1-1s1,.447,1,1v2c.552,0,1,.447,1,1Zm-5-6c-.552,0-1,.447-1,1v4H6v-4c0-.553-.448-1-1-1s-1,.447-1,1v10c0,.553,.448,1,1,1s1-.447,1-1v-4h12v4c0,.553,.448,1,1,1s1-.447,1-1V13c0-.553-.448-1-1-1ZM2,14c-.552,0-1,.447-1,1v2c-.552,0-1,.447-1,1s.448,1,1,1v2c0,.553,.448,1,1,1s1-.447,1-1v-6c0-.553-.448-1-1-1Zm4.879-4.777c-.366-.493-.474-1.114-.296-1.702L8.714,1.348c.278-.806,1.038-1.348,1.891-1.348h1.894c.659,0,1.275,.324,1.648,.867s.455,1.234,.219,1.85l-.453,1.283h1.68c.703,0,1.346,.385,1.679,1.004s.297,1.368-.091,1.954l-4.262,6.236c-.366,.531-.934,.82-1.528,.82-.271,0-.548-.061-.813-.186-.847-.399-1.259-1.307-1.001-2.207l.538-1.622h-1.691c-.615,0-1.178-.283-1.544-.777Zm1.643-1.191l2.978-.031c.321,0,.623,.154,.811,.415s.239,.596,.138,.9l-.661,1.988,3.659-5.353-2.947,.049c-.325,0-.629-.157-.816-.423-.188-.265-.234-.604-.126-.91l.933-2.642-1.885-.025-2.083,6.031Z"/>
</svg>
