<?xml version="1.0" encoding="UTF-8"?>
<svg xmlns="http://www.w3.org/2000/svg" id="Layer_1" data-name="Layer 1" viewBox="0 0 24 24">
  <path d="m8,12c3.309,0,6-2.691,6-6S11.309,0,8,0,2,2.691,2,6s2.691,6,6,6Zm0-10c2.206,0,4,1.794,4,4s-1.794,4-4,4-4-1.794-4-4,1.794-4,4-4Zm1.99,13.213c-.078.547-.583.923-1.132.849-.283-.041-.571-.062-.858-.062-3.309,0-6,2.691-6,6v1c0,.553-.448,1-1,1s-1-.447-1-1v-1c0-4.411,3.589-8,8-8,.381,0,.766.027,1.142.081.547.079.926.586.848,1.132Zm8.01-3.213c-3.309,0-6,2.691-6,6s2.691,6,6,6,6-2.691,6-6-2.691-6-6-6Zm1,9.858v-.858c0-.553-.448-1-1-1s-1,.447-1,1v.858c-1.399-.364-2.494-1.459-2.858-2.858h.858c.552,0,1-.447,1-1s-.448-1-1-1h-.858c.364-1.399,1.459-2.494,2.858-2.858v.858c0,.553.448,1,1,1s1-.447,1-1v-.858c1.399.364,2.494,1.459,2.858,2.858h-.858c-.552,0-1,.447-1,1s.448,1,1,1h.858c-.364,1.399-1.459,2.494-2.858,2.858Z"/>
</svg>
