<?xml version="1.0" encoding="UTF-8"?>
<svg xmlns="http://www.w3.org/2000/svg" id="Layer_1" data-name="Layer 1" viewBox="0 0 24 24">
  <path d="M17,10c-3.86,0-7,3.141-7,7s3.14,7,7,7,7-3.141,7-7-3.14-7-7-7Zm0,12c-2.757,0-5-2.243-5-5s2.243-5,5-5,5,2.243,5,5-2.243,5-5,5Zm3.222-6.212c.382,.398,.369,1.031-.029,1.414l-2.213,2.124c-.452,.446-1.051,.671-1.653,.671s-1.204-.224-1.664-.674l-1.132-1.109c-.395-.386-.401-1.02-.015-1.414,.387-.394,1.02-.401,1.414-.014l1.131,1.108c.145,.142,.378,.139,.522,0l2.223-2.135c.398-.382,1.03-.371,1.414,.029Zm-11.222,3.134v4.078c0,.553-.448,1-1,1s-1-.447-1-1v-4.078c-3.417-.479-6-3.458-6-6.922v-4C.448,8,0,7.553,0,7s.448-1,1-1h3V1c0-.553,.448-1,1-1s1,.447,1,1V6h5V1c0-.553,.448-1,1-1s1,.447,1,1V6h3c.552,0,1,.447,1,1s-.448,1-1,1H3v4c0,2.475,1.844,4.603,4.289,4.95,.975,.139,1.711,.986,1.711,1.972Z"/>
</svg>
