<?xml version="1.0" encoding="UTF-8"?>
<svg xmlns="http://www.w3.org/2000/svg" id="Layer_1" data-name="Layer 1" viewBox="0 0 24 24">
  <path d="m14.5,13.5c0,1.381-1.119,2.5-2.5,2.5s-2.5-1.119-2.5-2.5,1.119-2.5,2.5-2.5,2.5,1.119,2.5,2.5Zm7.735-2.178c-.374-.404-1.006-.431-1.413-.057l-5.638,5.205c-.371.342-.853.53-1.356.53h-3.654c-.504,0-.986-.188-1.356-.53l-5.638-5.205c-.406-.374-1.038-.348-1.413.057-.375.406-.349,1.039.057,1.413l5.638,5.205c.168.155.351.289.54.412v4.648c0,.552.448,1,1,1s1-.448,1-1v-4.016c.058.003,3.942.003,4,0v4.016c0,.552.448,1,1,1s1-.448,1-1v-4.648c.189-.123.372-.257.54-.412l5.638-5.205c.406-.375.431-1.007.057-1.413Zm-12.959-5.216l-.784,2.513c-.106.337.012.705.295.917.148.111.323.166.5.166.161,0,.323-.047.463-.141l2.257-1.51,2.295,1.495c.296.193.682.177.964-.038.281-.216.394-.586.282-.922l-.815-2.484,1.971-1.606c.268-.225.366-.594.246-.923-.12-.329-.433-.548-.783-.548h-2.501l-.885-2.483c-.121-.326-.433-.542-.781-.542s-.66.216-.781.542l-.885,2.483h-2.501c-.349,0-.662.218-.782.546-.121.328-.024.696.243.922l1.981,1.612Z"/>
</svg>
