<?xml version="1.0" encoding="UTF-8"?>
<svg xmlns="http://www.w3.org/2000/svg" id="Layer_1" data-name="Layer 1" viewBox="0 0 24 24">
  <path d="m16.987,2.5c0-1.381,1.119-2.5,2.5-2.5s2.5,1.119,2.5,2.5-1.119,2.5-2.5,2.5-2.5-1.119-2.5-2.5Zm3.013,3.5h-3.12c-.279,0-.549-.118-.737-.324L11.237.324c-.373-.406-1.005-.435-1.413-.062-.407.373-.435,1.006-.062,1.413l4.905,5.352c.567.618,1.373.973,2.212.973h3.12c1.103,0,2,.897,2,2v3c0,1.103-.897,2-2,2h-2v-4c0-.553-.447-1-1-1s-1,.447-1,1v12c0,.553.447,1,1,1s1-.447,1-1v-6h2v6c0,.553.447,1,1,1s1-.447,1-1v-6.556c1.19-.694,2-1.97,2-3.444v-3c0-2.206-1.794-4-4-4ZM5.325,14.549c-.732-.73-1.921-.731-2.629-.021l-2.382,2.244c-.402.379-.421,1.012-.042,1.413.378.403,1.011.422,1.413.042l1.314-1.238v6.011c0,.553.447,1,1,1s1-.447,1-1v-6.011l1.314,1.238c.193.183.439.272.686.272.266,0,.531-.105.728-.314.379-.401.36-1.034-.042-1.413l-2.36-2.224Zm7-5c-.731-.732-1.921-.731-2.629-.021l-2.382,2.244c-.402.379-.421,1.012-.042,1.413.378.402,1.012.422,1.413.042l1.314-1.238v11.011c0,.553.447,1,1,1s1-.447,1-1v-11.011l1.314,1.238c.193.183.439.272.686.272.266,0,.531-.105.728-.314.379-.401.36-1.034-.042-1.413l-2.36-2.224Z"/>
</svg>
