<?xml version="1.0" encoding="UTF-8"?>
<svg xmlns="http://www.w3.org/2000/svg" id="Layer_1" data-name="Layer 1" viewBox="0 0 24 24">
  <path d="m22,1c0,.552-.448,1-1,1h-8c-1.654,0-3,1.346-3,3v16.614c.036-.03.083-.042.116-.075l5.18-5.137c.392-.389,1.026-.386,1.414.006.389.393.386,1.025-.006,1.414l-5.177,5.134c-.673.673-1.572,1.045-2.527,1.045s-1.854-.372-2.529-1.048l-5.175-5.131c-.392-.389-.395-1.021-.006-1.414.388-.393,1.021-.396,1.414-.006l5.177,5.134c.034.034.082.047.119.077V5c0-2.757,2.243-5,5-5h8c.552,0,1,.448,1,1Z"/>
</svg>
