<?xml version="1.0" encoding="UTF-8"?>
<svg xmlns="http://www.w3.org/2000/svg" id="Layer_1" data-name="Layer 1" viewBox="0 0 24 24">
  <path d="m6,12c3.309,0,6-2.691,6-6S9.309,0,6,0,0,2.691,0,6s2.691,6,6,6Zm0-10c2.206,0,4,1.794,4,4,0,1.127-.472,2.143-1.225,2.87-.446-1.095-1.516-1.87-2.77-1.87h-.01c-1.255,0-2.326.774-2.772,1.869-.751-.728-1.223-1.742-1.223-2.869,0-2.206,1.794-4,4-4Zm-1.5,2.5c0-.828.672-1.5,1.5-1.5s1.5.672,1.5,1.5-.672,1.5-1.5,1.5-1.5-.672-1.5-1.5Zm18.863,2.379c-.119.047-.242.068-.363.068-.4,0-.778-.241-.932-.637l-1.114-2.855c-3.657,7.752-10.274,12.966-19.694,15.511-.087.023-.175.034-.261.034-.441,0-.845-.293-.965-.739-.144-.533.171-1.082.705-1.227,8.859-2.393,15.057-7.279,18.45-14.532l-3.072,1.198c-.517.202-1.095-.055-1.295-.568-.201-.515.054-1.094.568-1.295L19.791.12c.957-.376,2.048.102,2.424,1.062l1.717,4.401c.201.515-.054,1.094-.568,1.295Zm-.363,2.121v14c0,.553-.448,1-1,1s-1-.447-1-1v-14c0-.553.448-1,1-1s1,.447,1,1Zm-5,5v9c0,.553-.448,1-1,1s-1-.447-1-1v-9c0-.553.448-1,1-1s1,.447,1,1Zm-5,4v5c0,.553-.448,1-1,1s-1-.447-1-1v-5c0-.553.448-1,1-1s1,.447,1,1Zm-5,2v3c0,.553-.448,1-1,1s-1-.447-1-1v-3c0-.553.448-1,1-1s1,.447,1,1Zm-5,2v1c0,.553-.448,1-1,1s-1-.447-1-1v-1c0-.553.448-1,1-1s1,.447,1,1Z"/>
</svg>
