<?xml version="1.0" encoding="UTF-8"?>
<svg xmlns="http://www.w3.org/2000/svg" id="Layer_1" data-name="Layer 1" viewBox="0 0 24 24">
  <path d="m12,11c0,.359-.192.69-.504.868l-3.5,2c-.156.089-.327.132-.495.132-.348,0-.685-.181-.869-.504-.274-.479-.107-1.09.372-1.364l2.996-1.712v-4.42c0-.552.447-1,1-1s1,.448,1,1v5Zm12,6v4c0,1.654-1.346,3-3,3h-6c-1.654,0-3-1.346-3-3v-4c0-1.302.839-2.402,2-2.816v-1.184c0-.552.447-1,1-1s1,.448,1,1v1h4v-1c0-.552.447-1,1-1s1,.448,1,1v1.184c1.161.414,2,1.514,2,2.816Zm-2,4v-3h-8v3c0,.551.448,1,1,1h6c.552,0,1-.449,1-1Zm-12.801-1.18c-4.172-.847-7.199-4.556-7.199-8.82C2,6.038,6.037,2,11,2c4.264,0,7.973,3.028,8.819,7.199.11.541.636.893,1.18.781.541-.11.891-.638.781-1.179C20.744,3.701,16.211,0,11,0,4.935,0,0,4.935,0,11c0,5.211,3.701,9.745,8.801,10.78.067.014.135.02.2.02.466,0,.883-.327.979-.801.109-.541-.24-1.069-.781-1.179Z"/>
</svg>
