<?xml version="1.0" encoding="UTF-8"?>
<svg xmlns="http://www.w3.org/2000/svg" id="Layer_1" data-name="Layer 1" viewBox="0 0 24 24">
  <path d="m17,7.916V3.5c0-.141-.03-.274-.083-.396-.171-.705-.633-1.316-1.3-1.649l-2.276-1.138c-.845-.422-1.839-.422-2.683,0l-2.276,1.138c-.667.334-1.129.945-1.3,1.651-.052.121-.082.254-.082.394v.188s0,.002,0,.003v.309h0v3.916l-1.863,11.054c-.323,1.21-.07,2.474.692,3.467.764.994,1.919,1.563,3.172,1.563h.999c.553,0,1-.447,1-1v-2c0-.552.448-1,1-1s1,.448,1,1v2c0,.553.447,1,1,1h.998c1.253,0,2.408-.569,3.172-1.563.763-.993,1.016-2.257.713-3.376l-1.883-11.145Zm-2-3.916v3h-6v-3h6Zm1.584,17.219c-.381.496-.959.78-1.584.781v-1c0-1.654-1.346-3-3-3s-3,1.346-3,3v1c-.626,0-1.203-.285-1.585-.781-.381-.497-.508-1.129-.326-1.824l1.757-10.395h6.309l1.776,10.485c.161.604.034,1.236-.347,1.733Zm2.468-17.902c-.175-.524.108-1.091.632-1.265l3-1c.528-.177,1.09.108,1.265.632.175.524-.108,1.091-.632,1.265l-3,1c-.105.035-.212.052-.316.052-.419,0-.809-.265-.948-.684Zm4.896,5c-.14.419-.529.684-.948.684-.104,0-.211-.017-.316-.052l-3-1c-.523-.174-.807-.74-.632-1.265.175-.523.735-.81,1.265-.632l3,1c.523.174.807.74.632,1.265ZM4.948,3.316c-.14.419-.529.684-.948.684-.104,0-.211-.017-.316-.052L.684,2.948C.16,2.774-.123,2.208.052,1.684c.175-.523.735-.809,1.265-.632l3,1c.523.174.807.74.632,1.265Zm0,3.367c.175.524-.108,1.091-.632,1.265l-3,1c-.105.035-.212.052-.316.052-.419,0-.809-.265-.948-.684-.175-.524.108-1.091.632-1.265l3-1c.528-.178,1.09.108,1.265.632Z"/>
</svg>
