<?xml version="1.0" encoding="UTF-8"?>
<svg xmlns="http://www.w3.org/2000/svg" id="Layer_1" data-name="Layer 1" viewBox="0 0 24 24">
  <path d="m11.375,11.805s.473.195.626.195c.126,0,.559-.147.559-.147,1.042-.419,4.44-2.07,4.44-5.723v-2.63c0-1.08-.688-2.033-1.714-2.373l-2.971-.985c-.205-.067-.425-.067-.629,0l-2.973.985c-1.024.34-1.713,1.293-1.713,2.373v2.63c0,3.237,3.349,5.162,4.375,5.675Zm-2.375-8.305c0-.216.138-.407.342-.475l2.658-.881,2.657.881c.205.068.343.259.343.475v2.63c0,2.189-2.032,3.353-2.955,3.769-.839-.457-3.045-1.84-3.045-3.769v-2.63Zm8.819,7.296c.4.135.811.204,1.22.204h3.961c.553,0,1,.448,1,1s-.447,1-1,1h-3.961c-.627,0-1.252-.104-1.858-.308-.523-.177-.805-.744-.628-1.268.176-.523.742-.806,1.267-.628Zm6.181,8.204c0,.553-.447,1-1,1h-4.531l-4.065,3.173c-.684.533-1.537.827-2.403.827s-1.72-.294-2.403-.827l-4.066-3.173H1c-.552,0-1-.447-1-1s.448-1,1-1h4.875c.223,0,.439.074.615.212l4.337,3.385c.667.52,1.679.52,2.346,0l3.118-2.434-4.027-3.589-1.604,1.493c-.3.302-.749.477-1.215.433-.462-.036-.883-.274-1.156-.652-.451-.63-.372-1.492.188-2.054l1.215-1.122c.764-.703,1.944-.86,2.856-.404.16.05.31.141.432.272l.003.003c.04.031,4.781,4.256,5.007,4.457h5.009c.553,0,1,.447,1,1ZM0,12c0-.552.448-1,1-1h3.958c.41,0,.821-.068,1.223-.204.526-.175,1.09.106,1.267.629.176.523-.105,1.091-.629,1.267-.608.205-1.234.308-1.86.308H1c-.552,0-1-.448-1-1Z"/>
</svg>
