<?xml version="1.0" encoding="UTF-8"?>
<svg xmlns="http://www.w3.org/2000/svg" id="Layer_1" data-name="Layer 1" viewBox="0 0 24 24">
  <path d="M23.743,11.068l-1.112-3.334c-.544-1.633-2.072-2.734-3.793-2.734h-.838c-1.105,0-2,.895-2,2v4H4c-2.209,0-4,1.791-4,4v4.492c0,1.937,1.57,3.508,3.508,3.508,0,0,.233-.006,.35-.018,.826-.083,1.561-.485,2.116-1.072,.77,.806,1.912,1.253,3.154,1.034,1.692-.299,2.871-1.862,2.871-3.581v-.364h4v.399c0,1.67,1.129,3.19,2.765,3.525,2.25,.461,4.235-1.255,4.235-3.425v-1.882c.615-.703,1-1.612,1-2.618v-2.351c0-.649-.209-1.437-.257-1.581ZM5,19.5c0,.828-.672,1.5-1.5,1.5s-1.5-.672-1.5-1.5v-.5h3v.5Zm5,0c0,.827-.673,1.5-1.5,1.5s-1.5-.673-1.5-1.5c0-.016-.008-.029-.009-.045,0-.033,.009-.455,.009-.455h3v.5Zm6-2.5H2v-2c0-1.103,.897-2,2-2h12v4Zm2-10h.838c.862,0,1.624,.549,1.897,1.368l.877,2.632h-3.612V7Zm3,12.5c0,.827-.673,1.5-1.5,1.5s-1.5-.673-1.5-1.5v-.5h2c.347,0,.678-.058,1-.142v.642Zm1-4.5c0,1.103-.897,2-2,2h-2v-4h4v2ZM1,7c-.552,0-1,.448-1,1s.448,1,1,1H13c.553,0,1-.448,1-1s-.447-1-1-1h-1V3h1c.553,0,1-.448,1-1s-.447-1-1-1H1c-.552,0-1,.448-1,1s.448,1,1,1h1V7H1ZM8,3h2V7h-2V3Zm-4,0h2V7h-2V3Z"/>
</svg>
