<?xml version="1.0" encoding="UTF-8"?>
<svg xmlns="http://www.w3.org/2000/svg" id="Layer_1" data-name="Layer 1" viewBox="0 0 24 24">
  <path d="m22.204,2.162c-1.141-.952-2.634-1.343-4.098-1.081l-3.822.695c-.913.167-1.706.634-2.284,1.289-.578-.655-1.371-1.123-2.285-1.289l-3.821-.695c-1.461-.263-2.956.129-4.098,1.081-1.142.953-1.796,2.352-1.796,3.839v10.792c0,2.417,1.727,4.486,4.106,4.919l6.284,1.143c.534.097,1.072.146,1.61.146s1.076-.048,1.61-.146l6.285-1.143c2.379-.433,4.105-2.502,4.105-4.919V6.001c0-1.487-.655-2.886-1.796-3.839Zm-11.204,18.766c-.084-.012-.168-.026-.252-.041l-6.284-1.143c-1.428-.26-2.464-1.501-2.464-2.952V6.001c0-.892.393-1.731,1.078-2.303.545-.455,1.223-.697,1.919-.697.179,0,.36.016.54.049l3.821.695c.952.173,1.643,1.001,1.643,1.968v15.216Zm11-4.135c0,1.451-1.036,2.692-2.463,2.952l-6.284,1.143c-.084.015-.168.029-.252.041V5.712c0-.967.691-1.794,1.642-1.968l3.821-.695c.878-.162,1.773.077,2.459.648.685.572,1.078,1.411,1.078,2.303v10.792Zm-16.5-3.793v-6c0-.552.448-1,1-1s1,.448,1,1v6c0,.552-.448,1-1,1s-1-.448-1-1Zm2.5,3.5c0,.828-.672,1.5-1.5,1.5s-1.5-.672-1.5-1.5.672-1.5,1.5-1.5,1.5.672,1.5,1.5Z"/>
</svg>
