<?xml version="1.0" encoding="UTF-8"?>
<svg xmlns="http://www.w3.org/2000/svg" id="Layer_1" data-name="Layer 1" viewBox="0 0 24 24">
  <path d="M23.641,10.76l-1.008-3.024c-.546-1.636-2.07-2.735-3.795-2.735h-1.939c-.465-2.279-2.484-4-4.899-4H4.465C2.686,1,1.026,1.958,.135,3.499c-.277,.479-.113,1.09,.364,1.366,.479,.277,1.09,.113,1.366-.364,.536-.926,1.532-1.501,2.6-1.501h7.535c1.654,0,3,1.346,3,3v11H2v-1c0-.553-.447-1-1-1s-1,.447-1,1v2c0,.553,.447,1,1,1h1v.5c0,1.93,1.57,3.5,3.5,3.5s3.5-1.57,3.5-3.5v-.5h6v.5c0,1.93,1.57,3.5,3.5,3.5s3.5-1.57,3.5-3.5v-1.056c1.19-.694,2-1.97,2-3.444v-2.026c0-.754-.121-1.499-.359-2.214Zm-2.905-2.392l.878,2.632h-4.613V7h1.838c.862,0,1.624,.55,1.897,1.368ZM7,19.5c0,.827-.673,1.5-1.5,1.5s-1.5-.673-1.5-1.5v-.5h3v.5Zm13,0c0,.827-.673,1.5-1.5,1.5s-1.5-.673-1.5-1.5v-.5h3v.5Zm0-2.5h-3v-4h5v2c0,1.103-.897,2-2,2ZM0,12.375V7.625c0-.345,.28-.625,.625-.625H1.875c.345,0,.625,.28,.625,.625s-.28,.625-.625,.625h-.623l.005,1.252h.617c.346-.002,.626,.278,.626,.624h0c0,.345-.279,.625-.624,.625h-.626v1.624c0,.345-.28,.625-.625,.625s-.625-.28-.625-.625Zm9.875-4.125h-.623l.005,1.183h.617c.346-.002,.626,.278,.626,.624h0c0,.345-.279,.625-.624,.625h-.62s-.004,1.068-.004,1.068h.623c.345,0,.625,.28,.625,.625s-.28,.625-.625,.625h-1.25c-.345,0-.625-.28-.625-.625V7.625c0-.345,.28-.625,.625-.625h1.25c.345,0,.625,.28,.625,.625s-.28,.625-.625,.625Zm3.5,0h-.623l.005,1.183h.617c.346-.002,.626,.278,.626,.624h0c0,.345-.279,.625-.624,.625h-.62s-.004,1.068-.004,1.068h.623c.345,0,.625,.28,.625,.625s-.28,.625-.625,.625h-1.25c-.345,0-.625-.28-.625-.625V7.625c0-.345,.28-.625,.625-.625h1.25c.345,0,.625,.28,.625,.625s-.28,.625-.625,.625Zm-8.387-1.25h-.866c-.344,0-.623,.279-.623,.623v4.755c0,.344,.279,.623,.623,.623h.005c.344,0,.623-.279,.623-.623v-1.404l.238-.003c.121,0,.238-.015,.353-.035l.47,1.617c.077,.266,.321,.449,.598,.449,.418,0,.717-.404,.596-.804l-.562-1.848c.343-.356,.557-.835,.557-1.364,0-1.094-.902-1.985-2.012-1.985Zm0,2.72l-.231,.003-.005-1.473h.236c.413,0,.762,.336,.762,.735s-.349,.735-.762,.735Z"/>
</svg>
