<?xml version="1.0" encoding="UTF-8"?>
<svg xmlns="http://www.w3.org/2000/svg" id="Layer_1" data-name="Layer 1" viewBox="0 0 24 24">
  <path d="m20.724,17.023l-3.033-13.147c-.527-2.282-2.53-3.875-4.872-3.875h-.818c-.553,0-1,.448-1,1s.447,1,1,1h.818c1.405,0,2.607.956,2.923,2.325l1.794,7.774-3.109,3.8c-.571.7-1.418,1.101-2.321,1.101H1c-.553,0-1,.448-1,1s.447,1,1,1h.351c-.219.456-.351.961-.351,1.5,0,1.93,1.57,3.5,3.5,3.5s3.5-1.57,3.5-3.5c0-.539-.133-1.044-.351-1.5h4.456c1.506,0,2.916-.668,3.869-1.834l2.13-2.602.671,2.91c-1.054.604-1.775,1.727-1.775,3.027,0,1.93,1.57,3.5,3.5,3.5s3.5-1.57,3.5-3.5c0-1.853-1.452-3.359-3.276-3.477Zm-14.724,3.477c0,.827-.673,1.5-1.5,1.5s-1.5-.673-1.5-1.5.673-1.5,1.5-1.5,1.5.673,1.5,1.5Zm14.5,1.5c-.827,0-1.5-.673-1.5-1.5s.673-1.5,1.5-1.5,1.5.673,1.5,1.5-.673,1.5-1.5,1.5Z"/>
</svg>
