<?xml version="1.0" encoding="UTF-8"?>
<svg xmlns="http://www.w3.org/2000/svg" id="Layer_1" data-name="Layer 1" viewBox="0 0 24 24">
  <path d="m7,5.5c0-.828.672-1.5,1.5-1.5s1.5.672,1.5,1.5-.672,1.5-1.5,1.5-1.5-.672-1.5-1.5Zm17,6.553v6.172c0,1.482-.808,2.833-2.106,3.526-1.929,1.026-5.21,2.25-9.894,2.25-5.321,0-8.85-2.612-10.48-4.169C.546,18.903-.011,17.594-.009,16.24c.002-1.536.313-5.547,3.089-9.841-.049-.293-.08-.592-.08-.899C3,2.467,5.467,0,8.5,0s5.5,2.467,5.5,5.5c0,2.862-2.197,5.217-4.993,5.474-.036.648-.11,1.257-.225,1.83.995-.415,2.266-.772,3.718-.804.669,0,1.367.124,1.896.302.438-.55,2.769-3.302,5.604-3.302.477,0,.935.024,1.362.072,1.504.169,2.638,1.45,2.638,2.98ZM5,5.5c0,1.93,1.57,3.5,3.5,3.5s3.5-1.57,3.5-3.5-1.57-3.5-3.5-3.5-3.5,1.57-3.5,3.5Zm17,6.553c0-.511-.37-.938-.86-.993-.354-.04-.737-.06-1.14-.06-1.505,0-3.067,1.425-3.809,2.271.716.568,1.107,1.124,1.139,1.172.308.458.186,1.08-.272,1.387-.171.115-.365.17-.557.17-.32,0-.635-.153-.828-.438-.055-.078-1.164-1.591-3.15-1.562-2.859.064-4.854,1.722-4.875,1.738-.014.011-.273.226-.753.226-.433,0-1-.493-.884-1.092.037-.115.099-.352.1-.354.548-1.065.832-2.265.907-3.727-1.215-.341-2.259-1.088-2.979-2.087-1.821,3.361-2.047,6.326-2.048,7.539,0,.821.322,1.581.91,2.142,1.414,1.351,4.477,3.616,9.1,3.616,4.271,0,7.227-1.096,8.953-2.015.646-.344,1.047-1.019,1.047-1.761v-6.172Z"/>
</svg>
