<?xml version="1.0" encoding="UTF-8"?>
<svg xmlns="http://www.w3.org/2000/svg" id="Layer_1" data-name="Layer 1" viewBox="0 0 24 24">
  <path d="m19,18c-1.379,0-2.5-1.121-2.5-2.5s1.121-2.5,2.5-2.5,2.5,1.121,2.5,2.5-1.121,2.5-2.5,2.5Zm2-14H5c-.856,0-1.653-.381-2.216-1.004.549-.607,1.335-.996,2.216-.996h18c.552,0,1-.448,1-1s-.448-1-1-1H5C2.239,0,0,2.239,0,5v10c0,2.761,2.239,5,5,5h8c.552,0,1-.448,1-1s-.448-1-1-1H5c-1.657,0-3-1.343-3-3V5s.002-.001.005-.002c.853.638,1.901,1.002,2.995,1.002h16c.552,0,1,.448,1,1v5c0,.552.448,1,1,1s1-.448,1-1v-5c0-1.657-1.343-3-3-3Zm-2,15c-2.333,0-4.375,1.538-4.966,3.741-.143.533.173,1.082.707,1.225.534.143,1.081-.173,1.225-.707.357-1.33,1.605-2.259,3.034-2.259s2.677.929,3.034,2.259c.12.447.524.741.965.741.085,0,.173-.011.26-.035.533-.143.85-.692.707-1.225-.591-2.203-2.633-3.741-4.966-3.741Z"/>
</svg>
