<?xml version="1.0" encoding="UTF-8"?>
<svg xmlns="http://www.w3.org/2000/svg" id="Layer_1" data-name="Layer 1" viewBox="0 0 24 24">
  <path d="m23.985,20.229l-.109-1c-.138-1.271-1.206-2.23-2.485-2.23h-1.932l-.182-2h1.223c.709,0,1.387-.303,1.86-.83.474-.528.702-1.235.625-1.94l-.109-1c-.138-1.271-1.206-2.23-2.485-2.23h-1.66l-.182-2h.95c.709,0,1.387-.303,1.86-.83.474-.528.702-1.235.625-1.94l-.109-1c-.138-1.271-1.206-2.23-2.485-2.23h-1.387l-.008-.09c-.05-.55-.529-.95-1.086-.906-.519.047-.895.486-.896.996H7.986c-.001-.51-.377-.949-.896-.996-.553-.046-1.036.355-1.086.906l-.008.09h-1.387c-1.279,0-2.348.958-2.485,2.229l-.109,1c-.077.705.151,1.412.625,1.94.474.527,1.151.83,1.86.83h.95l-.182,2h-1.66c-1.279,0-2.348.958-2.485,2.229l-.109,1c-.077.705.151,1.412.625,1.94.474.527,1.151.83,1.86.83h1.223l-.182,2h-1.932c-1.279,0-2.348.958-2.485,2.229l-.109,1c-.077.705.151,1.412.625,1.94.474.527,1.151.83,1.86.83h1.514c.001.51.377.949.896.996.031.002.061.004.091.004.512,0,.948-.39.995-.91l.008-.09h11.991l.008.09c.047.52.483.91.995.91.03,0,.061-.001.091-.004.519-.047.895-.486.896-.996h1.514c.709,0,1.387-.303,1.86-.83.474-.528.702-1.235.625-1.94Zm-19.808.771h-1.677c-.194,0-.316-.104-.372-.166s-.146-.195-.125-.388l.109-1c.027-.254.241-.446.497-.446h1.75l-.182,2Zm.727-8h-1.405c-.194,0-.316-.104-.372-.166s-.146-.195-.125-.388l.109-1c.027-.254.241-.446.497-.446h1.478l-.182,2Zm.727-8h-1.132c-.194,0-.316-.104-.372-.166s-.146-.195-.125-.388l.109-1c.027-.254.241-.446.497-.446h1.205l-.182,2Zm2.19-2h8.355l.182,2H7.641l.182-2Zm-.364,4h9.082l.182,2H7.277l.182-2Zm-.364,4h9.81l.182,2H6.913l.182-2Zm-.364,4h10.537l.182,2H6.55l.182-2Zm-.545,6l.182-2h11.264l.182,2H6.186ZM18.186,3h1.205c.256,0,.47.191.497.446l.109,1c.021.193-.069.326-.125.388s-.178.166-.372.166h-1.132l-.182-2Zm.727,8h1.478c.256,0,.47.191.497.446l.109,1c.021.193-.069.326-.125.388s-.178.166-.372.166h-1.405l-.182-2Zm2.959,9.834c-.056.062-.178.166-.372.166h-1.677l-.182-2h1.75c.256,0,.47.191.497.446l.109,1c.021.193-.069.326-.125.388Z"/>
</svg>
