<?xml version="1.0" encoding="UTF-8"?>
<svg xmlns="http://www.w3.org/2000/svg" id="Layer_1" data-name="Layer 1" viewBox="0 0 24 24">
  <path d="m.007,8.822c-.004.059-.001-.06,0,0H.007Zm23.625,11.922c-.185.321-.521.501-.868.501-.169,0-.341-.043-.498-.134l-.977-.563c-.605.652-1.393,1.126-2.289,1.331v1.121c0,.553-.448,1-1,1s-1-.447-1-1v-1.121c-.896-.205-1.685-.678-2.289-1.331l-.977.563c-.157.091-.329.134-.498.134-.346,0-.683-.18-.868-.501-.275-.479-.111-1.09.368-1.365l.983-.566c-.129-.418-.218-.853-.218-1.313s.089-.895.218-1.313l-.983-.566c-.479-.275-.643-.887-.368-1.365.276-.479.888-.643,1.366-.367l.977.563c.605-.652,1.393-1.126,2.289-1.331v-1.121c0-.553.448-1,1-1s1,.447,1,1v1.121c.896.205,1.685.678,2.289,1.331l.977-.563c.479-.275,1.09-.111,1.366.367.275.479.111,1.09-.368,1.365l-.983.566c.129.418.218.853.218,1.313s-.089.895-.218,1.313l.983.566c.479.275.643.887.368,1.365Zm-3.132-3.244c0-1.379-1.122-2.5-2.5-2.5s-2.5,1.121-2.5,2.5,1.122,2.5,2.5,2.5,2.5-1.121,2.5-2.5ZM7,5h5c1.105,0,2,.895,2,2v3c0,.552.448,1,1,1s1-.448,1-1v-3c0-2.209-1.791-4-4-4h-.661c.081-.519.162-1.051.161-1.083-.021-1.083-.796-1.875-2.178-1.917-1.08.077-1.894,1.015-1.817,2.096.016.184.075.545.138.904h-.643c-2.209,0-4,1.791-4,4v.659c-.514-.08-1.037-.16-1.068-.159-1.083.021-1.943.917-1.922,2-.038,1.272,1.02,2.072,2.1,1.995.182-.015.535-.073.89-.135v.641c0,2.209,1.791,4,4,4h1.488c.651,0,1.219-.426,1.413-1.048.255-.815.628-1.577,1.101-2.266.246-.358.269-.854-.039-1.161-.317-.316-.791-.525-1.464-.525-1.308,0-2,1-1.995,2.11,0,.182.073.535.135.89h-.64c-1.105,0-2-.895-2-2v-5c0-1.105.895-2,2-2Z"/>
</svg>
