<?xml version="1.0" encoding="UTF-8"?>
<svg xmlns="http://www.w3.org/2000/svg" id="Layer_1" data-name="Layer 1" viewBox="0 0 24 24">
  <path d="m10,23c0,.552-.447,1-1,1h-4c-2.757,0-5-2.243-5-5v-9.276c0-1.665.824-3.214,2.203-4.145L9.203.855c1.699-1.146,3.895-1.146,5.594,0l7.203,4.893c.99.749,1.692,1.844,1.918,3.071.101.543-.259,1.064-.802,1.165-.54.098-1.065-.258-1.165-.802-.146-.789-.609-1.498-1.272-1.945l-7.001-4.724c-1.02-.688-2.336-.688-3.355,0L3.322,7.237c-.828.558-1.322,1.488-1.322,2.487v9.276c0,1.654,1.346,3,3,3h4c.553,0,1,.448,1,1Zm7,1.034c-4.603,0-7-3.405-7-7.034,0-2.065,1.153-3.533,2.282-4.696.284-.293.718-.383,1.094-.23.377.153.624.52.624.927.003.273.064.57.139.772.109-.325.221-.795.311-1.173.318-1.339.714-3.005,1.795-4.253.182-.21.442-.335.72-.345.297-.011.547.096.743.292.376.375.867.802,1.388,1.254,2.07,1.797,4.905,4.258,4.905,7.453,0,3.629-2.397,7.034-7,7.034Zm0-2.034c1.308,0,1.5-1.064,1.5-1.464s-.156-.777-.439-1.061l-1.061-1.061-1.061,1.061c-.283.284-.439.66-.439,1.061s.192,1.464,1.5,1.464Zm5-5c0-2.283-2.338-4.312-4.216-5.943-.204-.177-.404-.35-.597-.52-.377.774-.594,1.688-.792,2.524-.344,1.445-.699,2.939-2.113,2.939-.764,0-1.325-.369-1.7-.915-.368.59-.582,1.205-.582,1.915,0,1.395.578,2.656,1.503,3.564,0-.01-.003-.019-.003-.028,0-.935.364-1.814,1.025-2.475l1.768-1.768c.391-.391,1.023-.391,1.414,0l1.768,1.768c.661.661,1.025,1.54,1.025,2.475,0,.01-.003.019-.003.028.925-.908,1.503-2.169,1.503-3.564Z"/>
</svg>
