<?xml version="1.0" encoding="UTF-8"?>
<svg xmlns="http://www.w3.org/2000/svg" id="Layer_1" data-name="Layer 1" viewBox="0 0 24 24">
  <path d="m23.899,16.232l-.862-3.256c-.464-1.753-2.055-2.977-3.867-2.977H4.83c-1.813,0-3.403,1.224-3.867,2.977l-.862,3.256c-.24.907-.05,1.854.523,2.598.572.743,1.438,1.17,2.377,1.17h7.999v2h-4c-.552,0-1,.447-1,1s.448,1,1,1h10c.553,0,1-.447,1-1s-.447-1-1-1h-4v-2h7.999c.938,0,1.805-.427,2.378-1.17.572-.744.763-1.69.522-2.598Zm-2.796-2.744l.135.512h-4.558l-.143-2h2.632c.906,0,1.701.612,1.934,1.488Zm-12.065,4.512l.143-2h5.638l.143,2h-5.924Zm.286-4l.143-2h5.067l.143,2h-5.352Zm-4.495-2h2.632l-.143,2H2.761l.135-.512c.231-.876,1.027-1.488,1.933-1.488Zm-2.621,5.61c-.191-.248-.254-.563-.174-.866l.197-.744h4.944l-.143,2H3.001c-.312,0-.602-.143-.792-.39Zm19.583,0c-.191.248-.48.391-.793.391h-4.033l-.143-2h4.945l.197.744c.08.303.017.618-.174.865ZM4,7c0-.553.448-1,1-1h2.101c.188-.923.64-1.745,1.261-2.408l-1.351-2.04c-.305-.46-.179-1.08.281-1.386.459-.305,1.08-.18,1.386.282l1.318,1.99c.616-.272,1.289-.438,2.004-.438s1.389.166,2.006.439l1.328-1.993c.306-.459.925-.583,1.387-.277.459.306.584.927.277,1.387l-1.359,2.039c.62.662,1.072,1.484,1.26,2.406h2.101c.553,0,1,.447,1,1s-.447,1-1,1h-3c-.553,0-1-.447-1-1,0-1.654-1.346-3-3-3s-3,1.346-3,3c0,.553-.448,1-1,1h-3c-.552,0-1-.447-1-1Z"/>
</svg>
