<?xml version="1.0" encoding="UTF-8"?>
<svg xmlns="http://www.w3.org/2000/svg" id="Layer_1" data-name="Layer 1" viewBox="0 0 24 24">
  <path d="M20.595,14.996l2.245-1.2c.701-.375,1.137-1.102,1.136-1.897,0-.795-.436-1.521-1.137-1.895l-2.411-1.287,2.343-4.201c.319-.631,.214-1.373-.27-1.89-.482-.517-1.217-.674-1.871-.396l-4.594,1.967-1.634-3.06c-.374-.702-1.101-1.138-1.896-1.138s-1.523,.437-1.898,1.14l-1.535,2.883L3.811,1.272c-.751-.4-1.653-.255-2.242,.361-.588,.616-.691,1.522-.228,2.301l3.196,4.78-3.492,1.612C.386,10.651-.015,11.31,0,12.045s.443,1.377,1.139,1.684l3.419,1.411s-1.805,3.546-1.819,3.584c-.265,.722-.095,1.512,.443,2.062,.539,.549,1.324,.737,2.081,.476l3.817-1.442,1.628,3.043c.376,.703,1.103,1.138,1.9,1.138h.02c.805-.007,1.532-.457,1.899-1.173l1.48-2.895,5.306,2.825c.728,.36,1.567,.221,2.141-.354,.573-.575,.709-1.416,.306-2.216l-3.165-5.19Zm-4.545,2.692c-.235-.125-.514-.15-.77-.071-.256,.081-.469,.26-.591,.499l-1.943,3.8c-.011,.021-.043,.083-.137,.084h-.002c-.092,0-.125-.062-.136-.082l-2.043-3.816c-.179-.333-.522-.528-.882-.528-.118,0-.237,.021-.353,.064l-4.567,1.771,2.206-4.326c.126-.249,.144-.539,.047-.801s-.298-.471-.557-.578l-4.132-1.705,4.248-1.96c.266-.123,.464-.355,.543-.637,.08-.282,.031-.583-.131-.827L3.293,3.259l5.733,2.996c.488,.256,1.088,.069,1.346-.417l2.001-3.759c.011-.02,.042-.08,.133-.08,.09,0,.121,.06,.132,.079h0s2.066,3.87,2.066,3.87c.244,.458,.8,.652,1.275,.449l4.535-1.941-2.329,4.176c-.131,.234-.162,.512-.086,.769,.075,.258,.251,.474,.488,.601l3.31,1.767c.02,.01,.078,.042,.078,.131,0,.09-.06,.122-.079,.132l-3.178,1.699c-.242,.13-.421,.354-.493,.619-.072,.266-.032,.549,.111,.784l3.412,5.589-5.699-3.034Z"/>
</svg>
