<?xml version="1.0" encoding="UTF-8"?>
<svg xmlns="http://www.w3.org/2000/svg" id="Layer_1" data-name="Layer 1" viewBox="0 0 24 24">
  <path d="M21,6h-3c0-3.309-2.691-6-6-6S6,2.691,6,6H3c-1.654,0-3,1.346-3,3v10c0,2.757,2.243,5,5,5h1c.553,0,1-.447,1-1s-.447-1-1-1h-1c-1.654,0-3-1.346-3-3V9c0-.551,.448-1,1-1h3v2c0,.552,.447,1,1,1s1-.448,1-1v-2h8v2c0,.552,.447,1,1,1s1-.448,1-1v-2h3c.552,0,1,.449,1,1v10c0,1.654-1.346,3-3,3h-1c-.553,0-1,.447-1,1s.447,1,1,1h1c2.757,0,5-2.243,5-5V9c0-1.654-1.346-3-3-3Zm-13,0c0-2.206,1.794-4,4-4s4,1.794,4,4H8Zm4.001,7.003h-.005c-1.335,0-2.589,.52-3.531,1.464-1.949,1.949-1.949,5.122,.008,7.079l1.781,1.742c.481,.471,1.113,.706,1.746,.706s1.265-.235,1.746-.706l1.789-1.75c1.949-1.949,1.949-5.122,0-7.071-.944-.944-2.199-1.464-3.534-1.464Zm2.128,7.113l-1.781,1.742c-.195,.191-.5,.191-.695,0l-1.773-1.734c-1.17-1.17-1.17-3.073,0-4.243,.564-.566,1.316-.878,2.117-.878h.003c.802,0,1.555,.312,2.121,.878,1.17,1.17,1.17,3.073,.008,4.235Z"/>
</svg>
