<?xml version="1.0" encoding="UTF-8"?>
<svg xmlns="http://www.w3.org/2000/svg" id="Layer_1" data-name="Layer 1" viewBox="0 0 24 24">
  <path d="M23,2H13V1c0-.552-.448-1-1-1s-1,.448-1,1v1H1c-.552,0-1,.448-1,1s.448,1,1,1h3.878C2.832,8.4,1.515,14.306,1.084,17.602c-.053,.122-.062,.498-.054,.549-.131,1.703,.279,3.154,1.209,4.209,.932,1.058,2.342,1.64,3.971,1.64h11.58c1.629,0,3.039-.582,3.971-1.64,.93-1.055,1.339-2.506,1.209-4.209,.008-.052,0-.428-.054-.55-.431-3.297-1.749-9.203-3.793-13.602h3.878c.553,0,1-.448,1-1s-.447-1-1-1Zm-12,2v3H5.791c.401-1.07,.84-2.084,1.313-3h3.895ZM3.765,14h7.235v3H3.194c.138-.877,.328-1.895,.572-3Zm9.235,0h7.234c.243,1.105,.433,2.123,.572,3h-7.806v-3Zm6.758-2h-6.758v-3h5.899c.319,1.001,.606,2.014,.859,3Zm-8.758,0H4.242c.253-.986,.54-1.999,.859-3h5.899v3ZM3.74,21.038c-.445-.505-.686-1.202-.726-2.038h7.987v3H6.21c-1.062,0-1.916-.333-2.47-.962Zm14.05,.962h-4.79v-3h7.987c-.041,.836-.282,1.533-.727,2.038-.555,.629-1.408,.962-2.47,.962Zm.418-15h-5.208v-3h3.895c.473,.916,.912,1.93,1.313,3Z"/>
</svg>
