<?xml version="1.0" encoding="UTF-8"?>
<svg xmlns="http://www.w3.org/2000/svg" id="Layer_1" data-name="Layer 1" viewBox="0 0 24 24">
  <path d="m19.707,15.707l-1.293,1.293,1.293,1.293c.391.391.391,1.023,0,1.414-.195.195-.451.293-.707.293s-.512-.098-.707-.293l-1.293-1.293-1.293,1.293c-.195.195-.451.293-.707.293s-.512-.098-.707-.293c-.391-.391-.391-1.023,0-1.414l1.293-1.293-1.293-1.293c-.391-.391-.391-1.023,0-1.414s1.023-.391,1.414,0l1.293,1.293,1.293-1.293c.391-.391,1.023-.391,1.414,0s.391,1.023,0,1.414Zm4.293,1.293c0,3.859-3.141,7-7,7s-7-3.141-7-7,3.141-7,7-7,7,3.141,7,7Zm-2,0c0-2.757-2.243-5-5-5s-5,2.243-5,5,2.243,5,5,5,5-2.243,5-5Zm-13,5h-4c-1.654,0-3-1.346-3-3v-9.276c0-.999.494-1.929,1.322-2.486l7-4.724c1.02-.689,2.336-.689,3.355,0l7.001,4.724c.663.447,1.127,1.156,1.272,1.944.1.543.625.904,1.165.802.543-.101.902-.622.802-1.165-.226-1.226-.928-2.322-1.918-3.07L14.797.855c-1.699-1.146-3.895-1.146-5.594,0L2.204,5.579c-1.38.93-2.204,2.479-2.204,4.145v9.276c0,2.757,2.243,5,5,5h4c.553,0,1-.447,1-1s-.447-1-1-1Z"/>
</svg>
