<?xml version="1.0" encoding="UTF-8"?>
<svg xmlns="http://www.w3.org/2000/svg" id="Layer_1" data-name="Layer 1" viewBox="0 0 24 24">
  <path d="m19,2h-1v-1c0-.552-.448-1-1-1s-1,.448-1,1v1h-8v-1c0-.552-.448-1-1-1s-1,.448-1,1v1h-1C2.243,2,0,4.243,0,7v12c0,2.757,2.243,5,5,5,.552,0,1-.448,1-1s-.448-1-1-1c-1.654,0-3-1.346-3-3v-9h20v3c0,.552.448,1,1,1s1-.448,1-1v-6c0-2.757-2.243-5-5-5ZM2,8v-1c0-1.654,1.346-3,3-3h14c1.654,0,3,1.346,3,3v1H2Zm14.284,9.217c-.212-.728-.849-1.216-1.583-1.217h0c-.734,0-1.371.489-1.584,1.216l-1.684,5.759c-.124.424.12.869.543.993.423.121.868-.12.993-.543l.255-.825h2.968l.241.825c.103.349.421.576.768.576.075,0,.15-.011.225-.032.424-.125.667-.568.543-.993l-1.685-5.759Zm-2.566,3.783l1.03-3.334.975,3.334h-2.005Zm10.166-3.794l-1.697,2.789,1.697,2.789c.229.377.11.87-.268,1.1-.13.079-.273.117-.415.117-.27,0-.534-.137-.685-.384l-1.267-2.082-1.267,2.082c-.151.248-.415.384-.685.384-.142,0-.285-.038-.415-.117-.377-.23-.497-.722-.268-1.1l1.697-2.789-1.697-2.789c-.229-.377-.11-.87.268-1.1.376-.231.87-.11,1.1.268l1.267,2.082,1.267-2.082c.23-.377.722-.497,1.1-.268.377.23.497.722.268,1.1Zm-12.684.394h-1.4v5.601c0,.442-.358.8-.8.8s-.8-.358-.8-.8v-5.601h-1.4c-.442,0-.8-.358-.8-.8s.358-.8.8-.8h4.4c.442,0,.8.358.8.8s-.358.8-.8.8Z"/>
</svg>
