<?xml version="1.0" encoding="UTF-8"?>
<svg xmlns="http://www.w3.org/2000/svg" id="Layer_1" data-name="Layer 1" viewBox="0 0 24 24">
  <path d="m6.878,4.97c-.525-.573-.604-1.426-.192-2.085l1.215-1.945c.365-.585,1.006-.94,1.696-.94h1.528l-1.126,3h4l-1.126-3h1.451c.69,0,1.331.355,1.696.94l1.215,1.945c.412.659.334,1.512-.192,2.085l-5.045,5.03,2.06-5h-4.121l2.06,5-5.122-5.03Zm14.122-1.97c-1.654,0-3,1.346-3,3v5.184c-.266-.094-.542-.164-.832-.18-.793-.042-1.567.227-2.173.769l-3.009,2.768c-.082-.084-.16-.172-.247-.252l-2.744-2.525c-.597-.534-1.374-.807-2.163-.76-.29.016-.566.086-.832.18v-5.184c0-1.654-1.346-3-3-3S0,4.346,0,6v10.101c0,2.137.832,4.146,2.343,5.656l1.95,1.95c.195.195.451.293.707.293s.512-.098.707-.293c.391-.391.391-1.023,0-1.414l-1.95-1.95c-1.133-1.133-1.757-2.64-1.757-4.242V6c0-.551.448-1,1-1s1,.449,1,1c0,0-.005,8.075,0,8.114.029.655.285,1.31.746,1.858l2.616,2.721c.382.397,1.015.41,1.414.027.397-.383.41-1.016.027-1.414l-2.571-2.67c-.316-.378-.307-.938.022-1.306.177-.198.421-.315.687-.33.263-.017.521.076.71.244l2.734,2.517c1.025.943,1.614,2.285,1.614,3.679v3.56c0,.553.447,1,1,1s1-.447,1-1v-3.56c0-1.152-.294-2.275-.824-3.276l3.163-2.911c.198-.178.455-.271.72-.253.266.015.51.132.688.331.159.178.24.401.254.622v.046s0,.002,0,.003c.003.216-.058.427-.188.583l-2.533,2.634c-.383.398-.37,1.031.027,1.414.194.187.443.279.693.279.263,0,.524-.103.721-.307l2.578-2.685c.45-.536.687-1.196.701-1.859.001-.022,0-8.063,0-8.063,0-.551.448-1,1-1s1,.449,1,1v10.101c0,1.603-.624,3.109-1.757,4.242l-1.95,1.95c-.391.391-.391,1.023,0,1.414.195.195.451.293.707.293s.512-.098.707-.293l1.95-1.95c1.511-1.511,2.343-3.52,2.343-5.656V6c0-1.654-1.346-3-3-3Z"/>
</svg>
