<?xml version="1.0" encoding="UTF-8"?>
<svg xmlns="http://www.w3.org/2000/svg" id="Layer_1" data-name="Layer 1" viewBox="0 0 24 24">
  <path d="M24,23c0,.552-.448,1-1,1h-6c-2.757,0-5-2.243-5-5v-5H2.648l3.268,3.296c.389,.392,.386,1.025-.006,1.414-.195,.193-.45,.29-.704,.29-.257,0-.515-.099-.71-.296L.829,15.006c-.534-.534-.829-1.247-.829-2.006s.295-1.472,.832-2.009l3.665-3.695c.388-.394,1.021-.395,1.414-.006,.392,.389,.395,1.022,.006,1.414l-3.268,3.296H12V2.648l-3.296,3.268c-.391,.389-1.026,.387-1.414-.006-.389-.392-.386-1.025,.006-1.414L10.994,.829c1.067-1.067,2.941-1.07,4.015,.003l3.695,3.665c.392,.389,.395,1.022,.006,1.414-.195,.197-.453,.296-.71,.296-.254,0-.509-.097-.704-.29l-3.296-3.268V19c0,1.654,1.346,3,3,3h6c.552,0,1,.448,1,1Z"/>
</svg>
