<?xml version="1.0" encoding="UTF-8"?>
<svg xmlns="http://www.w3.org/2000/svg" id="Layer_1" data-name="Layer 1" viewBox="0 0 24 24">
  <path d="m20.904.694c-2.318-.922-4.49-.922-6.809,0-.85.337-1.563.919-2.096,1.639-.532-.719-1.245-1.301-2.096-1.639C7.586-.228,5.414-.228,3.096.694,1.244,1.429,0,3.288,0,5.32v17.68c0,.552.447,1,1,1s1-.448,1-1v-1h9v1c0,.552.447,1,1,1s1-.448,1-1v-1h9v1c0,.552.447,1,1,1s1-.448,1-1V5.32c0-2.032-1.244-3.891-3.096-4.625Zm-6.07,1.858c1.848-.733,3.484-.733,5.332,0,1,.397,1.694,1.357,1.81,2.447h-8.952c.116-1.09.81-2.05,1.81-2.447Zm-11,0c1.848-.733,3.484-.733,5.332,0,1,.397,1.694,1.357,1.81,2.447H2.024c.116-1.09.81-2.05,1.81-2.447Zm-1.834,17.447V7h9v5h-1c-.553,0-1,.448-1,1s.447,1,1,1h1v6H2Zm11,0V7h9v5h-1c-.553,0-1,.448-1,1s.447,1,1,1h1v6h-9Z"/>
</svg>
