<?xml version="1.0" encoding="UTF-8"?>
<svg xmlns="http://www.w3.org/2000/svg" id="Layer_1" data-name="Layer 1" viewBox="0 0 24 24">
  <path d="M23.71,10.069c-.195,.197-.453,.296-.71,.296-.255,0-.509-.097-.704-.29l-2.296-2.277v10.202c0,3.309-2.691,6-6,6H7c-.553,0-1-.447-1-1s.447-1,1-1h7c2.206,0,4-1.794,4-4V7.798l-2.296,2.277c-.393,.387-1.025,.387-1.414-.006-.389-.392-.387-1.025,.006-1.414l2.958-2.934c.93-.929,2.561-.931,3.494,.002l2.956,2.931c.393,.389,.395,1.022,.006,1.414Zm-14.006,5.275c.393-.389,.395-1.022,.006-1.414-.391-.394-1.022-.395-1.414-.006l-2.296,2.277V6c0-2.206,1.794-4,4-4h7c.553,0,1-.448,1-1s-.447-1-1-1h-7c-3.309,0-6,2.691-6,6v10.202l-2.296-2.277c-.392-.388-1.024-.387-1.414,.006-.389,.392-.387,1.025,.006,1.414l2.955,2.931c.467,.468,1.088,.725,1.749,.725s1.282-.257,1.746-.722l2.958-2.934Z"/>
</svg>
