<?xml version="1.0" encoding="UTF-8"?>
<svg xmlns="http://www.w3.org/2000/svg" id="Layer_1" data-name="Layer 1" viewBox="0 0 24 24">
  <path d="m24,12.5c0,2.062-.819,3.984-2.308,5.412-.399.382-1.031.369-1.414-.029-.382-.398-.369-1.031.029-1.414,1.092-1.047,1.692-2.457,1.692-3.969,0-2.614-1.857-4.882-4.417-5.394-.958-.191-1.744-.8-2.158-1.673-1.183-2.494-3.814-3.832-6.568-3.329-2.406.44-4.368,2.439-4.771,4.862-.122.737-.114,1.471.023,2.18.191.989-.178,2.047-.962,2.762-.729.663-1.147,1.606-1.147,2.591,0,1.17.582,2.259,1.557,2.911.459.308.582.929.274,1.388-.193.288-.51.443-.832.443-.191,0-.385-.055-.556-.169-1.53-1.024-2.443-2.734-2.443-4.573,0-1.546.656-3.03,1.801-4.07.272-.248.405-.594.346-.902-.184-.943-.194-1.916-.033-2.889C2.66,3.349,5.226.736,8.497.137c3.59-.658,7.184,1.167,8.734,4.439.141.295.411.502.742.569,3.492.697,6.026,3.79,6.026,7.354Zm-12-.5h-1.086l1.793-1.793c.391-.391.391-1.023,0-1.414s-1.023-.391-1.414,0l-2.75,2.75c-.78.78-.78,2.049,0,2.828l2.75,2.75c.195.195.451.293.707.293s.512-.098.707-.293c.391-.391.391-1.023,0-1.414l-1.707-1.707h1c2.206,0,4,1.794,4,4s-1.794,4-4,4-4-1.794-4-4c0-.271.026-.54.08-.802.109-.541-.241-1.068-.782-1.179-.539-.11-1.068.241-1.179.782-.079.392-.119.795-.119,1.198,0,3.309,2.691,6,6,6s6-2.691,6-6-2.691-6-6-6Z"/>
</svg>
