<?xml version="1.0" encoding="UTF-8"?>
<svg xmlns="http://www.w3.org/2000/svg" id="Layer_1" data-name="Layer 1" viewBox="0 0 24 24">
  <path d="m23.851,15.449c-.333-.88-1.156-1.449-2.098-1.449h-4.997l2.717-11.775c.124-.539-.212-1.075-.75-1.2-.537-.12-1.074.212-1.199.75l-2.821,12.225h-1.704V1c0-.552-.447-1-1-1s-1,.448-1,1v13h-1.704L6.474,1.775c-.125-.538-.663-.87-1.199-.75-.538.125-.874.661-.75,1.2l2.717,11.775H2.247c-.941,0-1.765.569-2.098,1.449-.335.883-.094,1.859.613,2.485,1.491,1.319,3.214,2.246,4.951,2.714-.501.421-.952.908-1.326,1.467l-.22.328c-.308.459-.185,1.08.274,1.388.458.307,1.08.184,1.388-.274l.221-.33c.929-1.394,2.484-2.227,4.16-2.227h3.577c1.676,0,3.231.833,4.16,2.227l.219.328c.192.289.51.445.833.445.19,0,.383-.054.554-.168.46-.306.584-.927.277-1.387l-.219-.328c-.373-.56-.826-1.047-1.327-1.469,1.738-.468,3.461-1.395,4.952-2.714.707-.626.948-1.602.613-2.485Zm-1.939.987c-1.814,1.605-4.095,2.564-6.1,2.564h-7.624c-2.005,0-4.285-.958-6.1-2.564-.087-.077-.11-.17-.069-.279.039-.104.116-.157.228-.157h19.507c.111,0,.188.053.228.157.041.108.018.202-.069.279Z"/>
</svg>
