<?xml version="1.0" encoding="UTF-8"?>
<svg xmlns="http://www.w3.org/2000/svg" id="Layer_1" data-name="Layer 1" viewBox="0 0 24 24">
  <path d="m23.702,20.212l-3.17,3.129c-.358.402-.932.659-1.532.659s-1.174-.257-1.575-.704l-3.127-3.084c-.394-.389-.397-1.021-.01-1.414.39-.394,1.022-.397,1.414-.01l2.298,2.238v-12.526c0-1.379-1.121-2.5-2.5-2.5s-2.5,1.121-2.5,2.5v7c0,2.481-2.019,4.5-4.5,4.5s-4.5-2.019-4.5-4.5V2.944l-2.298,2.268c-.392.388-1.024.384-1.414-.01-.388-.393-.384-1.025.01-1.414L3.468.659c.358-.402.932-.659,1.532-.659s1.174.257,1.575.704l3.127,3.084c.394.389.397,1.021.01,1.414-.196.198-.454.298-.712.298-.254,0-.508-.096-.702-.288l-2.298-2.238v12.526c0,1.379,1.121,2.5,2.5,2.5s2.5-1.121,2.5-2.5v-7c0-2.481,2.019-4.5,4.5-4.5s4.5,2.019,4.5,4.5v12.556l2.298-2.268c.393-.388,1.025-.384,1.414.01.388.393.384,1.025-.01,1.414Z"/>
</svg>
