<?xml version="1.0" encoding="UTF-8"?>
<svg xmlns="http://www.w3.org/2000/svg" id="Layer_1" data-name="Layer 1" viewBox="0 0 24 24">
  <path d="m20.656,14.856c-1.195-1.143-3.089-1.138-4.281.006l-1.464,1.165c-3.198-1.357-5.474-3.637-6.932-6.945l1.158-1.456c1.146-1.193,1.149-3.086.007-4.282,0,0-1.853-2.407-1.883-2.438-1.207-1.207-3.17-1.206-4.327-.047l-1.15,1.004C.633,3.012,0,4.565,0,6.238c0,7.636,10.126,17.762,17.762,17.762,1.673,0,3.227-.634,4.421-1.834l.911-1.049c1.207-1.207,1.207-3.171,0-4.378-.031-.031-2.438-1.883-2.438-1.883Zm.976,4.897l-.911,1.05c-.77.771-1.821,1.196-2.959,1.196-5.989,0-15.762-8.806-15.762-15.762,0-1.138.425-2.188,1.147-2.913l1.15-1.004c.214-.214.495-.32.775-.32.264,0,.527.094.735.281,0,0,1.842,2.395,1.873,2.425.207.207.321.482.321.774s-.114.567-.321.774c-.027.026-1.635,2.044-1.635,2.044-.224.282-.279.662-.145.996,1.713,4.267,4.682,7.231,8.822,8.812.33.125.702.068.979-.152,0,0,2.018-1.607,2.044-1.635.426-.426,1.121-.428,1.549,0,.03.03,2.423,1.872,2.423,1.872.389.43.375,1.097-.085,1.561Zm-7.338-15.26c-.267-.226-.364-.594-.243-.922.12-.328.432-.546.782-.546h2.501l.885-2.483c.121-.326.433-.542.781-.542s.66.216.781.542l.885,2.483h2.501c.35,0,.663.219.783.548.12.329.022.698-.246.923l-1.971,1.606.815,2.484c.112.336-.002.706-.282.922-.281.216-.667.231-.964.038l-2.295-1.495-2.257,1.51c-.14.094-.302.141-.464.141-.176,0-.352-.056-.5-.166-.283-.212-.401-.58-.295-.917l.784-2.513-1.981-1.612Z"/>
</svg>
