<?xml version="1.0" encoding="UTF-8"?>
<svg xmlns="http://www.w3.org/2000/svg" id="Layer_1" data-name="Layer 1" viewBox="0 0 24 24">
  <path d="M24,14.5c0,3.645-5.271,6.5-12,6.5S0,18.145,0,14.5c0-2.167,1.854-4.123,5-5.318v-.182c0-3.86,3.14-7,7-7,1.23,0,2.441,.324,3.501,.937,.478,.277,.642,.889,.364,1.367-.276,.477-.887,.641-1.366,.365-.756-.438-1.62-.668-2.499-.668-2.757,0-5,2.243-5,5v1.993c0,.357,.182,.679,.486,.86,.876,.523,2.37,1.146,4.514,1.146,.552,0,1,.448,1,1s-.448,1-1,1c-2.6,0-4.447-.777-5.539-1.429-.801-.478-1.308-1.316-1.416-2.235-1.9,.857-3.045,2.012-3.045,3.164,0,2.128,4.107,4.5,10,4.5s10-2.372,10-4.5c0-.552,.447-1,1-1s1,.448,1,1ZM15.956,6.64c.853-.853,2.235-.853,3.088,0,.464,.464,.666,1.084,.626,1.691,.607-.041,1.227,.162,1.691,.626,.853,.853,.853,2.236,0,3.088-.464,.464-1.084,.666-1.691,.626,.041,.607-.162,1.227-.626,1.691-.853,.853-2.235,.853-3.088,0-.464-.464-.666-1.084-.626-1.691-.607,.041-1.227-.162-1.691-.626-.853-.853-.853-2.235,0-3.088,.464-.464,1.084-.666,1.691-.626-.041-.607,.162-1.227,.626-1.691Zm.044,3.86c0,.828,.672,1.5,1.5,1.5s1.5-.672,1.5-1.5-.672-1.5-1.5-1.5-1.5,.672-1.5,1.5Z"/>
</svg>
