<?xml version="1.0" encoding="UTF-8"?>
<svg xmlns="http://www.w3.org/2000/svg" id="Layer_1" data-name="Layer 1" viewBox="0 0 24 24">
  <path d="m18,12c3.309,0,6-2.691,6-6S21.309,0,18,0s-6,2.691-6,6,2.691,6,6,6Zm0-10c2.206,0,4,1.794,4,4s-1.794,4-4,4-4-1.794-4-4,1.794-4,4-4Zm-.707,4.707c-.188-.188-.293-.442-.293-.707v-2c0-.552.447-1,1-1s1,.448,1,1v1.586l.707.707c.391.391.391,1.023,0,1.414-.195.195-.451.293-.707.293s-.512-.098-.707-.293l-1-1Zm3.363,8.149c-1.195-1.142-3.089-1.141-4.282.007l-1.464,1.165c-3.198-1.357-5.474-3.638-6.932-6.947l1.159-1.456c1.146-1.192,1.147-3.085.006-4.281,0,0-1.852-2.407-1.883-2.438-1.206-1.208-3.172-1.207-4.327-.047l-1.149,1.003C.634,3.012,0,4.565,0,6.238c0,7.636,10.126,17.762,17.762,17.762,1.673,0,3.227-.633,4.421-1.833l.912-1.05c1.205-1.207,1.205-3.17,0-4.376-.03-.031-2.438-1.883-2.438-1.883Zm.977,4.896l-.912,1.05c-.771.772-1.821,1.197-2.959,1.197-5.989,0-15.762-8.805-15.762-15.762,0-1.138.425-2.189,1.146-2.913l1.15-1.005c.214-.213.494-.32.775-.32.263,0,.526.094.734.283,0,0,1.842,2.393,1.872,2.423.428.427.428,1.123,0,1.549-.027.027-1.635,2.044-1.635,2.044-.225.281-.279.661-.146.995,1.713,4.268,4.681,7.232,8.821,8.812.328.126.703.068.979-.151,0,0,2.018-1.608,2.044-1.635.414-.414,1.135-.414,1.549,0,.03.031,2.425,1.873,2.425,1.873.388.43.374,1.097-.085,1.56Z"/>
</svg>
