<?xml version="1.0" encoding="UTF-8"?>
<svg xmlns="http://www.w3.org/2000/svg" id="Layer_1" data-name="Layer 1" viewBox="0 0 24 24">
  <path d="m19.5,1.5c0-.828.672-1.5,1.5-1.5s1.5.672,1.5,1.5-.672,1.5-1.5,1.5-1.5-.672-1.5-1.5Zm1.5,7c-.828,0-1.5.672-1.5,1.5s.672,1.5,1.5,1.5,1.5-.672,1.5-1.5-.672-1.5-1.5-1.5Zm1.5,10c0-.828-.672-1.5-1.5-1.5s-1.5.672-1.5,1.5.672,1.5,1.5,1.5,1.5-.672,1.5-1.5Zm-6.5-6c0,1.155-.878,2.099-2,2.225v4.275c0,.553-.447,1-1,1s-1-.447-1-1c0-1.903-2.916-2-3.5-2h-1.002l1.221,2.662c.437.952.36,2.047-.206,2.929-.565.883-1.529,1.409-2.577,1.409-1.209,0-2.308-.714-2.798-1.819l-2.183-4.695c-.636-1.431-.955-2.934-.955-4.482v-1.003c0-2.206,1.794-4,4-4h4.5c.584,0,3.5-.097,3.5-2,0-.553.448-1,1-1s1,.447,1,1v4.275c1.122.126,2,1.07,2,2.225Zm-9.099,7.996l-1.604-3.496h-2.362l2.024,4.354c.333.75,1.446.821,1.871.158.199-.311.225-.681.071-1.016Zm5.099-11.268c-.912.497-2.103.771-3.5.771h-4.5c-1.103,0-2,.897-2,2v1.003c0,.679.075,1.346.223,1.997h6.277c1.397,0,2.588.274,3.5.771v-6.543Zm9,11.771c-1.162,0-2.22.538-2.829,1.44-.309.458-.188,1.079.27,1.389.459.309,1.08.188,1.389-.27.465-.689,1.877-.689,2.342,0,.193.286.509.44.83.44.192,0,.387-.056.559-.171.458-.31.578-.931.27-1.389-.609-.902-1.667-1.44-2.829-1.44Zm-1.171-14.44c.465-.689,1.877-.689,2.342,0,.193.286.509.44.83.44.192,0,.387-.056.559-.171.458-.31.578-.931.27-1.389-.609-.902-1.667-1.44-2.829-1.44s-2.22.538-2.829,1.44c-.309.458-.188,1.079.27,1.389.459.308,1.08.188,1.389-.27Zm1.171,5.94c-1.162,0-2.22.538-2.829,1.44-.309.458-.188,1.079.27,1.389.459.308,1.08.188,1.389-.27.465-.689,1.877-.689,2.342,0,.193.286.509.44.83.44.192,0,.387-.056.559-.171.458-.31.578-.931.27-1.389-.609-.902-1.667-1.44-2.829-1.44Z"/>
</svg>
