<?xml version="1.0" encoding="UTF-8"?>
<svg xmlns="http://www.w3.org/2000/svg" id="Layer_1" data-name="Layer 1" viewBox="0 0 24 24">
  <path d="m14,19h-4.443c-2.535,0-4.67-1.898-4.966-4.416L3.215,2.883c-.059-.503-.486-.883-.993-.883h-1.222c-.552,0-1-.448-1-1S.448,0,1,0h1.222c1.521,0,2.801,1.139,2.979,2.649l.041.351h15.757c.902,0,1.748.4,2.32,1.098s.799,1.605.622,2.49c-.915,4.566-.931,4.628-.941,4.665-.118.449-.523.747-.967.747-.084,0-.169-.01-.254-.033-.525-.138-.843-.668-.721-1.193.058-.269.921-4.578.921-4.578.059-.294-.017-.597-.208-.83-.19-.233-.472-.366-.773-.366H5.478l.941,8h7.581c.552,0,1,.448,1,1s-.448,1-1,1h-7.263c.416,1.174,1.528,2,2.82,2h4.443c.552,0,1,.448,1,1s-.448,1-1,1Zm-7,1c-1.105,0-2,.895-2,2s.895,2,2,2,2-.895,2-2-.895-2-2-2Zm12-7c-1.379,0-2.5,1.121-2.5,2.5s1.121,2.5,2.5,2.5,2.5-1.121,2.5-2.5-1.121-2.5-2.5-2.5Zm0,6c-2.333,0-4.375,1.538-4.966,3.741-.143.533.173,1.082.707,1.225.532.143,1.082-.173,1.225-.707.357-1.33,1.605-2.259,3.034-2.259s2.677.929,3.034,2.259c.12.447.524.741.965.741.085,0,.173-.011.26-.035.533-.143.85-.692.707-1.225-.591-2.203-2.633-3.741-4.966-3.741Z"/>
</svg>
