<?xml version="1.0" encoding="UTF-8"?>
<svg xmlns="http://www.w3.org/2000/svg" id="Layer_1" data-name="Layer 1" viewBox="0 0 24 24">
  <path d="m24,12c0,.552-.447,1-1,1s-1-.448-1-1c0-5.514-4.486-10-10-10S2,6.486,2,12c0,.552-.447,1-1,1s-1-.448-1-1C0,5.383,5.383,0,12,0s12,5.383,12,12Zm-5.704,4.401l-5.179,5.136c-.034.034-.081.046-.117.076v-13.613c0-.552-.447-1-1-1s-1,.448-1,1v13.613c-.037-.031-.085-.043-.119-.078l-5.177-5.134c-.392-.388-1.024-.387-1.414.006-.389.393-.387,1.025.006,1.414l5.175,5.132c.676.675,1.574,1.047,2.529,1.047s1.854-.372,2.527-1.045l5.177-5.134c.393-.389.395-1.021.006-1.414-.39-.394-1.021-.395-1.414-.006Z"/>
</svg>
