<?xml version="1.0" encoding="UTF-8"?>
<svg xmlns="http://www.w3.org/2000/svg" id="Layer_1" data-name="Layer 1" viewBox="0 0 24 24">
  <path d="m0,8c0-2.206,1.794-4,4-4h16.955l-1.34-1.272c-.402-.378-.421-1.011-.042-1.414.379-.403,1.011-.421,1.414-.042l2.404,2.263c.396.394.611.92.611,1.465s-.215,1.072-.591,1.446l-2.424,2.282c-.193.182-.439.272-.686.272-.266,0-.531-.105-.728-.314-.379-.402-.359-1.035.042-1.414l1.351-1.272H4c-1.103,0-2,.897-2,2s.897,2,2,2h14.171c1.692,0,3.208,1.072,3.772,2.667.184.521-.089,1.092-.61,1.276-.11.039-.223.058-.333.058-.412,0-.798-.257-.943-.667-.282-.797-1.04-1.333-1.886-1.333H4c-2.206,0-4-1.794-4-4Zm12.985,7.272c-.403-.379-1.034-.36-1.414.042-.379.402-.359,1.035.042,1.414l1.34,1.272h-3.955c-.552,0-1,.448-1,1s.448,1,1,1h3.966l-1.351,1.272c-.402.378-.421,1.011-.042,1.414.197.209.462.314.728.314.246,0,.492-.09.686-.272l2.424-2.282c.375-.374.591-.901.591-1.446s-.215-1.072-.611-1.465l-2.404-2.263Zm-6.985,2.728v2c0,1.103-.897,2-2,2h-2c-1.103,0-2-.897-2-2v-2c0-1.103.897-2,2-2h2c1.103,0,2,.897,2,2Zm-2,0H1.999v2h2.001v-2Zm20,0v2c0,1.103-.897,2-2,2h-2c-1.103,0-2-.897-2-2v-2c0-1.103.897-2,2-2h2c1.103,0,2,.897,2,2Zm-2,0h-2.001v2h2.001v-2Z"/>
</svg>
