<?xml version="1.0" encoding="UTF-8"?>
<svg xmlns="http://www.w3.org/2000/svg" id="Layer_1" data-name="Layer 1" viewBox="0 0 24 24">
  <path d="m23.665,22.587l-.522.6c-.551.552-1.277.813-2,.813-3.714,0-9.143-5.143-9.143-9.143,0-.723.261-1.449.813-2l.6-.522c.446-.446,1.17-.446,1.616,0l1.208,1.302c.446.446.446,1.17,0,1.616l-1.025,1.036c.901,2.244,2.429,3.71,4.5,4.5l1.036-1.025c.446-.446,1.17-.446,1.616,0l1.302,1.208c.446.446.446,1.17,0,1.616ZM11,3.5c0-1.93,1.57-3.5,3.5-3.5s3.5,1.57,3.5,3.5-1.57,3.5-3.5,3.5-3.5-1.57-3.5-3.5Zm2,0c0,.827.673,1.5,1.5,1.5s1.5-.673,1.5-1.5-.673-1.5-1.5-1.5-1.5.673-1.5,1.5Zm-.2,5.899c-.658-.876-1.705-1.399-2.8-1.399-1.93,0-3.5,1.57-3.5,3.5,0,1.658,1.178,3.1,2.801,3.43.067.014.134.02.2.02.466,0,.883-.327.979-.801.11-.541-.24-1.069-.781-1.179-.695-.141-1.199-.76-1.199-1.47,0-.827.673-1.5,1.5-1.5.477,0,.914.219,1.2.601.332.442.958.53,1.4.199.441-.332.531-.958.199-1.4ZM2,3.5c0-1.93,1.57-3.5,3.5-3.5s3.5,1.57,3.5,3.5-1.57,3.5-3.5,3.5-3.5-1.57-3.5-3.5Zm2,0c0,.827.673,1.5,1.5,1.5s1.5-.673,1.5-1.5-.673-1.5-1.5-1.5-1.5.673-1.5,1.5Zm5,12.5c-2.757,0-5,2.243-5,5,0,.552.448,1,1,1s1-.448,1-1c0-1.654,1.346-3,3-3,.552,0,1-.448,1-1s-.448-1-1-1Zm-3-7c0-.552-.448-1-1-1-2.757,0-5,2.243-5,5,0,.552.448,1,1,1s1-.448,1-1c0-1.654,1.346-3,3-3,.552,0,1-.448,1-1Z"/>
</svg>
