<?xml version="1.0" encoding="UTF-8"?>
<svg xmlns="http://www.w3.org/2000/svg" id="Layer_1" data-name="Layer 1" viewBox="0 0 24 24">
  <path d="M22.325,19.27c-.017-.045-1.512-2.769-1.512-2.769l.128-.368c.37-1.044,1.059-2.987,1.059-5.159C22,4.45,14.913,.96,13.494,.327c-.973-.434-2.087-.434-3.058,0C9.027,.955,2,4.42,2,10.974c0,2.265,.699,4.31,1.036,5.292l.083,.234c-.02,.029-1.43,2.731-1.444,2.77-.278,.742-.221,1.568,.157,2.266s1.039,1.196,1.771,1.358l3.784,1.015c.872,.221,1.773,.026,2.48-.525s1.111-1.382,1.11-2.278l-.006-5.808c0-.328-.162-.636-.432-.822-1.61-1.111-2.571-2.224-2.571-2.975,0-.953,.547-1.5,1.5-1.5,.247,0,.542,.124,.8,.334l.337,.379c.345,.389,.842,.612,1.362,.612h0c.52,0,1.017-.223,1.362-.611l.337-.38c.261-.213,.55-.334,.8-.334,.953,0,1.5,.547,1.5,1.5,0,.751-.959,1.862-2.565,2.971-.271,.188-.432,.495-.432,.824l.005,5.818c0,.895,.405,1.724,1.11,2.273,.514,.401,1.131,.612,1.771,.612,.238,0,.48-.029,.72-.089l3.777-1.006c.774-.173,1.435-.672,1.813-1.369s.435-1.523,.157-2.266Zm-1.915,1.312c-.06,.111-.203,.306-.529,.379l-3.801,1.012c-.268,.069-.545,.008-.761-.162-.217-.169-.341-.424-.341-.699l-.005-5.303c1.989-1.466,2.996-2.914,2.996-4.309,0-2.061-1.439-3.5-3.5-3.5-.75,0-1.607,.396-2.247,.951l-.253,.284-.253-.284c-.64-.556-1.496-.951-2.247-.951-2.061,0-3.5,1.439-3.5,3.5,0,1.395,1.01,2.845,3.003,4.313l.005,5.293c0,.275-.124,.531-.341,.7-.217,.171-.497,.229-.747,.166l-3.81-1.021c-.286-.063-.429-.258-.489-.369-.056-.104-.135-.311-.058-.563l1.286-2.463c.314-.506,.386-1.118,.194-1.69l-.084-.247c-.324-.948-.928-2.713-.928-4.645,0-5.431,6.508-8.489,7.251-8.82,.455-.203,.97-.203,1.427,0,.75,.334,7.322,3.42,7.322,8.82,0,1.828-.591,3.495-.944,4.491l-.14,.4c-.198,.592-.115,1.227,.184,1.67l1.37,2.492c.073,.248-.005,.452-.061,.555Z"/>
</svg>
