<?xml version="1.0" encoding="UTF-8"?>
<svg xmlns="http://www.w3.org/2000/svg" id="Layer_1" data-name="Layer 1" viewBox="0 0 24 24">
  <path d="M4.284,18.362c.352,.426,.292,1.057-.133,1.408-.187,.154-.412,.229-.637,.229-.288,0-.573-.124-.771-.362-3.652-4.416-3.658-10.833-.015-15.257,.351-.427,.98-.489,1.408-.136,.426,.351,.487,.98,.136,1.407-3.035,3.686-3.03,9.031,.012,12.71ZM21.272,4.381c-.351-.427-.982-.487-1.408-.136-.426,.351-.487,.98-.136,1.407,3.029,3.678,3.029,9.018,0,12.695-.351,.427-.29,1.057,.136,1.407,.186,.154,.412,.229,.635,.229,.289,0,.575-.124,.772-.364,3.636-4.415,3.636-10.823,0-15.238ZM12,13.5c-.828,0-1.5,.672-1.5,1.5s.672,1.5,1.5,1.5,1.5-.672,1.5-1.5-.672-1.5-1.5-1.5Zm8-1.5c0,4.411-3.589,8-8,8s-8-3.589-8-8S7.589,4,12,4s8,3.589,8,8Zm-2,0c0-3.309-2.691-6-6-6s-6,2.691-6,6,2.691,6,6,6,6-2.691,6-6Zm-6,0c.552,0,1-.447,1-1v-3c0-.553-.448-1-1-1s-1,.447-1,1v3c0,.553,.448,1,1,1Z"/>
</svg>
