<?xml version="1.0" encoding="UTF-8"?>
<svg xmlns="http://www.w3.org/2000/svg" id="Layer_1" data-name="Layer 1" viewBox="0 0 24 24">
  <path d="m2,6c0-.552.448-1,1-1h1v-1c0-.552.448-1,1-1s1,.448,1,1v1h1c.552,0,1,.448,1,1s-.448,1-1,1h-1v1c0,.552-.448,1-1,1s-1-.448-1-1v-1h-1c-.552,0-1-.448-1-1Zm9-2h1v1c0,.552.448,1,1,1s1-.448,1-1v-1h1c.552,0,1-.448,1-1s-.448-1-1-1h-1v-1c0-.552-.448-1-1-1s-1,.448-1,1v1h-1c-.552,0-1,.448-1,1s.448,1,1,1Zm12.236,9.015l-6.805,7.638c-1.896,2.128-4.618,3.348-7.466,3.348h-4.965c-2.206,0-4-1.794-4-4v-5c0-2.206,1.794-4,4-4h8.858c1.139,0,2.138.609,2.689,1.519l3.216-3.534c.542-.595,1.282-.944,2.086-.981.808-.042,1.574.24,2.168.782,1.214,1.107,1.312,3.004.219,4.229Zm-1.566-2.751c-.199-.182-.46-.274-.728-.262-.27.013-.518.129-.7.329l-4.426,4.864c-.385,1.07-1.339,1.891-2.515,2.059l-5.16.737c-.546.079-1.053-.301-1.131-.849-.078-.547.302-1.054.848-1.132l5.161-.737c.56-.079.981-.565.981-1.13,0-.63-.512-1.143-1.142-1.143H4c-1.103,0-2,.897-2,2v5c0,1.103.897,2,2,2h4.965c2.279,0,4.456-.977,5.973-2.678l6.805-7.638c.367-.412.334-1.049-.073-1.421Z"/>
</svg>
