<?xml version="1.0" encoding="UTF-8"?>
<svg xmlns="http://www.w3.org/2000/svg" id="Layer_1" data-name="Layer 1" viewBox="0 0 24 24">
  <path d="m18,13h-8c-.552,0-1-.447-1-1s.448-1,1-1h8c.553,0,1,.447,1,1s-.447,1-1,1Zm-5-4h5c.553,0,1-.447,1-1s-.447-1-1-1h-5c-.552,0-1,.447-1,1s.448,1,1,1Zm-3,6c-.552,0-1,.447-1,1s.448,1,1,1h1c.552,0,1-.447,1-1s-.448-1-1-1h-1Zm-5.5-6c-1.378,0-2.5-1.121-2.5-2.5v-.671c-.505-.178-.958-.491-1.31-.915C.118,4.224-.114,3.316.054,2.425.263,1.318,1.14.383,2.236.099c.751-.194,1.506-.099,2.16.258C5.404-.112,6.596-.112,7.604.356,8.258,0,9.014-.098,9.763.099h0c1.096.284,1.974,1.22,2.182,2.326.168.892-.063,1.799-.636,2.489-.352.424-.805.737-1.31.915v.671c0,1.379-1.122,2.5-2.5,2.5h-3Zm0-2h3c.276,0,.5-.225.5-.5v-1.5c0-.553.448-1,1-1,.298,0,.579-.132.771-.362.112-.136.289-.425.21-.842-.067-.355-.363-.669-.72-.762-.429-.11-.738.07-.922.241-.349.323-.877.355-1.262.08-.649-.465-1.503-.465-2.152,0-.385.275-.915.243-1.262-.08-.145-.135-.367-.275-.664-.275-.081,0-.167.011-.259.034-.356.093-.652.406-.72.762-.078.417.098.706.21.842.191.23.472.362.771.362.552,0,1,.447,1,1v1.5c0,.275.224.5.5.5Zm19.5-2v8.515c0,1.87-.729,3.628-2.051,4.95l-3.484,3.484c-1.322,1.322-3.08,2.051-4.95,2.051h-4.515c-2.757,0-5-2.243-5-5v-7c0-.553.448-1,1-1s1,.447,1,1v7c0,1.654,1.346,3,3,3h4.515c.165,0,.323-.032.485-.047v-4.953c0-1.654,1.346-3,3-3h4.953c.016-.162.047-.32.047-.485V5c0-1.654-1.346-3-3-3h-4c-.553,0-1-.447-1-1s.447-1,1-1h4c2.757,0,5,2.243,5,5Zm-3.465,12.051c.315-.315.564-.675.781-1.051h-4.316c-.552,0-1,.448-1,1v4.316c.376-.217.736-.466,1.051-.781l3.484-3.484Z"/>
</svg>
