<?xml version="1.0" encoding="UTF-8"?>
<svg xmlns="http://www.w3.org/2000/svg" id="Layer_1" data-name="Layer 1" viewBox="0 0 24 24">
  <path d="m17.632,14.256c-.276-.479-.887-.643-1.366-.367l-.977.563c-.605-.652-1.393-1.126-2.289-1.331v-1.121c0-.553-.448-1-1-1s-1,.447-1,1v1.121c-.896.205-1.685.678-2.289,1.331l-.977-.563c-.478-.275-1.09-.111-1.366.367-.275.479-.111,1.09.368,1.365l.983.566c-.129.418-.218.853-.218,1.313s.089.895.218,1.313l-.983.566c-.479.275-.643.887-.368,1.365.185.321.521.501.868.501.169,0,.341-.043.498-.134l.977-.563c.605.652,1.393,1.126,2.289,1.331v1.121c0,.553.448,1,1,1s1-.447,1-1v-1.121c.896-.205,1.685-.678,2.289-1.331l.977.563c.157.091.329.134.498.134.346,0,.683-.18.868-.501.275-.479.111-1.09-.368-1.365l-.983-.566c.129-.418.218-.853.218-1.313s-.089-.895-.218-1.313l.983-.566c.479-.275.643-.887.368-1.365Zm-5.632,5.744c-1.378,0-2.5-1.121-2.5-2.5s1.122-2.5,2.5-2.5,2.5,1.121,2.5,2.5-1.122,2.5-2.5,2.5Zm12-7.5c0,2.491-1.341,4.814-3.5,6.062-.478.278-1.089.113-1.366-.364-.276-.479-.113-1.09.365-1.366,1.542-.893,2.5-2.552,2.5-4.332,0-2.615-1.858-4.883-4.417-5.394-.958-.191-1.745-.801-2.158-1.673-1.182-2.494-3.817-3.827-6.567-3.329-2.407.441-4.369,2.44-4.771,4.862-.122.735-.114,1.469.024,2.181.192.989-.177,2.048-.963,2.763-.729.662-1.146,1.606-1.146,2.59,0,1.37.925,2.564,2.25,2.905.535.138.856.684.719,1.218-.116.451-.522.751-.968.751-.083,0-.166-.01-.25-.031-2.208-.569-3.75-2.561-3.75-4.843,0-1.546.656-3.029,1.801-4.07.273-.248.405-.593.346-.901-.184-.946-.195-1.919-.033-2.89C2.66,3.35,5.225.737,8.497.138c3.594-.66,7.184,1.167,8.735,4.438.14.296.41.503.742.569,3.492.696,6.026,3.789,6.026,7.354Z"/>
</svg>
