<?xml version="1.0" encoding="UTF-8"?>
<svg xmlns="http://www.w3.org/2000/svg" id="Layer_1" data-name="Layer 1" viewBox="0 0 24 24">
  <path d="m14.034,9.741c.591-2.203,2.633-3.741,4.966-3.741s4.375,1.538,4.966,3.741c.144.533-.174,1.082-.707,1.225-.087.023-.174.034-.26.034-.441,0-.845-.294-.965-.741-.356-1.33-1.604-2.259-3.034-2.259s-2.678.929-3.034,2.259c-.144.535-.688.853-1.225.707-.533-.143-.851-.691-.707-1.225Zm4.966-4.741c1.379,0,2.5-1.121,2.5-2.5s-1.121-2.5-2.5-2.5-2.5,1.121-2.5,2.5,1.121,2.5,2.5,2.5Zm0,8c-1.379,0-2.5,1.121-2.5,2.5s1.121,2.5,2.5,2.5,2.5-1.121,2.5-2.5-1.121-2.5-2.5-2.5Zm0,6c-2.333,0-4.375,1.538-4.966,3.741-.144.533.174,1.082.707,1.225.536.146,1.081-.172,1.225-.707.356-1.33,1.604-2.259,3.034-2.259s2.678.929,3.034,2.259c.12.447.523.741.965.741.086,0,.173-.011.26-.034.533-.143.851-.691.707-1.225-.591-2.203-2.633-3.741-4.966-3.741Zm-7.76-1.546l-3.081-3.153c-.384-.395-1.018-.402-1.414-.016-.395.386-.402,1.019-.016,1.414l2.248,2.301h-3.978c-1.654,0-3-1.346-3-3v-6c0-1.654,1.346-3,3-3h5c.553,0,1-.447,1-1s-.447-1-1-1h-5C2.243,4,0,6.243,0,9v6c0,2.757,2.243,5,5,5h3.993l-2.263,2.301c-.387.396-.379,1.028.016,1.414.194.19.447.285.699.285.26,0,.52-.101.715-.301l3.083-3.153c.291-.232.507-.526.614-.824.191-.466.191-.978.016-1.402-.122-.337-.34-.634-.632-.865Z"/>
</svg>
