<?xml version="1.0" encoding="UTF-8"?>
<svg xmlns="http://www.w3.org/2000/svg" id="Layer_1" data-name="Layer 1" viewBox="0 0 24 24">
  <path d="m24,12c0,.553-.447,1-1,1s-1-.447-1-1c0-5.514-4.486-10-10-10S2,6.486,2,12c0,.553-.448,1-1,1s-1-.447-1-1C0,5.383,5.383,0,12,0s12,5.383,12,12Zm-9.471-3.953c-1.352-1.351-3.71-1.348-5.056-.002l-5.177,5.134c-.392.389-.395,1.021-.006,1.414.389.393,1.023.395,1.414.006l5.18-5.137c.034-.034.08-.046.116-.075v13.614c0,.553.448,1,1,1s1-.447,1-1v-13.613c.037.031.085.043.119.078l5.177,5.134c.195.193.449.29.704.29.257,0,.515-.099.71-.296.389-.393.387-1.025-.006-1.414l-5.175-5.132Z"/>
</svg>
