<?xml version="1.0" encoding="UTF-8"?>
<svg xmlns="http://www.w3.org/2000/svg" id="Layer_1" data-name="Layer 1" viewBox="0 0 24 24">
  <path d="m21.946,7.803l-1.946-2.502v-1.8c0-1.93-1.57-3.5-3.5-3.5H7.5c-1.93,0-3.5,1.57-3.5,3.5v1.8l-1.946,2.502c-.68.874-1.054,1.964-1.054,3.07v8.127c0,2.757,2.243,5,5,5h12c2.757,0,5-2.243,5-5v-8.127c0-1.106-.374-2.196-1.054-3.07Zm-7.683-.104c-.347.389-.611.833-.819,1.301H3.655l2.334-3h9.784l-1.51,1.699ZM7.5,2h9c.827,0,1.5.673,1.5,1.5v.5H6v-.5c0-.827.673-1.5,1.5-1.5ZM3,19v-8h10.002c0,.007-.002.014-.002.021v7.979c0,1.13.391,2.162,1.026,3H6c-1.654,0-3-1.346-3-3Zm18,0c0,1.654-1.346,3-3,3s-3-1.346-3-3v-7.979c0-.736.27-1.443.758-1.993l2.457-2.765,2.153,2.767c.407.524.632,1.179.632,1.842v8.127Z"/>
</svg>
