<?xml version="1.0" encoding="UTF-8"?>
<svg xmlns="http://www.w3.org/2000/svg" id="Layer_1" data-name="Layer 1" viewBox="0 0 24 24">
  <path d="m16,14c-.795,0-.951.69-.956.707-.295.961-2.733,2.293-6.544,2.293-3.968,0-6.5-1.48-6.5-2.5v-1.908c1.64.929,4.077,1.408,6.5,1.408.177,0,.353-.003.527-.007.552-.015.987-.475.973-1.027-.015-.552-.454-1.012-1.026-.973-.156.004-.314.006-.473.006-4.206,0-6.5-1.463-6.5-2.214v-2.193c1.64.929,4.077,1.408,6.5,1.408.177,0,.353-.002.527-.007.552-.015.987-.474.973-1.026-.015-.552-.454-1.012-1.026-.973-.156.004-.314.006-.473.006-4.206,0-6.5-1.463-6.5-2.214v-.571c0-.751,2.294-2.214,6.5-2.214.642,0,1.275.037,1.882.109.547.056,1.046-.327,1.111-.875.065-.548-.327-1.046-.875-1.111C5.912-.437,0,.976,0,4.214v15.572c0,2.767,4.276,4.214,8.5,4.214s8.5-1.447,8.5-4.214v-4.786c0-.018-.051-1-1-1Zm-7.5,8c-4.206,0-6.5-1.463-6.5-2.214v-2.327c1.535.954,3.835,1.541,6.5,1.541,2.626,0,4.939-.568,6.5-1.505v2.291c0,.751-2.294,2.214-6.5,2.214ZM24,1.22v3.06c0,.398-.322.72-.72.72h-.693s-.002,0-.002,0c-.001,0-.002,0-.003,0h-2.361c-.291,0-.554-.175-.665-.444-.112-.269-.05-.579.156-.785l.842-.842c-.705-.585-1.6-.929-2.553-.929-1.591,0-3.03.942-3.668,2.4-.22.505-.805.738-1.316.516-.506-.221-.737-.811-.516-1.317.956-2.187,3.115-3.6,5.5-3.6,1.494,0,2.899.555,3.976,1.506l.795-.796c.206-.206.515-.267.785-.156.269.111.444.374.444.665Zm-.5,7.181c-.955,2.187-3.114,3.6-5.5,3.6-1.494,0-2.899-.555-3.976-1.506l-.795.795c-.206.206-.515.267-.785.156-.269-.111-.444-.374-.444-.665v-3.06c0-.398.322-.72.72-.72h3.06c.291,0,.554.175.665.444.112.269.05.579-.156.785l-.842.842c.705.585,1.6.929,2.553.929,1.591,0,3.03-.942,3.668-2.4.221-.504.806-.735,1.316-.516.506.221.737.811.516,1.317Z"/>
</svg>
