<?xml version="1.0" encoding="UTF-8"?>
<svg xmlns="http://www.w3.org/2000/svg" id="Layer_1" data-name="Layer 1" viewBox="0 0 24 24">
  <path d="m23.966,22.741c.144.534-.173,1.082-.707,1.225-.087.023-.174.035-.26.035-.441,0-.845-.295-.965-.741-.356-1.33-1.604-2.259-3.034-2.259s-2.678.929-3.034,2.259c-.144.533-.692.85-1.225.707-.534-.143-.851-.691-.707-1.225.591-2.203,2.633-3.741,4.966-3.741s4.375,1.538,4.966,3.741Zm-4.966-9.741c-1.379,0-2.5,1.121-2.5,2.5s1.121,2.5,2.5,2.5,2.5-1.121,2.5-2.5-1.121-2.5-2.5-2.5Zm-15,2h1c1.2,0,2.266-.542,3-1.382.734.84,1.8,1.382,3,1.382h2c.458,0,.907-.077,1.334-.229.521-.185.793-.756.608-1.277-.186-.521-.758-.791-1.276-.608-.212.075-.437.113-.666.113h-2c-1.103,0-2-.897-2-2,0-.552-.448-1-1-1s-1,.448-1,1c0,1.103-.897,2-2,2h-1c-1.078,0-1.959-.857-1.999-1.926l1.146-6.949c.383-1.253,1.555-2.125,2.87-2.125h.983v3c0,.552.448,1,1,1s1-.448,1-1v-3h6v3c0,.552.447,1,1,1s1-.448,1-1v-3h.982c1.314,0,2.487.871,2.87,2.125l1.146,6.949c-.008.203-.046.402-.113.593-.184.521.09,1.092.61,1.276.522.185,1.092-.089,1.276-.61.15-.428.228-.877.228-1.333,0-.055-1.199-7.337-1.21-7.374-.61-2.135-2.588-3.626-4.808-3.626H6.017C3.797,0,1.82,1.491,1.209,3.626c-.011.037-1.209,7.319-1.209,7.374,0,1.005.385,1.914,1,2.618v6.382c0,2.206,1.794,4,4,4h6c.552,0,1-.448,1-1s-.448-1-1-1h-6c-1.103,0-2-.897-2-2v-5.142c.322.084.653.142,1,.142Z"/>
</svg>
