<?xml version="1.0" encoding="UTF-8"?>
<svg xmlns="http://www.w3.org/2000/svg" id="Layer_1" data-name="Layer 1" viewBox="0 0 24 24">
  <path d="m24,12c0,.552-.447,1-1,1s-1-.448-1-1c0-5.514-4.486-10-10-10-3.154,0-6.115,1.51-7.991,4h2.991c.553,0,1,.448,1,1s-.447,1-1,1H3c-1.103,0-2-.897-2-2V2c0-.552.447-1,1-1s1,.448,1,1v2.104C5.256,1.542,8.524,0,12,0c6.617,0,12,5.383,12,12Zm-3,4h-4c-.553,0-1,.448-1,1s.447,1,1,1h2.991c-1.877,2.49-4.837,4-7.991,4-5.514,0-10-4.486-10-10,0-.552-.447-1-1-1s-1,.448-1,1c0,6.617,5.383,12,12,12,3.476,0,6.744-1.542,9-4.104v2.104c0,.552.447,1,1,1s1-.448,1-1v-4c0-1.103-.897-2-2-2Z"/>
</svg>
